{
.appVersion = "1265";
DisplayStrings = (
kK
);
copyright = "Copyright 2014 - 2017 Adobe Systems Incorporated (http://www.adobe.com/), with Reserved Font Name 'Source'. Copyright 2019 Google LLC.";
customParameters = (
{
name = trademark;
value = "Source is a trademark of Adobe Systems Incorporated in the United States and/or other countries.";
},
{
name = "Family Alignment Zones";
value = (
"{729, 20}",
"{669, 15}",
"{646, 13}",
"{549, 14}",
"{527, 13}",
"{475, 13}",
"{0, -15}",
"{-239, -10}"
);
},
{
name = Axes;
value = (
{
Name = Weight;
Tag = wght;
},
{
Name = Contrast;
Tag = CONT;
},
{
Name = Serif;
Tag = SERF;
}
);
},
{
name = "Virtual Master";
value = (
{
Axis = Weight;
Location = "150";
},
{
Axis = Contrast;
Location = "100";
},
{
Axis = Serif;
Location = "100";
}
);
},
{
name = vendorID;
value = GOOG;
},
{
name = fsType;
value = (
);
},
{
name = note;
value = "# DeepMind Serif Modification Notes\012\012* Design space uses the main Weight Axis taken from Source Serif.\012* Additional axis include a contrast layer, which is done with existing masters\012* A further virtual master alters the Serif curvature.\012* All glyphs can be output with a sharp or curved serif.";
},
{
name = license;
value = "This Font Software is licensed under the SIL Open Font License, Version 1.1. This license is available with a FAQ at: http://scripts.sil.org/OFL";
},
{
name = licenseURL;
value = "http://scripts.sil.org/OFL";
}
);
date = "2019-06-03 20:57:24 +0000";
designer = "Colophon Foundry, Frank Grießhammer";
designerURL = "http://www.adobe.com/type";
familyName = "DM Serif Text";
featurePrefixes = (
{
automatic = 1;
code = "languagesystem DFLT dflt;\012languagesystem latn dflt;\012languagesystem latn ROM;\012languagesystem latn MOL;\012languagesystem latn CAT;\012";
name = Languagesystems;
}
);
features = (
{
automatic = 1;
code = "feature locl;\012feature sups;\012feature frac;\012feature ordn;\012";
name = aalt;
},
{
automatic = 1;

glyphs = (
{
color = 4;
glyphname = A;
lastChange = "2019-06-06 16:52:29 +0000";
layers = (
{
anchors = (
{
name = aboveUC;
position = "{315, 687}";
},
{
name = belowLC;
position = "{290, -22}";
},
{
name = ogonek;
position = "{546, 0}";
}
);
layerId = "A9E1993B-555C-4280-8E93-805D459F1135";
paths = (
{
closed = 1;
nodes = (
"160 0 LINE",
"160 21 LINE",
"138 28 LINE SMOOTH",
"108 38 OFFCURVE",
"107 56 OFFCURVE",
"117 86 CURVE SMOOTH",
"160 213 LINE",
"381 213 LINE",
"423 84 LINE SMOOTH",
"432 54 OFFCURVE",
"428 34 OFFCURVE",
"399 25 CURVE SMOOTH",
"382 20 LINE",
"382 0 LINE",
"636 0 LINE",
"636 20 LINE",
"621 24 LINE SMOOTH",
"592 33 OFFCURVE",
"581 47 OFFCURVE",
"571 76 CURVE SMOOTH",
"370 664 LINE",
"287 664 LINE",
"85 80 LINE SMOOTH",
"75 52 OFFCURVE",
"62 37 OFFCURVE",
"34 29 CURVE SMOOTH",
"7 21 LINE",
"7 0 LINE"
);
},
{
closed = 1;
nodes = (
"274 543 LINE",
"372 242 LINE",
"170 242 LINE"
);
}
);
width = 648.7483;
}
);
leftKerningGroup = LAT_A;
rightKerningGroup = LAT_A;
unicode = 0041;
},
{
color = 4;
glyphname = AE;
lastChange = "2019-06-06 16:52:29 +0000";
layers = (
{
anchors = (
{
name = aboveUC;
position = "{580, 687}";
}
);
layerId = "A9E1993B-555C-4280-8E93-805D459F1135";
paths = (
{
closed = 1;
nodes = (
"199 0 LINE",
"199 21 LINE",
"171 29 LINE SMOOTH",
"143 37 OFFCURVE",
"134 57 OFFCURVE",
"147 84 CURVE SMOOTH",
"234 259 LINE",
"424 259 LINE",
"424 199 OFFCURVE",
"424 141 OFFCURVE",
"423 75 CURVE SMOOTH",
"422 49 OFFCURVE",
"410 33 OFFCURVE",
"386 26 CURVE SMOOTH",
"372 21 LINE",
"372 0 LINE",
"866 0 LINE",
"873 160 LINE",
"845 160 LINE",
"806 63 LINE SMOOTH",
"796 41 OFFCURVE",
"780 30 OFFCURVE",
"755 30 CURVE SMOOTH",
"567 30 LINE",
"565 107 OFFCURVE",
"565 182 OFFCURVE",
"565 326 CURVE",
"663 326 LINE SMOOTH",
"683 326 OFFCURVE",
"697 318 OFFCURVE",
"707 299 CURVE SMOOTH",
"732 248 LINE",
"754 248 LINE",
"754 433 LINE",
"732 433 LINE",
"707 382 LINE",
"698 364 OFFCURVE",
"683 356 OFFCURVE",
"663 356 CURVE SMOOTH",
"565 356 LINE",
"565 465 OFFCURVE",
"565 548 OFFCURVE",
"567 631 CURVE",
"732 631 LINE SMOOTH",
"757 631 OFFCURVE",
"773 621 OFFCURVE",
"782 598 CURVE SMOOTH",
"825 501 LINE",
"853 501 LINE",
"846 661 LINE",
"309 661 LINE",
"309 640 LINE",
"335 633 LINE SMOOTH",
"363 626 OFFCURVE",
"372 606 OFFCURVE",
"359 580 CURVE SMOOTH",
"111 86 LINE SMOOTH",
"95 55 OFFCURVE",
"75 38 OFFCURVE",
"42 28 CURVE SMOOTH",
"18 21 LINE",
"18 0 LINE"
);
},
{
closed = 1;
nodes = (
"415 626 LINE",
"424 626 LINE",
"424 289 LINE",
"248 289 LINE"
);
}
);
width = 901.06646;
}
);
rightKerningGroup = LAT_E;
unicode = 00C6;
},
{
color = 4;
glyphname = B;
lastChange = "2019-06-06 16:52:29 +0000";
layers = (
{
anchors = (
{
name = aboveUC;
position = "{259, 687}";
},
{
name = belowLC;
position = "{295, -22}";
}
);
layerId = "A9E1993B-555C-4280-8E93-805D459F1135";
paths = (
{
closed = 1;
nodes = (
"274 0 LINE SMOOTH",
"505 0 OFFCURVE",
"570 98 OFFCURVE",
"570 184 CURVE SMOOTH",
"570 270 OFFCURVE",
"508 335 OFFCURVE",
"362 351 CURVE",
"488 375 OFFCURVE",
"533 435 OFFCURVE",
"533 504 CURVE SMOOTH",
"533 594 OFFCURVE",
"465 661 OFFCURVE",
"305 661 CURVE SMOOTH",
"23 661 LINE",
"23 640 LINE",
"39 635 LINE SMOOTH",
"68 626 OFFCURVE",
"75 611 OFFCURVE",
"75 579 CURVE SMOOTH",
"75 502 OFFCURVE",
"76 425 OFFCURVE",
"76 348 CURVE SMOOTH",
"76 312 LINE SMOOTH",
"76 235 OFFCURVE",
"76 158 OFFCURVE",
"75 82 CURVE SMOOTH",
"75 52 OFFCURVE",
"67 36 OFFCURVE",
"39 26 CURVE SMOOTH",
"23 21 LINE",
"23 0 LINE"
);
},
{
closed = 1;
nodes = (
"218 108 OFFCURVE",
"218 184 OFFCURVE",
"218 329 CURVE",
"270 329 LINE SMOOTH",
"378 329 OFFCURVE",
"422 290 OFFCURVE",
"422 185 CURVE SMOOTH",
"422 76 OFFCURVE",
"373 29 OFFCURVE",
"273 29 CURVE SMOOTH",
"218 29 LINE"
);
},
{
closed = 1;
nodes = (
"218 466 OFFCURVE",
"218 549 OFFCURVE",
"218 632 CURVE",
"278 632 LINE SMOOTH",
"358 632 OFFCURVE",
"394 595 OFFCURVE",
"394 493 CURVE SMOOTH",
"394 394 OFFCURVE",
"355 358 OFFCURVE",
"265 358 CURVE SMOOTH",
"218 358 LINE"
);
}
);
width = 593.88924;
}
);
leftKerningGroup = LAT_E;
leftMetricsKey = H;
unicode = 0042;
},
{
color = 4;
glyphname = C;
lastChange = "2019-06-06 16:52:29 +0000";
layers = (
{
anchors = (
{
name = aboveUC;
position = "{350, 687}";
},
{
name = baseLC;
position = "{373, 0}";
},
{
name = belowLC;
position = "{372, -22}";
}
);
layerId = "A9E1993B-555C-4280-8E93-805D459F1135";
paths = (
{
closed = 1;
nodes = (
"446 -17 OFFCURVE",
"516 1 OFFCURVE",
"573 33 CURVE",
"577 177 LINE",
"550 177 LINE",
"512 86 LINE SMOOTH",
"501 59 OFFCURVE",
"489 37 OFFCURVE",
"462 27 CURVE SMOOTH",
"439 17 OFFCURVE",
"420 12 OFFCURVE",
"384 12 CURVE SMOOTH",
"266 12 OFFCURVE",
"176 91 OFFCURVE",
"176 330 CURVE SMOOTH",
"176 569 OFFCURVE",
"272 649 OFFCURVE",
"390 649 CURVE SMOOTH",
"415 649 OFFCURVE",
"430 646 OFFCURVE",
"449 637 CURVE SMOOTH",
"473 628 OFFCURVE",
"487 605 OFFCURVE",
"500 578 CURVE SMOOTH",
"542 499 LINE",
"569 499 LINE",
"565 630 LINE",
"506 662 OFFCURVE",
"443 679 OFFCURVE",
"370 679 CURVE SMOOTH",
"180 679 OFFCURVE",
"21 556 OFFCURVE",
"21 331 CURVE SMOOTH",
"21 106 OFFCURVE",
"170 -17 OFFCURVE",
"365 -17 CURVE SMOOTH"
);
}
);
width = 602.67112;
}
);
leftKerningGroup = LAT_O;
leftMetricsKey = O;
rightKerningGroup = LAT_C;
unicode = 0043;
},
{
color = 4;
glyphname = D;
lastChange = "2019-06-06 16:52:29 +0000";
layers = (
{
anchors = (
{
name = aboveUC;
position = "{281, 687}";
},
{
name = belowLC;
position = "{283, -22}";
}
);
layerId = "A9E1993B-555C-4280-8E93-805D459F1135";
paths = (
{
closed = 1;
nodes = (
"268 0 LINE SMOOTH",
"482 0 OFFCURVE",
"625 120 OFFCURVE",
"625 332 CURVE SMOOTH",
"625 539 OFFCURVE",
"495 661 OFFCURVE",
"286 661 CURVE SMOOTH",
"23 661 LINE",
"23 640 LINE",
"44 634 LINE SMOOTH",
"66 627 OFFCURVE",
"75 611 OFFCURVE",
"75 583 CURVE SMOOTH",
"76 506 OFFCURVE",
"76 428 OFFCURVE",
"76 351 CURVE SMOOTH",
"76 316 LINE SMOOTH",
"76 233 OFFCURVE",
"76 154 OFFCURVE",
"75 78 CURVE SMOOTH",
"75 50 OFFCURVE",
"66 35 OFFCURVE",
"43 28 CURVE SMOOTH",
"23 21 LINE",
"23 0 LINE"
);
},
{
closed = 1;
nodes = (
"219 122 OFFCURVE",
"219 217 OFFCURVE",
"219 317 CURVE SMOOTH",
"219 351 LINE SMOOTH",
"219 446 OFFCURVE",
"219 540 OFFCURVE",
"220 632 CURVE",
"275 632 LINE SMOOTH",
"412 632 OFFCURVE",
"473 557 OFFCURVE",
"473 331 CURVE SMOOTH",
"473 104 OFFCURVE",
"412 29 OFFCURVE",
"271 29 CURVE SMOOTH",
"220 29 LINE"
);
}
);
width = 645.94937;
}
);
leftKerningGroup = LAT_E;
leftMetricsKey = H;
rightKerningGroup = LAT_D;
rightMetricsKey = O;
unicode = 0044;
},
{
color = 4;
glyphname = Eth;
lastChange = "2019-06-06 16:52:29 +0000";
layers = (
{
components = (
{
alignment = -1;
name = D;
}
);
layerId = "A9E1993B-555C-4280-8E93-805D459F1135";
paths = (
{
closed = 1;
nodes = (
"391 321 LINE",
"391 356 LINE",
"37 356 LINE",
"37 321 LINE"
);
}
);
width = 645.94937;
}
);
leftKerningGroup = LAT_E;
rightKerningGroup = LAT_D;
rightMetricsKey = O;
unicode = 00D0;
},
{
color = 4;
glyphname = E;
lastChange = "2019-06-06 16:52:29 +0000";
layers = (
{
anchors = (
{
name = aboveUC;
position = "{275, 687}";
},
{
name = belowLC;
position = "{294, -22}";
},
{
name = ogonek;
position = "{424, 0}";
}
);
layerId = "A9E1993B-555C-4280-8E93-805D459F1135";
paths = (
{
closed = 1;
nodes = (
"519 0 LINE",
"526 160 LINE",
"498 160 LINE",
"461 70 LINE SMOOTH",
"451 45 OFFCURVE",
"439 30 OFFCURVE",
"412 30 CURVE SMOOTH",
"220 30 LINE",
"219 107 OFFCURVE",
"219 182 OFFCURVE",
"219 326 CURVE",
"319 326 LINE SMOOTH",
"346 326 OFFCURVE",
"356 310 OFFCURVE",
"367 286 CURVE SMOOTH",
"385 248 LINE",
"407 248 LINE",
"407 433 LINE",
"385 433 LINE",
"368 395 LINE SMOOTH",
"356 371 OFFCURVE",
"345 356 OFFCURVE",
"318 356 CURVE SMOOTH",
"219 356 LINE",
"219 465 OFFCURVE",
"219 548 OFFCURVE",
"220 631 CURVE",
"390 631 LINE SMOOTH",
"417 631 OFFCURVE",
"427 616 OFFCURVE",
"438 591 CURVE SMOOTH",
"478 501 LINE",
"506 501 LINE",
"499 661 LINE",
"23 661 LINE",
"23 640 LINE",
"44 633 LINE SMOOTH",
"69 625 OFFCURVE",
"75 611 OFFCURVE",
"76 583 CURVE SMOOTH",
"76 506 OFFCURVE",
"76 428 OFFCURVE",
"76 351 CURVE SMOOTH",
"76 310 LINE SMOOTH",
"76 232 OFFCURVE",
"76 154 OFFCURVE",
"76 80 CURVE SMOOTH",
"75 50 OFFCURVE",
"67 35 OFFCURVE",
"43 28 CURVE SMOOTH",
"23 21 LINE",
"23 0 LINE"
);
}
);
width = 553.97468;
}
);
leftKerningGroup = LAT_E;
leftMetricsKey = H;
rightKerningGroup = LAT_E;
unicode = 0045;
},
{
color = 4;
glyphname = F;
lastChange = "2019-06-06 16:52:29 +0000";
layers = (
{
anchors = (
{
name = aboveUC;
position = "{280, 687}";
},
{
name = belowLC;
position = "{152, -22}";
}
);
layerId = "A9E1993B-555C-4280-8E93-805D459F1135";
paths = (
{
closed = 1;
nodes = (
"287 0 LINE",
"287 21 LINE",
"257 28 LINE SMOOTH",
"231 35 OFFCURVE",
"220 51 OFFCURVE",
"220 79 CURVE SMOOTH",
"219 156 OFFCURVE",
"219 236 OFFCURVE",
"219 324 CURVE",
"315 324 LINE SMOOTH",
"346 324 OFFCURVE",
"355 309 OFFCURVE",
"370 283 CURVE SMOOTH",
"390 247 LINE",
"412 247 LINE",
"412 430 LINE",
"390 430 LINE",
"370 393 LINE SMOOTH",
"356 367 OFFCURVE",
"345 353 OFFCURVE",
"315 353 CURVE SMOOTH",
"219 353 LINE",
"219 446 OFFCURVE",
"219 541 OFFCURVE",
"221 631 CURVE",
"375 631 LINE SMOOTH",
"406 631 OFFCURVE",
"419 616 OFFCURVE",
"432 591 CURVE SMOOTH",
"484 492 LINE",
"511 492 LINE",
"504 661 LINE",
"23 661 LINE",
"23 640 LINE",
"45 633 LINE SMOOTH",
"70 625 OFFCURVE",
"74 611 OFFCURVE",
"75 583 CURVE SMOOTH",
"76 506 OFFCURVE",
"76 428 OFFCURVE",
"76 351 CURVE SMOOTH",
"76 310 LINE SMOOTH",
"76 231 OFFCURVE",
"76 153 OFFCURVE",
"75 77 CURVE SMOOTH",
"74 49 OFFCURVE",
"68 34 OFFCURVE",
"42 26 CURVE SMOOTH",
"23 21 LINE",
"23 0 LINE"
);
}
);
width = 535.95253;
}
);
leftKerningGroup = LAT_E;
leftMetricsKey = H;
unicode = 0046;
},
{
color = 4;
glyphname = G;
lastChange = "2019-06-06 16:52:29 +0000";
layers = (
{
anchors = (
{
name = aboveUC;
position = "{359, 687}";
},
{
name = belowLC;
position = "{379, -22}";
}
);
layerId = "A9E1993B-555C-4280-8E93-805D459F1135";
paths = (
{
closed = 1;
nodes = (
"451 -17 OFFCURVE",
"519 3 OFFCURVE",
"588 41 CURVE",
"588 84 LINE SMOOTH",
"588 140 OFFCURVE",
"589 195 OFFCURVE",
"589 249 CURVE SMOOTH",
"589 276 OFFCURVE",
"602 290 OFFCURVE",
"628 298 CURVE SMOOTH",
"640 301 LINE",
"640 322 LINE",
"364 322 LINE",
"364 301 LINE",
"409 291 LINE SMOOTH",
"435 285 OFFCURVE",
"450 270 OFFCURVE",
"450 243 CURVE SMOOTH",
"450 189 OFFCURVE",
"451 119 OFFCURVE",
"451 65 CURVE SMOOTH",
"451 39 OFFCURVE",
"443 22 OFFCURVE",
"418 18 CURVE SMOOTH",
"407 14 OFFCURVE",
"394 12 OFFCURVE",
"380 12 CURVE SMOOTH",
"256 12 OFFCURVE",
"176 107 OFFCURVE",
"176 332 CURVE SMOOTH",
"176 556 OFFCURVE",
"261 649 OFFCURVE",
"388 649 CURVE SMOOTH",
"413 649 OFFCURVE",
"426 647 OFFCURVE",
"444 641 CURVE SMOOTH",
"468 634 OFFCURVE",
"480 622 OFFCURVE",
"496 590 CURVE SMOOTH",
"546 489 LINE",
"573 489 LINE",
"569 632 LINE",
"514 663 OFFCURVE",
"453 679 OFFCURVE",
"381 679 CURVE SMOOTH",
"154 679 OFFCURVE",
"21 539 OFFCURVE",
"21 332 CURVE SMOOTH",
"21 119 OFFCURVE",
"160 -17 OFFCURVE",
"364 -17 CURVE SMOOTH"
);
}
);
width = 654.98418;
}
);
leftKerningGroup = LAT_O;
leftMetricsKey = O;
rightKerningGroup = LAT_G;
unicode = 0047;
},
{
color = 4;
glyphname = H;
lastChange = "2019-06-06 16:52:29 +0000";
layers = (
{
anchors = (
{
name = aboveUC;
position = "{344, 687}";
},
{
name = belowLC;
position = "{344, -22}";
}
);
layerId = "A9E1993B-555C-4280-8E93-805D459F1135";
paths = (
{
closed = 1;
nodes = (
"270 0 LINE",
"270 21 LINE",
"254 26 LINE SMOOTH",
"229 35 OFFCURVE",
"220 49 OFFCURVE",
"220 76 CURVE SMOOTH",
"220 139 OFFCURVE",
"220 210 OFFCURVE",
"220 325 CURVE",
"469 325 LINE",
"469 209 OFFCURVE",
"469 139 OFFCURVE",
"469 76 CURVE SMOOTH",
"469 49 OFFCURVE",
"461 35 OFFCURVE",
"435 26 CURVE SMOOTH",
"419 21 LINE",
"419 0 LINE",
"666 0 LINE",
"666 21 LINE",
"647 27 LINE SMOOTH",
"621 36 OFFCURVE",
"613 50 OFFCURVE",
"613 77 CURVE SMOOTH",
"613 155 OFFCURVE",
"613 233 OFFCURVE",
"613 310 CURVE SMOOTH",
"613 351 LINE SMOOTH",
"613 430 OFFCURVE",
"613 507 OFFCURVE",
"613 584 CURVE SMOOTH",
"613 611 OFFCURVE",
"621 625 OFFCURVE",
"647 634 CURVE SMOOTH",
"666 640 LINE",
"666 661 LINE",
"419 661 LINE",
"419 640 LINE",
"435 635 LINE SMOOTH",
"461 626 OFFCURVE",
"469 612 OFFCURVE",
"469 585 CURVE SMOOTH",
"469 515 OFFCURVE",
"469 443 OFFCURVE",
"469 355 CURVE",
"220 355 LINE",
"220 440 OFFCURVE",
"220 512 OFFCURVE",
"220 585 CURVE SMOOTH",
"220 612 OFFCURVE",
"227 626 OFFCURVE",
"253 635 CURVE SMOOTH",
"270 640 LINE",
"270 661 LINE",
"23 661 LINE",
"23 640 LINE",
"43 634 LINE SMOOTH",
"69 625 OFFCURVE",
"76 610 OFFCURVE",
"76 583 CURVE SMOOTH",
"76 496 OFFCURVE",
"76 417 OFFCURVE",
"76 351 CURVE SMOOTH",
"76 310 LINE SMOOTH",
"76 231 OFFCURVE",
"76 154 OFFCURVE",
"76 77 CURVE SMOOTH",
"76 50 OFFCURVE",
"68 36 OFFCURVE",
"42 27 CURVE SMOOTH",
"23 21 LINE",
"23 0 LINE"
);
}
);
width = 688.95253;
}
);
leftKerningGroup = LAT_E;
rightKerningGroup = LAT_H;
unicode = 0048;
},
{
color = 4;
glyphname = I;
lastChange = "2019-06-06 16:52:29 +0000";
layers = (
{
anchors = (
{
name = aboveUC;
position = "{148, 687}";
},
{
name = belowLC;
position = "{148, -22}";
},
{
name = ogonek;
position = "{193, 0}";
}
);
layerId = "A9E1993B-555C-4280-8E93-805D459F1135";
paths = (
{
closed = 1;
nodes = (
"273 0 LINE",
"273 21 LINE",
"253 27 LINE SMOOTH",
"227 36 OFFCURVE",
"220 50 OFFCURVE",
"220 78 CURVE SMOOTH",
"220 155 OFFCURVE",
"220 233 OFFCURVE",
"220 310 CURVE SMOOTH",
"220 351 LINE SMOOTH",
"220 429 OFFCURVE",
"220 507 OFFCURVE",
"220 583 CURVE SMOOTH",
"220 611 OFFCURVE",
"227 625 OFFCURVE",
"253 634 CURVE SMOOTH",
"273 640 LINE",
"273 661 LINE",
"23 661 LINE",
"23 640 LINE",
"43 634 LINE SMOOTH",
"70 625 OFFCURVE",
"76 611 OFFCURVE",
"76 583 CURVE SMOOTH",
"76 506 OFFCURVE",
"76 428 OFFCURVE",
"76 351 CURVE SMOOTH",
"76 310 LINE SMOOTH",
"76 232 OFFCURVE",
"76 154 OFFCURVE",
"76 78 CURVE SMOOTH",
"76 50 OFFCURVE",
"69 36 OFFCURVE",
"43 27 CURVE SMOOTH",
"23 21 LINE",
"23 0 LINE"
);
}
);
width = 295.86709;
}
);
leftKerningGroup = LAT_E;
leftMetricsKey = H;
rightKerningGroup = LAT_H;
rightMetricsKey = H;
unicode = 0049;
},
{
color = 4;
glyphname = J;
lastChange = "2019-06-06 16:52:29 +0000";
layers = (
{
anchors = (
{
name = aboveUC;
position = "{268, 687}";
},
{
name = belowLC;
position = "{174, -166}";
}
);
layerId = "A9E1993B-555C-4280-8E93-805D459F1135";
paths = (
{
closed = 1;
nodes = (
"195 -17 OFFCURVE",
"276 31 OFFCURVE",
"309 122 CURVE SMOOTH",
"334 182 OFFCURVE",
"344 259 OFFCURVE",
"344 388 CURVE SMOOTH",
"344 407 LINE SMOOTH",
"344 466 OFFCURVE",
"344 526 OFFCURVE",
"344 584 CURVE SMOOTH",
"344 611 OFFCURVE",
"351 626 OFFCURVE",
"376 634 CURVE SMOOTH",
"397 640 LINE",
"397 661 LINE",
"142 661 LINE",
"142 640 LINE",
"164 634 LINE SMOOTH",
"188 626 OFFCURVE",
"197 609 OFFCURVE",
"198 581 CURVE SMOOTH",
"202 381 OFFCURVE",
"206 259 OFFCURVE",
"206 179 CURVE SMOOTH",
"206 113 OFFCURVE",
"203 67 OFFCURVE",
"195 41 CURVE SMOOTH",
"189 27 OFFCURVE",
"175 26 OFFCURVE",
"166 36 CURVE SMOOTH",
"153 59 LINE SMOOTH",
"129 94 OFFCURVE",
"104 107 OFFCURVE",
"70 107 CURVE SMOOTH",
"36 107 OFFCURVE",
"8 86 OFFCURVE",
"8 50 CURVE SMOOTH",
"8 9 OFFCURVE",
"42 -17 OFFCURVE",
"106 -17 CURVE SMOOTH"
);
}
);
width = 419.82595;
}
);
leftKerningGroup = LAT_J;
rightKerningGroup = LAT_J;
unicode = 004A;
},
{
color = 4;
glyphname = K;
lastChange = "2019-10-15 13:48:54 +0000";
layers = (
{
anchors = (
{
name = aboveUC;
position = "{318, 687}";
},
{
name = belowLC;
position = "{326, -22}";
}
);
layerId = "A9E1993B-555C-4280-8E93-805D459F1135";
paths = (
{
closed = 1;
nodes = (
"266 0 LINE",
"266 21 LINE",
"247 27 LINE SMOOTH",
"222 35 OFFCURVE",
"214 49 OFFCURVE",
"214 76 CURVE",
"214 395 LINE",
"214 473 OFFCURVE",
"214 507 OFFCURVE",
"214 583 CURVE SMOOTH",
"214 611 OFFCURVE",
"220 626 OFFCURVE",
"245 633 CURVE SMOOTH",
"266 640 LINE",
"266 661 LINE",
"23 661 LINE",
"23 640 LINE",
"43 633 LINE SMOOTH",
"69 625 OFFCURVE",
"76 611 OFFCURVE",
"76 583 CURVE SMOOTH",
"76 506 OFFCURVE",
"76 428 OFFCURVE",
"76 351 CURVE SMOOTH",
"76 310 LINE SMOOTH",
"76 231 OFFCURVE",
"76 154 OFFCURVE",
"76 77 CURVE SMOOTH",
"76 50 OFFCURVE",
"70 35 OFFCURVE",
"44 27 CURVE SMOOTH",
"23 21 LINE",
"23 0 LINE"
);
},
{
closed = 1;
nodes = (
"638 0 LINE",
"638 21 LINE",
"624 25 LINE SMOOTH",
"591 34 OFFCURVE",
"575 50 OFFCURVE",
"554 80 CURVE SMOOTH",
"319 415 LINE",
"215 340 LINE",
"406 75 LINE SMOOTH",
"424 51 OFFCURVE",
"424 30 OFFCURVE",
"399 24 CURVE SMOOTH",
"387 21 LINE",
"387 0 LINE"
);
},
{
closed = 1;
nodes = (
"503 588 LINE SMOOTH",
"527 613 OFFCURVE",
"541 624 OFFCURVE",
"572 633 CURVE SMOOTH",
"598 640 LINE",
"598 661 LINE",
"440 661 LINE",
"440 640 LINE",
"457 635 LINE SMOOTH",
"483 626 OFFCURVE",
"479 608 OFFCURVE",
"459 588 CURVE SMOOTH",
"215 340 LINE",
"245 326 LINE"
);
}
);
width = 647.8481;
}
);
leftKerningGroup = LAT_E;
leftMetricsKey = H;
rightKerningGroup = LAT_K;
unicode = 004B;
},
{
color = 4;
glyphname = L;
lastChange = "2019-06-06 16:52:29 +0000";
layers = (
{
anchors = (
{
name = aboveUC;
position = "{154, 687}";
},
{
name = belowLC;
position = "{272, -22}";
}
);
layerId = "A9E1993B-555C-4280-8E93-805D459F1135";
paths = (
{
closed = 1;
nodes = (
"505 0 LINE",
"515 179 LINE",
"487 179 LINE",
"450 96 LINE SMOOTH",
"430 53 OFFCURVE",
"412 30 OFFCURVE",
"367 30 CURVE SMOOTH",
"220 30 LINE",
"220 122 OFFCURVE",
"220 212 OFFCURVE",
"220 293 CURVE SMOOTH",
"220 351 LINE SMOOTH",
"220 429 OFFCURVE",
"220 506 OFFCURVE",
"220 582 CURVE SMOOTH",
"220 610 OFFCURVE",
"227 625 OFFCURVE",
"252 634 CURVE SMOOTH",
"271 640 LINE",
"271 661 LINE",
"23 661 LINE",
"23 640 LINE",
"44 634 LINE SMOOTH",
"70 625 OFFCURVE",
"76 611 OFFCURVE",
"76 584 CURVE SMOOTH",
"76 507 OFFCURVE",
"76 429 OFFCURVE",
"76 351 CURVE SMOOTH",
"76 296 LINE SMOOTH",
"76 229 OFFCURVE",
"76 154 OFFCURVE",
"76 78 CURVE SMOOTH",
"76 50 OFFCURVE",
"71 36 OFFCURVE",
"43 27 CURVE SMOOTH",
"23 21 LINE",
"23 0 LINE"
);
}
);
width = 539.66163;
}
);
leftKerningGroup = LAT_E;
leftMetricsKey = H;
rightKerningGroup = LAT_L;
unicode = 004C;
},
{
color = 4;
glyphname = Lcaron;
lastChange = "2019-06-06 16:52:29 +0000";
layers = (
{
components = (
{
alignment = -1;
name = L;
}
);
layerId = "A9E1993B-555C-4280-8E93-805D459F1135";
paths = (
{
closed = 1;
nodes = (
"498 479 OFFCURVE",
"557 554 OFFCURVE",
"557 629 CURVE SMOOTH",
"557 679 OFFCURVE",
"528 710 OFFCURVE",
"486 710 CURVE SMOOTH",
"449 710 OFFCURVE",
"425 682 OFFCURVE",
"425 648 CURVE SMOOTH",
"425 616 OFFCURVE",
"450 591 OFFCURVE",
"488 581 CURVE SMOOTH",
"514 574 LINE",
"509 611 LINE",
"502 537 OFFCURVE",
"467 494 OFFCURVE",
"417 464 CURVE",
"427 445 LINE"
);
}
);
width = 585.53639;
}
);
leftKerningGroup = LAT_E;
rightKerningGroup = LAT_L;
unicode = 013D;
},
{
color = 4;
glyphname = Lslash;
lastChange = "2019-06-06 16:52:29 +0000";
layers = (
{
components = (
{
alignment = -1;
name = L;
}
);
layerId = "A9E1993B-555C-4280-8E93-805D459F1135";
paths = (
{
closed = 1;
nodes = (
"400 416 LINE",
"400 453 LINE",
"206 348 LINE",
"206 310 LINE"
);
},
{
closed = 1;
nodes = (
"186 303 LINE",
"186 340 LINE",
"36 259 LINE",
"36 222 LINE"
);
}
);
width = 585.53639;
}
);
leftKerningGroup = LAT_E;
rightKerningGroup = LAT_L;
unicode = 0141;
},
{
color = 4;
glyphname = M;
lastChange = "2019-06-06 16:52:29 +0000";
layers = (
{
anchors = (
{
name = aboveUC;
position = "{384, 687}";
},
{
name = belowLC;
position = "{352, -22}";
}
);
layerId = "A9E1993B-555C-4280-8E93-805D459F1135";
paths = (
{
closed = 1;
nodes = (
"161 0 LINE",
"161 22 LINE",
"141 29 LINE SMOOTH",
"116 36 OFFCURVE",
"110 52 OFFCURVE",
"110 82 CURVE SMOOTH",
"110 330 LINE",
"106 558 LINE",
"321 0 LINE",
"377 0 LINE",
"581 564 LINE",
"579 296 LINE SMOOTH",
"579 229 OFFCURVE",
"579 155 OFFCURVE",
"579 79 CURVE SMOOTH",
"579 52 OFFCURVE",
"576 38 OFFCURVE",
"551 29 CURVE SMOOTH",
"529 22 LINE",
"529 0 LINE",
"772 0 LINE",
"772 22 LINE",
"752 29 LINE SMOOTH",
"727 38 OFFCURVE",
"723 51 OFFCURVE",
"723 79 CURVE SMOOTH",
"722 155 OFFCURVE",
"722 233 OFFCURVE",
"722 310 CURVE SMOOTH",
"722 351 LINE SMOOTH",
"722 429 OFFCURVE",
"722 506 OFFCURVE",
"723 583 CURVE SMOOTH",
"723 610 OFFCURVE",
"730 626 OFFCURVE",
"756 634 CURVE SMOOTH",
"772 639 LINE",
"772 661 LINE",
"577 661 LINE",
"400 172 LINE",
"212 661 LINE",
"21 661 LINE",
"21 639 LINE",
"44 630 LINE SMOOTH",
"70 620 OFFCURVE",
"74 605 OFFCURVE",
"74 578 CURVE SMOOTH",
"74 83 LINE SMOOTH",
"74 53 OFFCURVE",
"66 36 OFFCURVE",
"41 28 CURVE SMOOTH",
"21 22 LINE",
"21 0 LINE"
);
}
);
width = 794.85231;
}
);
leftKerningGroup = LAT_M;
rightKerningGroup = LAT_H;
rightMetricsKey = H;
unicode = 004D;
},
{
color = 4;
glyphname = N;
lastChange = "2019-06-06 16:52:29 +0000";
layers = (
{
anchors = (
{
name = aboveUC;
position = "{327, 687}";
},
{
name = belowLC;
position = "{345, -22}";
}
);
layerId = "A9E1993B-555C-4280-8E93-805D459F1135";
paths = (
{
closed = 1;
nodes = (
"189 0 LINE",
"189 21 LINE",
"162 29 LINE SMOOTH",
"137 36 OFFCURVE",
"131 55 OFFCURVE",
"131 83 CURVE SMOOTH",
"131 520 LINE",
"512 -4 LINE",
"568 -4 LINE",
"568 578 LINE SMOOTH",
"568 605 OFFCURVE",
"571 625 OFFCURVE",
"596 633 CURVE SMOOTH",
"621 640 LINE",
"621 661 LINE",
"472 661 LINE",
"472 640 LINE",
"502 633 LINE SMOOTH",
"528 626 OFFCURVE",
"535 605 OFFCURVE",
"535 578 CURVE SMOOTH",
"535 207 LINE",
"203 661 LINE",
"32 661 LINE",
"32 640 LINE",
"50 627 LINE SMOOTH",
"74 608 OFFCURVE",
"79 603 OFFCURVE",
"98 566 CURVE",
"98 82 LINE SMOOTH",
"98 55 OFFCURVE",
"89 36 OFFCURVE",
"64 29 CURVE SMOOTH",
"35 21 LINE",
"35 0 LINE"
);
}
);
width = 656.47158;
}
);
leftKerningGroup = LAT_M;
rightKerningGroup = LAT_N;
unicode = 004E;
},
{
color = 4;
glyphname = O;
lastChange = "2019-06-06 16:52:29 +0000";
layers = (
{
anchors = (
{
name = aboveUC;
position = "{334, 687}";
},
{
name = belowLC;
position = "{334, -22}";
},
{
name = hornLC;
position = "{482, 663}";
},
{
name = ogonek;
position = "{424.991, 0}";
}
);
layerId = "A9E1993B-555C-4280-8E93-805D459F1135";
paths = (
{
closed = 1;
nodes = (
"497 -17 OFFCURVE",
"648 104 OFFCURVE",
"648 331 CURVE SMOOTH",
"648 562 OFFCURVE",
"496 679 OFFCURVE",
"335 679 CURVE SMOOTH",
"174 679 OFFCURVE",
"21 557 OFFCURVE",
"21 331 CURVE SMOOTH",
"21 99 OFFCURVE",
"173 -17 OFFCURVE",
"335 -17 CURVE SMOOTH"
);
},
{
closed = 1;
nodes = (
"222 13 OFFCURVE",
"176 92 OFFCURVE",
"176 331 CURVE SMOOTH",
"176 569 OFFCURVE",
"222 648 OFFCURVE",
"335 648 CURVE SMOOTH",
"448 648 OFFCURVE",
"494 569 OFFCURVE",
"494 331 CURVE SMOOTH",
"494 92 OFFCURVE",
"448 13 OFFCURVE",
"335 13 CURVE SMOOTH"
);
}
);
width = 669.47943;
}
);
leftKerningGroup = LAT_O;
rightKerningGroup = LAT_O;
unicode = 004F;
},
{
color = 4;
glyphname = Oslash;
lastChange = "2019-06-06 16:52:29 +0000";
layers = (
{
anchors = (
{
name = aboveUC;
position = "{334, 687}";
}
);
layerId = "A9E1993B-555C-4280-8E93-805D459F1135";
paths = (
{
closed = 1;
nodes = (
"497 -17 OFFCURVE",
"648 104 OFFCURVE",
"648 331 CURVE SMOOTH",
"648 562 OFFCURVE",
"496 679 OFFCURVE",
"335 679 CURVE SMOOTH",
"174 679 OFFCURVE",
"21 557 OFFCURVE",
"21 331 CURVE SMOOTH",
"21 99 OFFCURVE",
"173 -17 OFFCURVE",
"335 -17 CURVE SMOOTH"
);
},
{
closed = 1;
nodes = (
"626 660 LINE",
"594 685 LINE",
"43 8 LINE",
"74 -18 LINE"
);
},
{
closed = 1;
nodes = (
"220 13 OFFCURVE",
"173 120 OFFCURVE",
"173 331 CURVE SMOOTH",
"173 541 OFFCURVE",
"220 648 OFFCURVE",
"335 648 CURVE SMOOTH",
"450 648 OFFCURVE",
"497 541 OFFCURVE",
"497 331 CURVE SMOOTH",
"497 120 OFFCURVE",
"450 13 OFFCURVE",
"335 13 CURVE SMOOTH"
);
}
);
width = 669.47943;
}
);
leftKerningGroup = LAT_O;
leftMetricsKey = O;
rightKerningGroup = LAT_O;
rightMetricsKey = O;
unicode = 00D8;
},
{
color = 4;
glyphname = OE;
lastChange = "2019-06-06 16:52:29 +0000";
layers = (
{
anchors = (
{
name = aboveUC;
position = "{497, 687}";
}
);
layerId = "A9E1993B-555C-4280-8E93-805D459F1135";
paths = (
{
closed = 1;
nodes = (
"415 -17 OFFCURVE",
"462 -10 OFFCURVE",
"505 0 CURVE",
"881 0 LINE",
"887 160 LINE",
"860 160 LINE",
"820 63 LINE SMOOTH",
"811 40 OFFCURVE",
"794 30 OFFCURVE",
"770 30 CURVE SMOOTH",
"583 30 LINE",
"581 107 OFFCURVE",
"581 182 OFFCURVE",
"581 326 CURVE",
"677 326 LINE SMOOTH",
"698 326 OFFCURVE",
"712 318 OFFCURVE",
"722 299 CURVE SMOOTH",
"747 248 LINE",
"769 248 LINE",
"769 433 LINE",
"747 433 LINE",
"721 383 LINE SMOOTH",
"712 364 OFFCURVE",
"697 356 OFFCURVE",
"677 356 CURVE SMOOTH",
"581 356 LINE",
"581 465 OFFCURVE",
"581 548 OFFCURVE",
"583 631 CURVE",
"747 631 LINE SMOOTH",
"771 631 OFFCURVE",
"787 622 OFFCURVE",
"797 599 CURVE SMOOTH",
"840 501 LINE",
"867 501 LINE",
"861 661 LINE",
"505 661 LINE",
"460 673 OFFCURVE",
"413 679 OFFCURVE",
"371 679 CURVE SMOOTH",
"179 679 OFFCURVE",
"21 562 OFFCURVE",
"21 331 CURVE SMOOTH",
"21 99 OFFCURVE",
"179 -17 OFFCURVE",
"371 -17 CURVE SMOOTH"
);
},
{
closed = 1;
nodes = (
"241 12 OFFCURVE",
"176 150 OFFCURVE",
"176 331 CURVE SMOOTH",
"176 511 OFFCURVE",
"241 649 OFFCURVE",
"382 649 CURVE SMOOTH",
"390 649 OFFCURVE",
"395 648 OFFCURVE",
"402 647 CURVE SMOOTH",
"423 645 OFFCURVE",
"434 630 OFFCURVE",
"435 603 CURVE SMOOTH",
"437 503 OFFCURVE",
"437 417 OFFCURVE",
"437 351 CURVE SMOOTH",
"437 310 LINE SMOOTH",
"437 241 OFFCURVE",
"435 154 OFFCURVE",
"434 52 CURVE SMOOTH",
"434 30 OFFCURVE",
"423 15 OFFCURVE",
"402 13 CURVE SMOOTH",
"396 13 OFFCURVE",
"389 12 OFFCURVE",
"382 12 CURVE SMOOTH"
);
}
);
width = 915.50158;
}
);
leftKerningGroup = LAT_O;
leftMetricsKey = O;
rightKerningGroup = LAT_E;
rightMetricsKey = E;
unicode = 0152;
},
{
color = 4;
glyphname = P;
lastChange = "2019-06-06 16:52:29 +0000";
layers = (
{
anchors = (
{
name = aboveUC;
position = "{253, 687}";
},
{
name = belowLC;
position = "{151, -22}";
}
);
layerId = "A9E1993B-555C-4280-8E93-805D459F1135";
paths = (
{
closed = 1;
nodes = (
"287 0 LINE",
"287 21 LINE",
"257 29 LINE SMOOTH",
"231 35 OFFCURVE",
"220 51 OFFCURVE",
"220 79 CURVE SMOOTH",
"219 140 OFFCURVE",
"219 200 OFFCURVE",
"219 256 CURVE",
"255 256 LINE SMOOTH",
"468 256 OFFCURVE",
"543 350 OFFCURVE",
"543 463 CURVE SMOOTH",
"543 582 OFFCURVE",
"459 661 OFFCURVE",
"264 661 CURVE SMOOTH",
"23 661 LINE",
"23 640 LINE",
"42 634 LINE SMOOTH",
"69 625 OFFCURVE",
"75 611 OFFCURVE",
"75 583 CURVE SMOOTH",
"76 506 OFFCURVE",
"76 428 OFFCURVE",
"76 351 CURVE SMOOTH",
"76 310 LINE SMOOTH",
"76 231 OFFCURVE",
"76 153 OFFCURVE",
"75 77 CURVE SMOOTH",
"75 49 OFFCURVE",
"69 34 OFFCURVE",
"43 26 CURVE SMOOTH",
"23 21 LINE",
"23 0 LINE"
);
},
{
closed = 1;
nodes = (
"219 351 LINE SMOOTH",
"219 446 OFFCURVE",
"219 540 OFFCURVE",
"220 632 CURVE",
"257 632 LINE SMOOTH",
"355 632 OFFCURVE",
"405 593 OFFCURVE",
"405 459 CURVE SMOOTH",
"405 325 OFFCURVE",
"360 285 OFFCURVE",
"261 285 CURVE SMOOTH",
"219 285 LINE"
);
}
);
width = 561.40032;
}
);
leftKerningGroup = LAT_E;
leftMetricsKey = H;
unicode = 0050;
},
{
color = 4;
glyphname = Thorn;
lastChange = "2019-06-06 16:52:29 +0000";
layers = (
{
layerId = "A9E1993B-555C-4280-8E93-805D459F1135";
paths = (
{
closed = 1;
nodes = (
"273 0 LINE",
"273 21 LINE",
"256 26 LINE SMOOTH",
"231 33 OFFCURVE",
"219 50 OFFCURVE",
"219 76 CURVE SMOOTH",
"219 99 OFFCURVE",
"218 122 OFFCURVE",
"218 145 CURVE",
"267 145 LINE SMOOTH",
"492 145 OFFCURVE",
"555 235 OFFCURVE",
"555 344 CURVE SMOOTH",
"555 462 OFFCURVE",
"476 535 OFFCURVE",
"284 535 CURVE SMOOTH",
"218 535 LINE",
"218 551 OFFCURVE",
"219 568 OFFCURVE",
"219 585 CURVE",
"219 611 OFFCURVE",
"231 627 OFFCURVE",
"256 635 CURVE SMOOTH",
"273 640 LINE",
"273 661 LINE",
"23 661 LINE",
"23 640 LINE",
"38 636 LINE SMOOTH",
"62 628 OFFCURVE",
"75 612 OFFCURVE",
"75 586 CURVE SMOOTH",
"76 510 OFFCURVE",
"76 422 OFFCURVE",
"76 351 CURVE SMOOTH",
"76 310 LINE SMOOTH",
"76 238 OFFCURVE",
"76 150 OFFCURVE",
"75 75 CURVE SMOOTH",
"75 49 OFFCURVE",
"62 33 OFFCURVE",
"37 25 CURVE SMOOTH",
"23 21 LINE",
"23 0 LINE"
);
},
{
closed = 1;
nodes = (
"217 221 OFFCURVE",
"217 269 OFFCURVE",
"217 317 CURVE",
"217 352 LINE",
"217 403 OFFCURVE",
"217 455 OFFCURVE",
"218 506 CURVE",
"276 506 LINE SMOOTH",
"373 506 OFFCURVE",
"417 462 OFFCURVE",
"417 342 CURVE SMOOTH",
"417 224 OFFCURVE",
"367 174 OFFCURVE",
"276 174 CURVE SMOOTH",
"217 174 LINE"
);
}
);
width = 573.92405;
}
);
leftKerningGroup = LAT_E;
leftMetricsKey = H;
rightMetricsKey = P;
unicode = 00DE;
},
{
color = 9;
glyphname = Q;
lastChange = "2019-06-06 16:52:29 +0000";
layers = (
{
anchors = (
{
name = aboveUC;
position = "{352, 687}";
}
);
components = (
{
alignment = -1;
name = O;
}
);
layerId = "A9E1993B-555C-4280-8E93-805D459F1135";
paths = (
{
closed = 1;
nodes = (
"507 -224 OFFCURVE",
"532 -206 OFFCURVE",
"562 -175 CURVE SMOOTH",
"614 -122 LINE",
"601 -103 LINE",
"568 -122 LINE SMOOTH",
"544 -136 OFFCURVE",
"521 -136 OFFCURVE",
"475 -126 CURVE SMOOTH",
"362 -103 OFFCURVE",
"239 -75 OFFCURVE",
"148 -54 CURVE",
"130 -116 LINE",
"230 20 LINE",
"196 35 LINE",
"59 -178 LINE",
"79 -191 LINE",
"95 -178 LINE SMOOTH",
"112 -163 OFFCURVE",
"131 -161 OFFCURVE",
"154 -166 CURVE SMOOTH",
"253 -187 OFFCURVE",
"416 -224 OFFCURVE",
"469 -224 CURVE SMOOTH"
);
}
);
width = 669.47943;
}
);
leftKerningGroup = LAT_O;
leftMetricsKey = O;
widthMetricsKey = O;
rightKerningGroup = LAT_O;
unicode = 0051;
},
{
color = 4;
glyphname = R;
lastChange = "2019-06-06 16:52:29 +0000";
layers = (
{
anchors = (
{
name = aboveUC;
position = "{270, 687}";
},
{
name = belowLC;
position = "{328, -22}";
}
);
layerId = "A9E1993B-555C-4280-8E93-805D459F1135";
paths = (
{
closed = 1;
nodes = (
"274 0 LINE",
"274 21 LINE",
"250 28 LINE SMOOTH",
"225 35 OFFCURVE",
"218 50 OFFCURVE",
"218 77 CURVE",
"217 144 OFFCURVE",
"217 217 OFFCURVE",
"217 312 CURVE",
"289 312 LINE",
"438 0 LINE",
"615 0 LINE",
"615 20 LINE",
"596 24 LINE SMOOTH",
"570 33 OFFCURVE",
"555 46 OFFCURVE",
"543 69 CURVE SMOOTH",
"402 344 LINE",
"328 319 LINE",
"478 332 OFFCURVE",
"547 419 OFFCURVE",
"547 492 CURVE SMOOTH",
"547 598 OFFCURVE",
"459 661 OFFCURVE",
"303 661 CURVE SMOOTH",
"23 661 LINE",
"23 640 LINE",
"45 633 LINE SMOOTH",
"71 625 OFFCURVE",
"75 611 OFFCURVE",
"75 583 CURVE SMOOTH",
"76 506 OFFCURVE",
"76 428 OFFCURVE",
"76 351 CURVE SMOOTH",
"76 310 LINE SMOOTH",
"76 231 OFFCURVE",
"76 154 OFFCURVE",
"75 77 CURVE SMOOTH",
"75 49 OFFCURVE",
"70 35 OFFCURVE",
"44 27 CURVE SMOOTH",
"23 21 LINE",
"23 0 LINE"
);
},
{
closed = 1;
nodes = (
"217 480 OFFCURVE",
"217 553 OFFCURVE",
"218 632 CURVE",
"275 632 LINE SMOOTH",
"368 632 OFFCURVE",
"408 586 OFFCURVE",
"408 487 CURVE SMOOTH",
"408 388 OFFCURVE",
"366 341 OFFCURVE",
"271 341 CURVE SMOOTH",
"217 341 LINE"
);
}
);
width = 625.33765;
}
);
leftKerningGroup = LAT_E;
leftMetricsKey = H;
rightKerningGroup = LAT_R;
unicode = 0052;
},
{
color = 4;
glyphname = S;
lastChange = "2019-06-06 16:52:29 +0000";
layers = (
{
anchors = (
{
name = aboveUC;
position = "{262, 687}";
},
{
name = baseLC;
position = "{243, 0}";
},
{
name = belowLC;
position = "{246, -22}";
}
);
layerId = "A9E1993B-555C-4280-8E93-805D459F1135";
paths = (
{
closed = 1;
nodes = (
"397 -17 OFFCURVE",
"490 62 OFFCURVE",
"490 180 CURVE SMOOTH",
"490 279 OFFCURVE",
"438 335 OFFCURVE",
"309 391 CURVE SMOOTH",
"264 410 LINE SMOOTH",
"196 441 OFFCURVE",
"159 477 OFFCURVE",
"159 541 CURVE SMOOTH",
"159 608 OFFCURVE",
"213 648 OFFCURVE",
"279 648 CURVE SMOOTH",
"298 648 OFFCURVE",
"306 647 OFFCURVE",
"322 644 CURVE SMOOTH",
"350 638 OFFCURVE",
"367 622 OFFCURVE",
"388 578 CURVE SMOOTH",
"425 503 LINE",
"454 503 LINE",
"461 627 LINE",
"414 659 OFFCURVE",
"350 679 OFFCURVE",
"280 679 CURVE SMOOTH",
"136 679 OFFCURVE",
"39 607 OFFCURVE",
"39 488 CURVE SMOOTH",
"39 380 OFFCURVE",
"108 321 OFFCURVE",
"220 272 CURVE SMOOTH",
"261 254 LINE SMOOTH",
"333 220 OFFCURVE",
"364 191 OFFCURVE",
"364 128 CURVE SMOOTH",
"364 59 OFFCURVE",
"313 13 OFFCURVE",
"232 13 CURVE SMOOTH",
"207 13 OFFCURVE",
"188 16 OFFCURVE",
"165 25 CURVE SMOOTH",
"132 38 OFFCURVE",
"115 63 OFFCURVE",
"96 102 CURVE SMOOTH",
"65 171 LINE",
"36 171 LINE",
"30 32 LINE",
"81 3 OFFCURVE",
"163 -17 OFFCURVE",
"236 -17 CURVE SMOOTH"
);
}
);
width = 519.40762;
}
);
leftKerningGroup = LAT_S;
rightKerningGroup = LAT_S;
unicode = 0053;
},
{
color = 4;
glyphname = T;
lastChange = "2019-06-06 16:52:29 +0000";
layers = (
{
anchors = (
{
name = aboveUC;
position = "{312, 687}";
},
{
name = baseLC;
position = "{312, 0}";
},
{
name = belowLC;
position = "{312, -22}";
}
);
layerId = "A9E1993B-555C-4280-8E93-805D459F1135";
paths = (
{
closed = 1;
nodes = (
"467 0 LINE",
"467 21 LINE",
"426 29 LINE SMOOTH",
"399 34 OFFCURVE",
"384 51 OFFCURVE",
"384 78 CURVE SMOOTH",
"384 155 OFFCURVE",
"384 233 OFFCURVE",
"384 310 CURVE SMOOTH",
"384 351 LINE SMOOTH",
"384 446 OFFCURVE",
"384 540 OFFCURVE",
"384 631 CURVE",
"464 631 LINE SMOOTH",
"507 631 OFFCURVE",
"521 607 OFFCURVE",
"541 566 CURVE SMOOTH",
"576 492 LINE",
"604 492 LINE",
"599 661 LINE",
"25 661 LINE",
"20 492 LINE",
"48 492 LINE",
"83 566 LINE SMOOTH",
"103 607 OFFCURVE",
"117 631 OFFCURVE",
"160 631 CURVE SMOOTH",
"239 631 LINE",
"240 538 OFFCURVE",
"240 444 OFFCURVE",
"240 351 CURVE SMOOTH",
"240 310 LINE SMOOTH",
"240 232 OFFCURVE",
"240 155 OFFCURVE",
"240 78 CURVE SMOOTH",
"240 51 OFFCURVE",
"225 35 OFFCURVE",
"198 29 CURVE SMOOTH",
"158 21 LINE",
"158 0 LINE"
);
}
);
width = 623.93038;
}
);
leftKerningGroup = LAT_T;
rightKerningGroup = LAT_T;
unicode = 0054;
},
{
color = 4;
glyphname = U;
lastChange = "2019-06-06 16:52:29 +0000";
layers = (
{
anchors = (
{
name = aboveUC;
position = "{392, 687}";
},
{
name = belowLC;
position = "{351, -22}";
},
{
name = hornLC;
position = "{572, 680}";
},
{
name = ogonek;
position = "{426, 0}";
}
);
layerId = "A9E1993B-555C-4280-8E93-805D459F1135";
paths = (
{
closed = 1;
nodes = (
"480 -17 OFFCURVE",
"574 73 OFFCURVE",
"574 239 CURVE SMOOTH",
"574 582 LINE SMOOTH",
"574 609 OFFCURVE",
"581 629 OFFCURVE",
"607 634 CURVE SMOOTH",
"635 640 LINE",
"635 661 LINE",
"481 661 LINE",
"481 640 LINE",
"505 635 LINE SMOOTH",
"532 629 OFFCURVE",
"541 608 OFFCURVE",
"541 581 CURVE SMOOTH",
"541 233 LINE SMOOTH",
"541 110 OFFCURVE",
"479 48 OFFCURVE",
"377 48 CURVE SMOOTH",
"279 48 OFFCURVE",
"225 102 OFFCURVE",
"225 231 CURVE SMOOTH",
"225 358 LINE SMOOTH",
"225 434 OFFCURVE",
"225 509 OFFCURVE",
"226 584 CURVE SMOOTH",
"226 611 OFFCURVE",
"238 628 OFFCURVE",
"264 634 CURVE SMOOTH",
"292 640 LINE",
"292 661 LINE",
"22 661 LINE",
"22 640 LINE",
"44 635 LINE SMOOTH",
"70 628 OFFCURVE",
"81 613 OFFCURVE",
"81 586 CURVE SMOOTH",
"82 509 OFFCURVE",
"82 433 OFFCURVE",
"82 358 CURVE SMOOTH",
"82 250 LINE SMOOTH",
"82 58 OFFCURVE",
"186 -17 OFFCURVE",
"337 -17 CURVE SMOOTH"
);
}
);
width = 656.23276;
}
);
leftKerningGroup = LAT_U;
rightKerningGroup = LAT_U;
unicode = 0055;
},
{
color = 4;
glyphname = V;
lastChange = "2019-06-06 16:52:29 +0000";
layers = (
{
anchors = (
{
name = aboveUC;
position = "{351, 687}";
},
{
name = belowLC;
position = "{331, -22}";
}
);
layerId = "A9E1993B-555C-4280-8E93-805D459F1135";
paths = (
{
closed = 1;
nodes = (
"359 -4 LINE",
"558 584 LINE SMOOTH",
"567 612 OFFCURVE",
"575 627 OFFCURVE",
"603 634 CURVE SMOOTH",
"628 640 LINE",
"628 661 LINE",
"479 661 LINE",
"479 641 LINE",
"503 634 LINE SMOOTH",
"533 626 OFFCURVE",
"529 605 OFFCURVE",
"519 575 CURVE SMOOTH",
"374 148 LINE",
"230 575 LINE SMOOTH",
"219 605 OFFCURVE",
"219 626 OFFCURVE",
"250 634 CURVE SMOOTH",
"278 641 LINE",
"278 661 LINE",
"1 661 LINE",
"1 640 LINE",
"23 634 LINE SMOOTH",
"50 626 OFFCURVE",
"65 612 OFFCURVE",
"74 586 CURVE SMOOTH",
"288 -4 LINE"
);
}
);
width = 632.94525;
}
);
unicode = 0056;
},
{
color = 4;
glyphname = W;
lastChange = "2019-06-06 16:52:29 +0000";
layers = (
{
anchors = (
{
name = aboveUC;
position = "{505, 687}";
},
{
name = belowLC;
position = "{474, -22}";
}
);
layerId = "A9E1993B-555C-4280-8E93-805D459F1135";
paths = (
{
closed = 1;
nodes = (
"679 -4 LINE",
"843 576 LINE SMOOTH",
"851 605 OFFCURVE",
"859 623 OFFCURVE",
"886 632 CURVE SMOOTH",
"911 640 LINE",
"911 661 LINE",
"763 661 LINE",
"763 640 LINE",
"783 634 LINE SMOOTH",
"813 625 OFFCURVE",
"814 601 OFFCURVE",
"805 570 CURVE SMOOTH",
"689 161 LINE",
"563 576 LINE SMOOTH",
"554 605 OFFCURVE",
"555 622 OFFCURVE",
"582 631 CURVE SMOOTH",
"610 640 LINE",
"610 661 LINE",
"365 661 LINE",
"365 640 LINE",
"387 631 LINE SMOOTH",
"408 622 OFFCURVE",
"415 608 OFFCURVE",
"424 580 CURVE SMOOTH",
"610 -4 LINE"
);
},
{
closed = 1;
nodes = (
"307 -4 LINE",
"472 493 LINE",
"450 545 LINE",
"323 167 LINE",
"214 577 LINE SMOOTH",
"206 608 OFFCURVE",
"213 624 OFFCURVE",
"244 633 CURVE SMOOTH",
"265 640 LINE",
"265 661 LINE",
"7 661 LINE",
"7 640 LINE",
"19 636 LINE SMOOTH",
"47 627 OFFCURVE",
"56 614 OFFCURVE",
"65 585 CURVE SMOOTH",
"238 -4 LINE"
);
}
);
width = 920.533;
}
);
leftKerningGroup = LAT_W;
rightKerningGroup = LAT_W;
unicode = 0057;
},
{
color = 4;
glyphname = X;
lastChange = "2019-06-06 16:52:29 +0000";
layers = (
{
anchors = (
{
name = aboveUC;
position = "{308, 687}";
},
{
name = belowLC;
position = "{284, -22}";
}
);
layerId = "A9E1993B-555C-4280-8E93-805D459F1135";
paths = (
{
closed = 1;
nodes = (
"159 0 LINE",
"159 21 LINE",
"147 24 LINE SMOOTH",
"120 31 OFFCURVE",
"119 54 OFFCURVE",
"137 83 CURVE SMOOTH",
"259 275 LINE",
"373 84 LINE SMOOTH",
"390 55 OFFCURVE",
"386 32 OFFCURVE",
"357 25 CURVE SMOOTH",
"337 21 LINE",
"337 0 LINE",
"611 0 LINE",
"611 21 LINE",
"591 27 LINE SMOOTH",
"565 36 OFFCURVE",
"551 48 OFFCURVE",
"536 75 CURVE SMOOTH",
"355 382 LINE",
"487 586 LINE SMOOTH",
"503 612 OFFCURVE",
"515 627 OFFCURVE",
"543 634 CURVE SMOOTH",
"566 640 LINE",
"566 661 LINE",
"418 661 LINE",
"418 640 LINE",
"435 636 LINE SMOOTH",
"465 629 OFFCURVE",
"459 605 OFFCURVE",
"442 577 CURVE SMOOTH",
"338 412 LINE",
"239 578 LINE SMOOTH",
"223 606 OFFCURVE",
"224 627 OFFCURVE",
"252 635 CURVE SMOOTH",
"272 640 LINE",
"272 661 LINE",
"9 661 LINE",
"9 640 LINE",
"26 634 LINE SMOOTH",
"52 625 OFFCURVE",
"60 614 OFFCURVE",
"76 587 CURVE SMOOTH",
"242 306 LINE",
"92 75 LINE SMOOTH",
"75 48 OFFCURVE",
"61 34 OFFCURVE",
"32 26 CURVE SMOOTH",
"14 21 LINE",
"14 0 LINE"
);
}
);
width = 619.26947;
}
);
unicode = 0058;
},
{
color = 4;
glyphname = Y;
lastChange = "2019-06-06 16:52:29 +0000";
layers = (
{
anchors = (
{
name = aboveUC;
position = "{335, 687}";
},
{
name = belowLC;
position = "{302, -22}";
}
);
layerId = "A9E1993B-555C-4280-8E93-805D459F1135";
paths = (
{
closed = 1;
nodes = (
"443 0 LINE",
"443 21 LINE",
"413 28 LINE SMOOTH",
"387 34 OFFCURVE",
"377 50 OFFCURVE",
"377 77 CURVE SMOOTH",
"377 138 OFFCURVE",
"377 203 OFFCURVE",
"377 295 CURVE",
"516 584 LINE SMOOTH",
"528 610 OFFCURVE",
"535 626 OFFCURVE",
"562 634 CURVE SMOOTH",
"582 640 LINE",
"582 661 LINE",
"451 661 LINE",
"451 640 LINE",
"465 636 LINE SMOOTH",
"492 629 OFFCURVE",
"490 603 OFFCURVE",
"478 579 CURVE SMOOTH",
"355 320 LINE",
"241 572 LINE SMOOTH",
"226 604 OFFCURVE",
"227 624 OFFCURVE",
"256 634 CURVE SMOOTH",
"274 640 LINE",
"274 661 LINE",
"9 661 LINE",
"9 640 LINE",
"27 633 LINE SMOOTH",
"50 625 OFFCURVE",
"59 613 OFFCURVE",
"72 587 CURVE SMOOTH",
"233 258 LINE",
"233 186 OFFCURVE",
"233 127 OFFCURVE",
"233 77 CURVE SMOOTH",
"232 50 OFFCURVE",
"222 34 OFFCURVE",
"196 28 CURVE SMOOTH",
"167 21 LINE",
"167 0 LINE"
);
}
);
width = 589.18922;
}
);
leftKerningGroup = LAT_Y;
rightKerningGroup = LAT_Y;
unicode = 0059;
},
{
color = 4;
glyphname = Z;
lastChange = "2019-06-06 16:52:29 +0000";
layers = (
{
anchors = (
{
name = aboveUC;
position = "{291, 687}";
},
{
name = belowLC;
position = "{287, -22}";
}
);
layerId = "A9E1993B-555C-4280-8E93-805D459F1135";
paths = (
{
closed = 1;
nodes = (
"531 0 LINE",
"538 166 LINE",
"511 166 LINE",
"470 89 LINE SMOOTH",
"451 51 OFFCURVE",
"430 30 OFFCURVE",
"389 30 CURVE SMOOTH",
"176 30 LINE",
"525 641 LINE",
"525 661 LINE",
"38 661 LINE",
"31 495 LINE",
"58 495 LINE",
"100 574 LINE SMOOTH",
"119 610 OFFCURVE",
"141 631 OFFCURVE",
"183 631 CURVE SMOOTH",
"369 631 LINE",
"20 20 LINE",
"20 0 LINE"
);
}
);
width = 558.97152;
}
);
leftKerningGroup = LAT_Z;
rightKerningGroup = LAT_Z;
unicode = 005A;
},
{
color = 0;
export = 0;
glyphname = Hbar;
lastChange = "2019-06-06 16:52:29 +0000";
layers = (
{
layerId = "A9E1993B-555C-4280-8E93-805D459F1135";
paths = (
{
closed = 1;
nodes = (
"595 597 LINE",
"735 612 LINE",
"735 661 LINE",
"430 661 LINE",
"430 612 LINE",
"570 597 LINE"
);
},
{
closed = 1;
nodes = (
"430 49 LINE",
"430 0 LINE",
"735 0 LINE",
"735 49 LINE",
"595 64 LINE",
"570 64 LINE"
);
},
{
closed = 1;
nodes = (
"509 205 OFFCURVE",
"509 101 OFFCURVE",
"506 0 CURVE",
"655.991 0 LINE",
"652.991 103 OFFCURVE",
"652.991 207 OFFCURVE",
"652.991 310 CURVE SMOOTH",
"653 351 LINE SMOOTH",
"653 456 OFFCURVE",
"653 560 OFFCURVE",
"656 661 CURVE",
"506 661 LINE",
"509 558 OFFCURVE",
"509 454 OFFCURVE",
"509 356 CURVE SMOOTH",
"509 321 LINE SMOOTH"
);
},
{
closed = 1;
nodes = (
"118 205 OFFCURVE",
"118 101 OFFCURVE",
"115 0 CURVE",
"265 0 LINE",
"262 103 OFFCURVE",
"262 207 OFFCURVE",
"262 321 CURVE SMOOTH",
"262 356 LINE SMOOTH",
"262 456 OFFCURVE",
"262 560 OFFCURVE",
"265 661 CURVE",
"115 661 LINE",
"118 558 OFFCURVE",
"118 454 OFFCURVE",
"118 351 CURVE SMOOTH",
"118 310 LINE SMOOTH"
);
},
{
closed = 1;
nodes = (
"200 597 LINE",
"341 612 LINE",
"341 661 LINE",
"37 661 LINE",
"37 612 LINE",
"174 597 LINE"
);
},
{
closed = 1;
nodes = (
"37 49 LINE",
"37 0 LINE",
"341 0 LINE",
"341 49 LINE",
"200 64 LINE",
"174 64 LINE"
);
},
{
closed = 1;
nodes = (
"581 342 LINE",
"190 342 LINE",
"190 287 LINE",
"581 287 LINE"
);
},
{
closed = 1;
nodes = (
"747 450 LINE",
"747 504 LINE",
"24 504 LINE",
"24 450 LINE"
);
}
);
width = 771.06013;
}
);
leftKerningGroup = LAT_E;
rightKerningGroup = LAT_H;
unicode = 0126;
},
{
color = 0;
export = 0;
glyphname = Germandbls;
lastChange = "2019-06-06 16:52:29 +0000";
layers = (
{
layerId = "A9E1993B-555C-4280-8E93-805D459F1135";
paths = (
{
closed = 1;
nodes = (
"195.997 0 LINE",
"196 62 LINE",
"177 62 LINE",
"37 47 LINE",
"37 0 LINE"
);
},
{
closed = 1;
nodes = (
"266 0 LINE",
"263 102 OFFCURVE",
"263 206 OFFCURVE",
"263 296 CURVE SMOOTH",
"263 426 LINE SMOOTH",
"263 569 OFFCURVE",
"303 622 OFFCURVE",
"430 622 CURVE SMOOTH",
"490 622 OFFCURVE",
"530 614 OFFCURVE",
"585 599 CURVE",
"585 625 LINE",
"469 595 OFFCURVE",
"397 517 OFFCURVE",
"397 427 CURVE SMOOTH",
"397 360 OFFCURVE",
"425 318 OFFCURVE",
"481 266 CURVE SMOOTH",
"511 240 LINE SMOOTH",
"553 201 OFFCURVE",
"570 172 OFFCURVE",
"570 131 CURVE SMOOTH",
"570 77 OFFCURVE",
"537 37 OFFCURVE",
"483 37 CURVE SMOOTH",
"460 37 OFFCURVE",
"440 43 OFFCURVE",
"408 62 CURVE",
"457 8 LINE",
"427 172 LINE",
"355 172 LINE",
"350 30 LINE",
"388 -2 OFFCURVE",
"445 -17 OFFCURVE",
"499 -17 CURVE SMOOTH",
"636 -17 OFFCURVE",
"702 78 OFFCURVE",
"702 166 CURVE SMOOTH",
"702 234 OFFCURVE",
"672 286 OFFCURVE",
"607 343 CURVE SMOOTH",
"578 367 LINE SMOOTH",
"545 395 OFFCURVE",
"526 422 OFFCURVE",
"526 475 CURVE SMOOTH",
"526 533 OFFCURVE",
"553 572 OFFCURVE",
"608 598 CURVE",
"608 631 LINE",
"555 661 OFFCURVE",
"485 679 OFFCURVE",
"415 679 CURVE SMOOTH",
"207 679 OFFCURVE",
"119 601 OFFCURVE",
"119 409 CURVE SMOOTH",
"119 315 LINE SMOOTH",
"119 211 OFFCURVE",
"119 102 OFFCURVE",
"116 0 CURVE"
);
}
);
width = 723.38449;
}
);
unicode = 1E9E;
},
{
color = 0;
export = 0;
glyphname = Schwa;
lastChange = "2019-06-06 16:52:29 +0000";
layers = (
{
anchors = (
{
name = aboveUC;
position = "{329, 687}";
},
{
name = belowLC;
position = "{334, -22}";
}
);
layerId = "A9E1993B-555C-4280-8E93-805D459F1135";
paths = (
{
closed = 1;
nodes = (
"38 101 OFFCURVE",
"142 -17 OFFCURVE",
"329 -17 CURVE SMOOTH",
"486 -17 OFFCURVE",
"623 106 OFFCURVE",
"623 334 CURVE SMOOTH",
"623 552 OFFCURVE",
"491 679 OFFCURVE",
"312 679 CURVE SMOOTH",
"218 679 OFFCURVE",
"136 640 OFFCURVE",
"83 573 CURVE",
"113 537 LINE",
"157 583 OFFCURVE",
"218 611 OFFCURVE",
"287 611 CURVE SMOOTH",
"399 611 OFFCURVE",
"471 520 OFFCURVE",
"471 325 CURVE SMOOTH",
"471 128 OFFCURVE",
"419 37 OFFCURVE",
"332 37 CURVE SMOOTH",
"249 37 OFFCURVE",
"188 109 OFFCURVE",
"188 229 CURVE SMOOTH",
"188 261 OFFCURVE",
"189 285 OFFCURVE",
"193 311 CURVE",
"542 311 LINE",
"542 365 LINE",
"45 365 LINE",
"40 342 OFFCURVE",
"38 310 OFFCURVE",
"38 277 CURVE SMOOTH"
);
}
);
width = 661.48576;
}
);
leftKerningGroup = LAT_O;
rightKerningGroup = LAT_O;
unicode = 018F;
},
{
color = 0;
export = 0;
glyphname = Uhorn;
lastChange = "2019-06-06 16:52:29 +0000";
layers = (
{
anchors = (
{
name = aboveUC;
position = "{390, 687}";
},
{
name = belowLC;
position = "{379, -22}";
}
);
layerId = "A9E1993B-555C-4280-8E93-805D459F1135";
paths = (
{
closed = 1;
nodes = (
"254 358 LINE SMOOTH",
"254 460 OFFCURVE",
"254 562 OFFCURVE",
"257 661 CURVE",
"107 661 LINE",
"110 560 OFFCURVE",
"110 458 OFFCURVE",
"110 358 CURVE SMOOTH",
"110 250 LINE SMOOTH",
"110 58 OFFCURVE",
"215 -17 OFFCURVE",
"362 -17 CURVE SMOOTH",
"517 -17 OFFCURVE",
"617 68 OFFCURVE",
"617 280 CURVE SMOOTH",
"617 661 LINE",
"556 661 LINE",
"556 288 LINE SMOOTH",
"556 128 OFFCURVE",
"501 67 OFFCURVE",
"404 67 CURVE SMOOTH",
"307 67 OFFCURVE",
"254 121 OFFCURVE",
"254 281 CURVE SMOOTH"
);
},
{
closed = 1;
nodes = (
"201 597 LINE",
"344 612 LINE",
"344 661 LINE",
"33 661 LINE",
"33 612 LINE",
"175 597 LINE"
);
},
{
closed = 1;
nodes = (
"596 661 LINE",
"462 661 LINE",
"462 612 LINE",
"569 601 LINE",
"596 601 LINE"
);
},
{
closed = 1;
nodes = (
"690 606 OFFCURVE",
"755 648 OFFCURVE",
"755 745 CURVE SMOOTH",
"755 764 OFFCURVE",
"752 780 OFFCURVE",
"743 799 CURVE",
"729 811 OFFCURVE",
"715 814 OFFCURVE",
"700 814 CURVE SMOOTH",
"670 814 OFFCURVE",
"649 791 OFFCURVE",
"649 768 CURVE SMOOTH",
"649 733 OFFCURVE",
"680 715 OFFCURVE",
"680 691 CURVE SMOOTH",
"680 670 OFFCURVE",
"653 661 OFFCURVE",
"585 661 CURVE",
"585 602 LINE"
);
}
);
width = 729.49209;
}
);
leftKerningGroup = LAT_U;
rightKerningGroup = LAT_U;
unicode = 01AF;
},
{
color = 8;
export = 0;
glyphname = K.001;
lastChange = "2019-06-06 16:52:29 +0000";
layers = (
{
anchors = (
{
name = aboveUC;
position = "{332, 687}";
},
{
name = belowLC;
position = "{340, -22}";
}
);
layerId = "A9E1993B-555C-4280-8E93-805D459F1135";
paths = (
{
closed = 1;
nodes = (
"279 0 LINE",
"279 21 LINE",
"261 27 LINE SMOOTH",
"235 35 OFFCURVE",
"228 49 OFFCURVE",
"228 76 CURVE SMOOTH",
"227 136 OFFCURVE",
"227 195 OFFCURVE",
"227 250 CURVE",
"293 330 LINE",
"421 78 LINE SMOOTH",
"435 51 OFFCURVE",
"432 31 OFFCURVE",
"405 24 CURVE SMOOTH",
"391 21 LINE",
"391 0 LINE",
"648 0 LINE",
"648 21 LINE",
"634 24 LINE SMOOTH",
"601 34 OFFCURVE",
"590 48 OFFCURVE",
"573 80 CURVE SMOOTH",
"382 436 LINE",
"508 587 LINE SMOOTH",
"530 613 OFFCURVE",
"540 624 OFFCURVE",
"572 633 CURVE SMOOTH",
"599 640 LINE",
"599 661 LINE",
"443 661 LINE",
"443 640 LINE",
"459 635 LINE SMOOTH",
"487 626 OFFCURVE",
"482 606 OFFCURVE",
"462 582 CURVE SMOOTH",
"227 297 LINE",
"227 351 LINE SMOOTH",
"227 429 OFFCURVE",
"227 507 OFFCURVE",
"228 583 CURVE SMOOTH",
"228 611 OFFCURVE",
"234 626 OFFCURVE",
"258 633 CURVE SMOOTH",
"279 640 LINE",
"279 661 LINE",
"37 661 LINE",
"37 640 LINE",
"57 633 LINE SMOOTH",
"83 625 OFFCURVE",
"89 611 OFFCURVE",
"89 583 CURVE SMOOTH",
"90 506 OFFCURVE",
"90 428 OFFCURVE",
"90 351 CURVE SMOOTH",
"90 310 LINE SMOOTH",
"90 231 OFFCURVE",
"90 154 OFFCURVE",
"89 77 CURVE SMOOTH",
"89 50 OFFCURVE",
"84 35 OFFCURVE",
"57 27 CURVE SMOOTH",
"37 21 LINE",
"37 0 LINE"
);
}
);
width = 634.67025;
}
);
leftKerningGroup = LAT_E;
leftMetricsKey = H;
rightKerningGroup = LAT_K;
},
{
color = 8;
export = 0;
glyphname = Q.001;
lastChange = "2019-06-06 16:52:29 +0000";
layers = (
{
anchors = (
{
name = aboveUC;
position = "{352, 687}";
}
);
components = (
{
alignment = -1;
name = O;
}
);
layerId = "A9E1993B-555C-4280-8E93-805D459F1135";
paths = (
{
closed = 1;
nodes = (
"615 -189 OFFCURVE",
"660 -169 OFFCURVE",
"692 -147 CURVE",
"680 -121 LINE",
"652 -135 OFFCURVE",
"625 -143 OFFCURVE",
"593 -143 CURVE SMOOTH",
"510 -143 OFFCURVE",
"444 -101 OFFCURVE",
"425 15 CURVE",
"347 1 LINE",
"282 20 LINE",
"304 -99 OFFCURVE",
"393 -189 OFFCURVE",
"554 -189 CURVE SMOOTH"
);
}
);
width = 703.51108;
}
);
leftKerningGroup = LAT_O;
leftMetricsKey = O;
widthMetricsKey = O;
rightKerningGroup = LAT_O;
},
{
color = 8;
export = 0;
glyphname = W.002;
lastChange = "2019-06-06 16:52:29 +0000";
layers = (
{
anchors = (
{
name = aboveUC;
position = "{505, 687}";
},
{
name = belowLC;
position = "{475, -22}";
}
);
layerId = "A9E1993B-555C-4280-8E93-805D459F1135";
paths = (
{
closed = 1;
nodes = (
"306 -4 LINE",
"457 496 LINE",
"615 -4 LINE",
"684 -4 LINE",
"851 576 LINE SMOOTH",
"859 605 OFFCURVE",
"866 623 OFFCURVE",
"894 632 CURVE SMOOTH",
"919 640 LINE",
"919 661 LINE",
"770 661 LINE",
"770 640 LINE",
"790 634 LINE SMOOTH",
"821 625 OFFCURVE",
"822 601 OFFCURVE",
"814 570 CURVE SMOOTH",
"696 161 LINE",
"571 576 LINE SMOOTH",
"563 604 OFFCURVE",
"566 622 OFFCURVE",
"594 630 CURVE SMOOTH",
"626 640 LINE",
"626 661 LINE",
"394 661 LINE",
"394 640 LINE",
"418 633 LINE SMOOTH",
"446 625 OFFCURVE",
"454 605 OFFCURVE",
"445 576 CURVE SMOOTH",
"320 170 LINE",
"214 577 LINE SMOOTH",
"206 607 OFFCURVE",
"213 627 OFFCURVE",
"244 635 CURVE SMOOTH",
"265 640 LINE",
"265 661 LINE",
"5 661 LINE",
"5 640 LINE",
"17 637 LINE SMOOTH",
"45 629 OFFCURVE",
"55 615 OFFCURVE",
"63 585 CURVE SMOOTH",
"237 -4 LINE"
);
}
);
width = 924.24505;
}
);
leftKerningGroup = LAT_W;
rightKerningGroup = LAT_W;
},
{
color = 4;
glyphname = a;
lastChange = "2019-06-06 16:52:29 +0000";
layers = (
{
anchors = (
{
name = aboveLC;
position = "{252, 513}";
},
{
name = belowLC;
position = "{249, -22}";
},
{
name = ogonek;
position = "{462, 4}";
}
);
layerId = "A9E1993B-555C-4280-8E93-805D459F1135";
paths = (
{
closed = 1;
nodes = (
"232 -14 OFFCURVE",
"267 17 OFFCURVE",
"310 62 CURVE",
"321 16 OFFCURVE",
"354 -13 OFFCURVE",
"412 -13 CURVE SMOOTH",
"463 -13 OFFCURVE",
"488 4 OFFCURVE",
"512 35 CURVE",
"502 46 LINE",
"479 46 LINE",
"451 46 OFFCURVE",
"438 61 OFFCURVE",
"438 89 CURVE SMOOTH",
"438 312 LINE SMOOTH",
"438 441 OFFCURVE",
"373 495 OFFCURVE",
"255 495 CURVE SMOOTH",
"146 495 OFFCURVE",
"52 452 OFFCURVE",
"52 370 CURVE SMOOTH",
"52 336 OFFCURVE",
"76 314 OFFCURVE",
"110 314 CURVE SMOOTH",
"146 314 OFFCURVE",
"172 337 OFFCURVE",
"176 391 CURVE SMOOTH",
"179 404 LINE SMOOTH",
"184 448 OFFCURVE",
"202 466 OFFCURVE",
"233 466 CURVE SMOOTH",
"234 466 OFFCURVE",
"235 466 OFFCURVE",
"236 466 CURVE SMOOTH",
"285 466 OFFCURVE",
"307 437 OFFCURVE",
"307 346 CURVE SMOOTH",
"307 275 LINE",
"277 270 OFFCURVE",
"246 265 OFFCURVE",
"223 260 CURVE SMOOTH",
"89 234 OFFCURVE",
"30 176 OFFCURVE",
"30 112 CURVE SMOOTH",
"30 30 OFFCURVE",
"90 -14 OFFCURVE",
"166 -14 CURVE SMOOTH"
);
},
{
closed = 1;
nodes = (
"185 50 OFFCURVE",
"158 76 OFFCURVE",
"158 129 CURVE SMOOTH",
"158 190 OFFCURVE",
"197 225 OFFCURVE",
"254 239 CURVE SMOOTH",
"273 243 OFFCURVE",
"289 246 OFFCURVE",
"307 249 CURVE",
"307 89 LINE",
"271 61 OFFCURVE",
"250 50 OFFCURVE",
"224 50 CURVE SMOOTH"
);
}
);
width = 513.91788;
}
);
leftKerningGroup = LAT_a;
leftMetricsKey = a;
rightKerningGroup = LAT_a;
rightMetricsKey = a;
unicode = 0061;
},
{
color = 4;
glyphname = ae;
lastChange = "2019-06-06 16:52:29 +0000";
layers = (
{
anchors = (
{
name = aboveLC;
position = "{397, 513}";
}
);
layerId = "A9E1993B-555C-4280-8E93-805D459F1135";
paths = (
{
closed = 1;
nodes = (
"231 -14 OFFCURVE",
"277 17 OFFCURVE",
"344 86 CURVE",
"385 21 OFFCURVE",
"455 -14 OFFCURVE",
"543 -14 CURVE SMOOTH",
"638 -14 OFFCURVE",
"706 29 OFFCURVE",
"747 102 CURVE",
"731 116 LINE",
"696 76 OFFCURVE",
"659 53 OFFCURVE",
"598 53 CURVE SMOOTH",
"502 53 OFFCURVE",
"447 113 OFFCURVE",
"445 247 CURVE",
"745 247 LINE",
"749 260 OFFCURVE",
"751 276 OFFCURVE",
"751 294 CURVE SMOOTH",
"751 411 OFFCURVE",
"674 495 OFFCURVE",
"548 495 CURVE SMOOTH",
"492 495 OFFCURVE",
"439 475 OFFCURVE",
"396 435 CURVE",
"368 477 OFFCURVE",
"321 495 OFFCURVE",
"255 495 CURVE SMOOTH",
"146 495 OFFCURVE",
"52 452 OFFCURVE",
"52 370 CURVE SMOOTH",
"52 336 OFFCURVE",
"76 314 OFFCURVE",
"110 314 CURVE SMOOTH",
"146 314 OFFCURVE",
"172 337 OFFCURVE",
"176 390 CURVE SMOOTH",
"180 412 LINE SMOOTH",
"184 446 OFFCURVE",
"199 465 OFFCURVE",
"233 466 CURVE SMOOTH",
"234 466 OFFCURVE",
"235 466 OFFCURVE",
"236 466 CURVE SMOOTH",
"281 466 OFFCURVE",
"306 438 OFFCURVE",
"306 342 CURVE SMOOTH",
"306 280 LINE",
"276 274 OFFCURVE",
"245 268 OFFCURVE",
"222 263 CURVE SMOOTH",
"84 232 OFFCURVE",
"30 176 OFFCURVE",
"30 113 CURVE SMOOTH",
"30 30 OFFCURVE",
"89 -14 OFFCURVE",
"166 -14 CURVE SMOOTH"
);
},
{
closed = 1;
nodes = (
"188 50 OFFCURVE",
"158 75 OFFCURVE",
"158 130 CURVE SMOOTH",
"158 188 OFFCURVE",
"194 223 OFFCURVE",
"254 242 CURVE SMOOTH",
"272 246 OFFCURVE",
"288 250 OFFCURVE",
"305 253 CURVE",
"305 248 OFFCURVE",
"305 243 OFFCURVE",
"305 238 CURVE SMOOTH",
"305 189 OFFCURVE",
"314 145 OFFCURVE",
"332 109 CURVE",
"283 60 OFFCURVE",
"254 50 OFFCURVE",
"225 50 CURVE SMOOTH"
);
},
{
closed = 1;
nodes = (
"450 425 OFFCURVE",
"493 467 OFFCURVE",
"543 467 CURVE SMOOTH",
"612 467 OFFCURVE",
"637 389 OFFCURVE",
"623 275 CURVE",
"445 275 LINE"
);
}
);
width = 780.78003;
}
);
leftKerningGroup = LAT_a;
leftMetricsKey = a;
rightKerningGroup = LAT_e;
rightMetricsKey = e;
unicode = 00E6;
},
{
color = 4;
glyphname = b;
lastChange = "2019-06-06 16:52:29 +0000";
layers = (
{
anchors = (
{
name = aboveLC;
position = "{128, 703}";
},
{
name = belowLC;
position = "{292, -22}";
}
);
layerId = "A9E1993B-555C-4280-8E93-805D459F1135";
paths = (
{
closed = 1;
nodes = (
"202 27 LINE",
"241 -1 OFFCURVE",
"293 -14 OFFCURVE",
"344 -14 CURVE SMOOTH",
"458 -14 OFFCURVE",
"551 74 OFFCURVE",
"551 244 CURVE SMOOTH",
"551 415 OFFCURVE",
"469 495 OFFCURVE",
"357 495 CURVE SMOOTH",
"304 495 OFFCURVE",
"250 478 OFFCURVE",
"204 447 CURVE",
"204 552 LINE",
"208 693 LINE",
"195 702 LINE",
"24 659 LINE",
"24 641 LINE",
"37 638 LINE SMOOTH",
"64 631 OFFCURVE",
"72 618 OFFCURVE",
"72 591 CURVE SMOOTH",
"72 210 LINE SMOOTH",
"72 177 OFFCURVE",
"72 119 OFFCURVE",
"72 71 CURVE SMOOTH",
"72 44 OFFCURVE",
"59 27 OFFCURVE",
"33 21 CURVE SMOOTH",
"23 19 LINE",
"23 0 LINE",
"187 -13 LINE"
);
},
{
closed = 1;
nodes = (
"262 30 OFFCURVE",
"235 38 OFFCURVE",
"207 55 CURVE",
"207 420 LINE",
"238 437 OFFCURVE",
"269 446 OFFCURVE",
"299 446 CURVE SMOOTH",
"367 446 OFFCURVE",
"408 400 OFFCURVE",
"408 240 CURVE SMOOTH",
"408 79 OFFCURVE",
"362 30 OFFCURVE",
"297 30 CURVE SMOOTH"
);
}
);
width = 576.21213;
}
);
leftKerningGroup = LAT_h;
rightKerningGroup = LAT_b;
rightMetricsKey = o;
unicode = 0062;
},
{
color = 4;
glyphname = c;
lastChange = "2019-06-06 16:52:29 +0000";
layers = (
{
anchors = (
{
name = aboveLC;
position = "{275, 513}";
},
{
name = baseLC;
position = "{273, 0}";
},
{
name = belowLC;
position = "{273, -22}";
}
);
layerId = "A9E1993B-555C-4280-8E93-805D459F1135";
paths = (
{
closed = 1;
nodes = (
"360 -14 OFFCURVE",
"431 29 OFFCURVE",
"465 109 CURVE",
"449 121 LINE",
"415 77 OFFCURVE",
"379 53 OFFCURVE",
"318 53 CURVE SMOOTH",
"214 53 OFFCURVE",
"166 124 OFFCURVE",
"166 254 CURVE SMOOTH",
"166 404 OFFCURVE",
"212 468 OFFCURVE",
"296 468 CURVE SMOOTH",
"318 468 OFFCURVE",
"331 462 OFFCURVE",
"336 439 CURVE SMOOTH",
"338 421 OFFCURVE",
"334 404 OFFCURVE",
"336 378 CURVE SMOOTH",
"340 337 OFFCURVE",
"364 307 OFFCURVE",
"402 307 CURVE SMOOTH",
"436 307 OFFCURVE",
"461 328 OFFCURVE",
"461 365 CURVE SMOOTH",
"461 431 OFFCURVE",
"396 495 OFFCURVE",
"282 495 CURVE SMOOTH",
"142 495 OFFCURVE",
"25 400 OFFCURVE",
"25 239 CURVE SMOOTH",
"25 76 OFFCURVE",
"129 -14 OFFCURVE",
"266 -14 CURVE SMOOTH"
);
}
);
width = 490.91772;
}
);
leftKerningGroup = LAT_o;
leftMetricsKey = o;
rightKerningGroup = LAT_c;
unicode = 0063;
},
{
color = 4;
glyphname = d;
lastChange = "2019-06-06 16:52:29 +0000";
layers = (
{
anchors = (
{
name = aboveLC;
position = "{411, 707}";
},
{
name = belowLC;
position = "{298, -22}";
}
);
layerId = "A9E1993B-555C-4280-8E93-805D459F1135";
paths = (
{
closed = 1;
nodes = (
"287 -14 OFFCURVE",
"334 3 OFFCURVE",
"370 31 CURVE",
"379.006 -10.997 LINE",
"545 0 LINE",
"545 19 LINE",
"534 22 LINE SMOOTH",
"510 29 OFFCURVE",
"502 45 OFFCURVE",
"502 71 CURVE SMOOTH",
"502 552 LINE",
"506 693 LINE",
"493 702 LINE",
"319 659 LINE",
"319 640 LINE",
"339 636 LINE SMOOTH",
"366 629 OFFCURVE",
"372 619 OFFCURVE",
"372 591 CURVE SMOOTH",
"372 461 LINE",
"338 484 OFFCURVE",
"293 495 OFFCURVE",
"245 495 CURVE SMOOTH",
"125 495 OFFCURVE",
"25 408 OFFCURVE",
"25 236 CURVE SMOOTH",
"25 64 OFFCURVE",
"112 -14 OFFCURVE",
"231 -14 CURVE SMOOTH"
);
},
{
closed = 1;
nodes = (
"216 32 OFFCURVE",
"168 86 OFFCURVE",
"168 238 CURVE SMOOTH",
"168 390 OFFCURVE",
"221 455 OFFCURVE",
"287 455 CURVE SMOOTH",
"315 455 OFFCURVE",
"341 448 OFFCURVE",
"367 432 CURVE",
"367 60 LINE",
"341 41 OFFCURVE",
"316 32 OFFCURVE",
"286 32 CURVE SMOOTH"
);
}
);
width = 568.86392;
}
);
leftKerningGroup = LAT_o;
leftMetricsKey = o;
rightKerningGroup = LAT_l;
rightMetricsKey = l;
unicode = 0064;
},
{
color = 4;
glyphname = eth;
lastChange = "2019-06-06 16:52:29 +0000";
layers = (
{
layerId = "A9E1993B-555C-4280-8E93-805D459F1135";
paths = (
{
closed = 1;
nodes = (
"406 -14 OFFCURVE",
"514 83 OFFCURVE",
"514 279 CURVE SMOOTH",
"514 503 OFFCURVE",
"363 667 OFFCURVE",
"152 741 CURVE",
"139 715 LINE",
"284 635 OFFCURVE",
"342 555 OFFCURVE",
"375 378 CURVE",
"408 389 LINE",
"384 445 OFFCURVE",
"333 480 OFFCURVE",
"269 480 CURVE SMOOTH",
"149 480 OFFCURVE",
"34 393 OFFCURVE",
"34 237 CURVE SMOOTH",
"34 71 OFFCURVE",
"151 -14 OFFCURVE",
"266 -14 CURVE SMOOTH"
);
},
{
closed = 1;
nodes = (
"212 14 OFFCURVE",
"179 90 OFFCURVE",
"179 232 CURVE SMOOTH",
"179 377 OFFCURVE",
"212 452 OFFCURVE",
"276 452 CURVE SMOOTH",
"340 452 OFFCURVE",
"377 379 OFFCURVE",
"377 241 CURVE SMOOTH",
"377 92 OFFCURVE",
"346 14 OFFCURVE",
"276 14 CURVE SMOOTH"
);
},
{
closed = 1;
nodes = (
"488 692 LINE",
"473 721 LINE",
"120 550 LINE",
"134 521 LINE"
);
}
);
width = 551.47943;
}
);
leftKerningGroup = LAT_o;
unicode = 00F0;
},
{
color = 4;
glyphname = dcaron;
lastChange = "2019-06-06 16:52:29 +0000";
layers = (
{
components = (
{
alignment = -1;
name = d;
}
);
layerId = "A9E1993B-555C-4280-8E93-805D459F1135";
paths = (
{
closed = 1;
nodes = (
"637 552 OFFCURVE",
"677 604 OFFCURVE",
"679 676 CURVE SMOOTH",
"680 720 OFFCURVE",
"657 746 OFFCURVE",
"620 746 CURVE SMOOTH",
"587 746 OFFCURVE",
"564 722 OFFCURVE",
"564 689 CURVE SMOOTH",
"564 661 OFFCURVE",
"584 638 OFFCURVE",
"617 632 CURVE SMOOTH",
"643 628 LINE",
"637 660 LINE",
"629 598 OFFCURVE",
"604 561 OFFCURVE",
"561 526 CURVE",
"570 512 LINE"
);
}
);
width = 607.47627;
}
);
leftKerningGroup = LAT_o;
rightKerningGroup = LAT_dcaron;
unicode = 010F;
},
{
color = 4;
glyphname = dcroat;
lastChange = "2019-06-06 16:52:29 +0000";
layers = (
{
components = (
{
alignment = -1;
name = d;
}
);
layerId = "A9E1993B-555C-4280-8E93-805D459F1135";
paths = (
{
closed = 1;
nodes = (
"572 550 LINE",
"572 580 LINE",
"206 580 LINE",
"206 550 LINE"
);
}
);
width = 568.86392;
}
);
leftKerningGroup = LAT_o;
leftMetricsKey = d;
widthMetricsKey = d;
rightKerningGroup = LAT_l;
unicode = 0111;
},
{
color = 4;
glyphname = e;
lastChange = "2019-06-06 16:52:29 +0000";
layers = (
{
anchors = (
{
name = aboveLC;
position = "{271, 513}";
},
{
name = belowLC;
position = "{279, -22}";
},
{
name = ogonek;
position = "{345, 0}";
}
);
layerId = "A9E1993B-555C-4280-8E93-805D459F1135";
paths = (
{
closed = 1;
nodes = (
"146 495 OFFCURVE",
"25 401 OFFCURVE",
"25 238 CURVE SMOOTH",
"25 80 OFFCURVE",
"123 -14 OFFCURVE",
"265 -14 CURVE SMOOTH",
"360 -14 OFFCURVE",
"429 28 OFFCURVE",
"469 102 CURVE",
"453 117 LINE",
"418 77 OFFCURVE",
"381 54 OFFCURVE",
"315 54 CURVE SMOOTH",
"217 54 OFFCURVE",
"167 112 OFFCURVE",
"167 253 CURVE SMOOTH",
"167 421 OFFCURVE",
"205 466 OFFCURVE",
"266 466 CURVE SMOOTH",
"337 466 OFFCURVE",
"360 409 OFFCURVE",
"346 275 CURVE",
"83 275 LINE",
"83 247 LINE",
"468 247 LINE",
"472 260 OFFCURVE",
"473 276 OFFCURVE",
"473 293 CURVE SMOOTH",
"473 411 OFFCURVE",
"396 495 OFFCURVE",
"271 495 CURVE SMOOTH"
);
}
);
width = 503.42247;
}
);
leftKerningGroup = LAT_o;
leftMetricsKey = o;
rightKerningGroup = LAT_e;
unicode = 0065;
},
{
color = 4;
glyphname = f;
lastChange = "2019-06-06 16:52:29 +0000";
layers = (
{
anchors = (
{
name = aboveLC;
position = "{275, 745}";
},
{
name = belowLC;
position = "{147, -22}";
}
);
layerId = "A9E1993B-555C-4280-8E93-805D459F1135";
paths = (
{
closed = 1;
nodes = (
"280 0 LINE",
"280 19 LINE",
"254 26 LINE SMOOTH",
"227 32 OFFCURVE",
"214 47 OFFCURVE",
"214 75 CURVE",
"214 120 OFFCURVE",
"213 165 OFFCURVE",
"213 210 CURVE SMOOTH",
"213 449 LINE",
"328 449 LINE",
"328 480 LINE",
"213 480 LINE",
"214 543 OFFCURVE",
"220 602 OFFCURVE",
"231 645 CURVE SMOOTH",
"238 667 OFFCURVE",
"256 673 OFFCURVE",
"272 653 CURVE SMOOTH",
"284 639 LINE SMOOTH",
"308 602 OFFCURVE",
"333 585 OFFCURVE",
"365 585 CURVE SMOOTH",
"404 585 OFFCURVE",
"425 607 OFFCURVE",
"425 642 CURVE SMOOTH",
"425 691 OFFCURVE",
"373 710 OFFCURVE",
"321 710 CURVE SMOOTH",
"268 710 OFFCURVE",
"208.991 694.006 OFFCURVE",
"160 646 CURVE SMOOTH",
"125 612 OFFCURVE",
"100 575 OFFCURVE",
"86 522 CURVE SMOOTH",
"80 494 OFFCURVE",
"71 479 OFFCURVE",
"44 475 CURVE SMOOTH",
"22 471 LINE",
"22 449 LINE",
"79 449 LINE",
"79 210 LINE SMOOTH",
"79 164 OFFCURVE",
"78 118 OFFCURVE",
"78 72 CURVE",
"77 45 OFFCURVE",
"63 30 OFFCURVE",
"37 23 CURVE SMOOTH",
"22 19 LINE",
"22 0 LINE"
);
}
);
width = 341.45411;
}
);
leftKerningGroup = LAT_f;
rightKerningGroup = LAT_f;
unicode = 0066;
},
{
color = 4;
glyphname = g;
lastChange = "2019-06-06 16:52:29 +0000";
layers = (
{
anchors = (
{
name = aboveLC;
position = "{253, 513}";
},
{
name = belowLC;
position = "{253, -237}";
}
);
layerId = "A9E1993B-555C-4280-8E93-805D459F1135";
paths = (
{
closed = 1;
nodes = (
"410 -231 OFFCURVE",
"505 -146 OFFCURVE",
"505 -49 CURVE SMOOTH",
"505 41 OFFCURVE",
"434 68 OFFCURVE",
"332 88 CURVE SMOOTH",
"154 121 LINE SMOOTH",
"135 125 OFFCURVE",
"124 137 OFFCURVE",
"124 157 CURVE SMOOTH",
"124 200 LINE",
"114 207 LINE",
"73 156 LINE SMOOTH",
"56 134 OFFCURVE",
"42 114 OFFCURVE",
"42 89 CURVE SMOOTH",
"42 49 OFFCURVE",
"75 19 OFFCURVE",
"136 7 CURVE SMOOTH",
"315 -28 LINE SMOOTH",
"379 -40 OFFCURVE",
"404 -60 OFFCURVE",
"404 -97 CURVE SMOOTH",
"404 -157 OFFCURVE",
"351 -197 OFFCURVE",
"239 -197 CURVE SMOOTH",
"137 -197 OFFCURVE",
"93 -161 OFFCURVE",
"93 -87 CURVE SMOOTH",
"93 -51 OFFCURVE",
"112 -8 OFFCURVE",
"136 19 CURVE",
"123 27 LINE",
"61 -3 OFFCURVE",
"15 -62 OFFCURVE",
"15 -116 CURVE SMOOTH",
"15 -176 OFFCURVE",
"68 -231 OFFCURVE",
"227 -231 CURVE SMOOTH"
);
},
{
closed = 1;
nodes = (
"182 198 OFFCURVE",
"159 237 OFFCURVE",
"159 333 CURVE SMOOTH",
"159 429 OFFCURVE",
"185 468 OFFCURVE",
"238 468 CURVE SMOOTH",
"291 468 OFFCURVE",
"316 430 OFFCURVE",
"316 335 CURVE SMOOTH",
"316 239 OFFCURVE",
"291 198 OFFCURVE",
"235 198 CURVE SMOOTH"
);
},
{
closed = 1;
nodes = (
"366 171 OFFCURVE",
"437 237 OFFCURVE",
"437 332 CURVE SMOOTH",
"437 371 OFFCURVE",
"426 404 OFFCURVE",
"405 430 CURVE",
"513 430 LINE",
"513 486 LINE",
"499 496 LINE",
"467 471 OFFCURVE",
"429 457 OFFCURVE",
"387 450 CURVE",
"353 479 OFFCURVE",
"303 495 OFFCURVE",
"237 495 CURVE SMOOTH",
"108 495 OFFCURVE",
"37 429 OFFCURVE",
"37 332 CURVE SMOOTH",
"37 235 OFFCURVE",
"108 171 OFFCURVE",
"237 171 CURVE SMOOTH"
);
}
);
width = 527.4193;
}
);
leftKerningGroup = LAT_g;
rightKerningGroup = LAT_g;
unicode = 0067;
},
{
color = 4;
glyphname = gcommaaccent;
lastChange = "2019-06-06 16:52:29 +0000";
layers = (
{
components = (
{
alignment = -1;
name = g;
}
);
layerId = "A9E1993B-555C-4280-8E93-805D459F1135";
paths = (
{
closed = 1;
nodes = (
"288 569 OFFCURVE",
"318 594 OFFCURVE",
"318 628 CURVE SMOOTH",
"318 664 OFFCURVE",
"287 697 OFFCURVE",
"240 701 CURVE",
"235 652 LINE",
"254 715 OFFCURVE",
"283 735 OFFCURVE",
"336 758 CURVE",
"328 779 LINE",
"252 755 OFFCURVE",
"184 708 OFFCURVE",
"184 637 CURVE SMOOTH",
"184 597 OFFCURVE",
"209 569 OFFCURVE",
"252 569 CURVE SMOOTH"
);
}
);
width = 527.4193;
}
);
leftKerningGroup = LAT_g;
leftMetricsKey = g;
rightKerningGroup = LAT_g;
rightMetricsKey = g;
unicode = 0123;
},
{
color = 4;
glyphname = h;
lastChange = "2019-06-06 16:52:29 +0000";
layers = (
{
anchors = (
{
name = aboveLC;
position = "{131, 702}";
},
{
name = belowLC;
position = "{307, -22}";
}
);
layerId = "A9E1993B-555C-4280-8E93-805D459F1135";
paths = (
{
closed = 1;
nodes = (
"251 0 LINE",
"251 20 LINE",
"242 23 LINE",
"216 30 OFFCURVE",
"207 45 OFFCURVE",
"207 72 CURVE SMOOTH",
"207 118 OFFCURVE",
"207 172 OFFCURVE",
"207 210 CURVE SMOOTH",
"207 397 LINE",
"245 425 OFFCURVE",
"281 436 OFFCURVE",
"313 436 CURVE SMOOTH",
"360 436 OFFCURVE",
"376 418 OFFCURVE",
"376 363 CURVE SMOOTH",
"376 210 LINE SMOOTH",
"376 171 OFFCURVE",
"376 118 OFFCURVE",
"376 74 CURVE SMOOTH",
"376 47 OFFCURVE",
"366 31 OFFCURVE",
"340 24 CURVE SMOOTH",
"328 20 LINE",
"328 0 LINE",
"556 0 LINE",
"556 20 LINE",
"547 23 LINE SMOOTH",
"520 31 OFFCURVE",
"511 46 OFFCURVE",
"511 73 CURVE SMOOTH",
"511 118 OFFCURVE",
"511 171 OFFCURVE",
"511 210 CURVE SMOOTH",
"511 344 LINE SMOOTH",
"511 447 OFFCURVE",
"458 495 OFFCURVE",
"370 495 CURVE SMOOTH",
"306 495 OFFCURVE",
"250 463 OFFCURVE",
"204 424 CURVE",
"204 552 LINE",
"208 693 LINE",
"192 702 LINE",
"23 659 LINE",
"23 640 LINE",
"38 636 LINE SMOOTH",
"65 629 OFFCURVE",
"72 617 OFFCURVE",
"72 589 CURVE SMOOTH",
"72 210 LINE SMOOTH",
"72 173 OFFCURVE",
"72 119 OFFCURVE",
"72 74 CURVE SMOOTH",
"72 47 OFFCURVE",
"62 32 OFFCURVE",
"36 24 CURVE SMOOTH",
"23 20 LINE",
"23 0 LINE"
);
}
);
width = 575.47887;
}
);
leftKerningGroup = LAT_h;
leftMetricsKey = l;
rightKerningGroup = LAT_h;
rightMetricsKey = n;
unicode = 0068;
},
{
color = 4;
glyphname = i;
lastChange = "2019-06-06 16:52:29 +0000";
layers = (
{
anchors = (
{
name = aboveLC;
position = "{137, 717}";
},
{
name = belowLC;
position = "{142, -22}";
},
{
name = ogonek;
position = "{172, 0}";
}
);
layerId = "A9E1993B-555C-4280-8E93-805D459F1135";
paths = (
{
closed = 1;
nodes = (
"251 0 LINE",
"251 19 LINE",
"240 22 LINE SMOOTH",
"215 30 OFFCURVE",
"206 45 OFFCURVE",
"206 72 CURVE SMOOTH",
"206 117 OFFCURVE",
"206 172 OFFCURVE",
"206 210 CURVE SMOOTH",
"206 342 LINE",
"209 484 LINE",
"197 495 LINE",
"22 437 LINE",
"22 419 LINE",
"36 416 LINE SMOOTH",
"63 410 OFFCURVE",
"71 396 OFFCURVE",
"71 369 CURVE SMOOTH",
"72 331 OFFCURVE",
"72 298 OFFCURVE",
"72 257 CURVE SMOOTH",
"72 210 LINE SMOOTH",
"72 172 OFFCURVE",
"72 118 OFFCURVE",
"72 73 CURVE SMOOTH",
"71 46 OFFCURVE",
"63 31 OFFCURVE",
"37 23 CURVE SMOOTH",
"22 19 LINE",
"22 0 LINE"
);
},
{
closed = 1;
nodes = (
"181 550 OFFCURVE",
"216 581 OFFCURVE",
"216 624 CURVE SMOOTH",
"216 668 OFFCURVE",
"181 698 OFFCURVE",
"137 698 CURVE SMOOTH",
"93 698 OFFCURVE",
"58 668 OFFCURVE",
"58 624 CURVE SMOOTH",
"58 581 OFFCURVE",
"93 550 OFFCURVE",
"137 550 CURVE SMOOTH"
);
}
);
width = 274.21249;
}
);
leftKerningGroup = LAT_i;
rightKerningGroup = LAT_i;
unicode = 0069;
},
{
color = 4;
glyphname = idotless;
lastChange = "2019-06-06 16:52:29 +0000";
layers = (
{
anchors = (
{
name = aboveLC;
position = "{134, 513}";
},
{
name = belowLC;
position = "{138, -22}";
},
{
name = ogonek;
position = "{173, 0}";
}
);
layerId = "A9E1993B-555C-4280-8E93-805D459F1135";
paths = (
{
closed = 1;
nodes = (
"251 0 LINE",
"251 19 LINE",
"240 22 LINE SMOOTH",
"215 30 OFFCURVE",
"207 45 OFFCURVE",
"206 72 CURVE SMOOTH",
"206 117 OFFCURVE",
"206 172 OFFCURVE",
"206 210 CURVE SMOOTH",
"206 342 LINE",
"209 484 LINE",
"197 495 LINE",
"22 437 LINE",
"22 419 LINE",
"36 416 LINE SMOOTH",
"63 410 OFFCURVE",
"70 396 OFFCURVE",
"71 369 CURVE SMOOTH",
"71 331 OFFCURVE",
"72 298 OFFCURVE",
"72 257 CURVE SMOOTH",
"72 210 LINE SMOOTH",
"72 172 OFFCURVE",
"71 118 OFFCURVE",
"71 73 CURVE SMOOTH",
"71 46 OFFCURVE",
"63 31 OFFCURVE",
"37 23 CURVE SMOOTH",
"22 19 LINE",
"22 0 LINE"
);
}
);
width = 274.21249;
}
);
leftKerningGroup = LAT_m;
leftMetricsKey = i;
rightKerningGroup = LAT_i;
rightMetricsKey = i;
unicode = 0131;
},
{
color = 4;
glyphname = j;
lastChange = "2019-06-06 16:52:29 +0000";
layers = (
{
anchors = (
{
name = aboveLC;
position = "{144, 717}";
},
{
name = belowLC;
position = "{55, -250}";
}
);
layerId = "A9E1993B-555C-4280-8E93-805D459F1135";
paths = (
{
closed = 1;
nodes = (
"50 -241 OFFCURVE",
"104 -223 OFFCURVE",
"149 -177 CURVE SMOOTH",
"199 -125 OFFCURVE",
"212 -65 OFFCURVE",
"212 69 CURVE SMOOTH",
"212 342 LINE",
"215 484 LINE",
"201 495 LINE",
"23 437 LINE",
"23 419 LINE",
"38 416 LINE SMOOTH",
"65 412 OFFCURVE",
"78 398 OFFCURVE",
"79 369 CURVE SMOOTH",
"79 331 OFFCURVE",
"79 300 OFFCURVE",
"79 257 CURVE SMOOTH",
"79 71 LINE SMOOTH",
"79 -33 OFFCURVE",
"77 -95 OFFCURVE",
"75 -160 CURVE SMOOTH",
"73 -194 OFFCURVE",
"59 -198 OFFCURVE",
"48 -181 CURVE SMOOTH",
"40 -165 LINE SMOOTH",
"22 -130 OFFCURVE",
"-8 -113 OFFCURVE",
"-42 -113 CURVE SMOOTH",
"-77 -113 OFFCURVE",
"-106 -137 OFFCURVE",
"-106 -173 CURVE SMOOTH",
"-106 -213 OFFCURVE",
"-77 -241 OFFCURVE",
"-4 -241 CURVE SMOOTH"
);
},
{
closed = 1;
nodes = (
"189 550 OFFCURVE",
"224 581 OFFCURVE",
"224 624 CURVE SMOOTH",
"224 668 OFFCURVE",
"189 698 OFFCURVE",
"145 698 CURVE SMOOTH",
"101 698 OFFCURVE",
"66 668 OFFCURVE",
"66 624 CURVE SMOOTH",
"66 581 OFFCURVE",
"101 550 OFFCURVE",
"145 550 CURVE SMOOTH"
);
}
);
width = 274.85127;
}
);
leftKerningGroup = LAT_j;
rightKerningGroup = LAT_j;
unicode = 006A;
},
{
color = 4;
glyphname = k;
lastChange = "2019-10-15 13:49:01 +0000";
layers = (
{
anchors = (
{
name = aboveLC;
position = "{138, 702}";
},
{
name = belowLC;
position = "{303, -22}";
}
);
layerId = "A9E1993B-555C-4280-8E93-805D459F1135";
paths = (
{
closed = 1;
nodes = (
"255 0 LINE",
"255 19 LINE",
"241 23 LINE",
"217 30 OFFCURVE",
"207 46 OFFCURVE",
"207 73 CURVE",
"207 552 LINE",
"211 693 LINE",
"198 702 LINE",
"23 660 LINE",
"23 641 LINE",
"36 637 LINE SMOOTH",
"63 630 OFFCURVE",
"72 618 OFFCURVE",
"72 591 CURVE SMOOTH",
"72 210 LINE SMOOTH",
"72 164 OFFCURVE",
"72 118 OFFCURVE",
"72 73 CURVE SMOOTH",
"72 46 OFFCURVE",
"61 31 OFFCURVE",
"38 24 CURVE",
"23 19 LINE",
"23 0 LINE"
);
},
{
closed = 1;
nodes = (
"559 0 LINE",
"559 19 LINE",
"549 22 LINE",
"520 32 OFFCURVE",
"506 46 OFFCURVE",
"485 74 CURVE SMOOTH",
"311 312 LINE",
"208 250 LINE",
"389 0 LINE"
);
},
{
closed = 1;
nodes = (
"425 410 LINE SMOOTH",
"450 433 OFFCURVE",
"464 446 OFFCURVE",
"494 454 CURVE SMOOTH",
"523 461 LINE",
"523 480 LINE",
"367 480 LINE",
"367 461 LINE",
"383 457 LINE SMOOTH",
"408 450 OFFCURVE",
"402 429 OFFCURVE",
"385 414 CURVE SMOOTH",
"208 250 LINE",
"233 231 LINE"
);
}
);
width = 571.86097;
}
);
leftKerningGroup = LAT_h;
leftMetricsKey = l;
rightKerningGroup = LAT_k;
unicode = 006B;
},
{
color = 4;
glyphname = l;
lastChange = "2019-06-06 16:52:29 +0000";
layers = (
{
anchors = (
{
name = aboveLC;
position = "{133, 702}";
},
{
name = belowLC;
position = "{144, -22}";
}
);
layerId = "A9E1993B-555C-4280-8E93-805D459F1135";
paths = (
{
closed = 1;
nodes = (
"256 0 LINE",
"256 19 LINE",
"242 23 LINE SMOOTH",
"216 30 OFFCURVE",
"208 46 OFFCURVE",
"207 73 CURVE SMOOTH",
"207 118 OFFCURVE",
"207 164 OFFCURVE",
"207 210 CURVE SMOOTH",
"207 552 LINE",
"211 693 LINE",
"198 702 LINE",
"23 660 LINE",
"23 641 LINE",
"38 637 LINE SMOOTH",
"64 630 OFFCURVE",
"72 618 OFFCURVE",
"72 590 CURVE SMOOTH",
"72 210 LINE SMOOTH",
"72 164 OFFCURVE",
"71 118 OFFCURVE",
"71 73 CURVE SMOOTH",
"71 46 OFFCURVE",
"62 31 OFFCURVE",
"38 23 CURVE SMOOTH",
"23 19 LINE",
"23 0 LINE"
);
}
);
width = 280.35285;
}
);
leftKerningGroup = LAT_h;
rightKerningGroup = LAT_l;
unicode = 006C;
},
{
color = 4;
glyphname = lcaron;
lastChange = "2019-06-06 16:52:29 +0000";
layers = (
{
components = (
{
alignment = -1;
name = l;
}
);
layerId = "A9E1993B-555C-4280-8E93-805D459F1135";
paths = (
{
closed = 1;
nodes = (
"337 552 OFFCURVE",
"377 604 OFFCURVE",
"379 676 CURVE SMOOTH",
"380 720 OFFCURVE",
"357 746 OFFCURVE",
"320 746 CURVE SMOOTH",
"287 746 OFFCURVE",
"264 722 OFFCURVE",
"264 689 CURVE SMOOTH",
"264 661 OFFCURVE",
"284 638 OFFCURVE",
"317 632 CURVE SMOOTH",
"343 628 LINE",
"337 660 LINE",
"328 601 OFFCURVE",
"298 563 OFFCURVE",
"257 532 CURVE",
"270 512 LINE"
);
}
);
width = 327.47943;
}
);
leftKerningGroup = LAT_h;
rightKerningGroup = LAT_dcaron;
unicode = 013E;
},
{
color = 4;
glyphname = lslash;
lastChange = "2019-06-06 16:52:29 +0000";
layers = (
{
components = (
{
alignment = -1;
name = l;
}
);
layerId = "A9E1993B-555C-4280-8E93-805D459F1135";
paths = (
{
closed = 1;
nodes = (
"117 334 LINE",
"117 327 LINE",
"279 416 LINE",
"279 458 LINE",
"160 393 LINE",
"160 401 LINE",
"2 314 LINE",
"2 272 LINE"
);
}
);
width = 280.35285;
}
);
leftKerningGroup = LAT_h;
rightKerningGroup = LAT_l;
unicode = 0142;
},
{
color = 4;
glyphname = m;
lastChange = "2019-06-06 16:52:29 +0000";
layers = (
{
anchors = (
{
name = aboveLC;
position = "{433, 513}";
},
{
name = belowLC;
position = "{437, -22}";
}
);
layerId = "A9E1993B-555C-4280-8E93-805D459F1135";
paths = (
{
closed = 1;
nodes = (
"250 0 LINE",
"250 20 LINE",
"233 25 LINE SMOOTH",
"213 30 OFFCURVE",
"205 42 OFFCURVE",
"205 65 CURVE",
"205 112 OFFCURVE",
"205 170 OFFCURVE",
"205 210 CURVE SMOOTH",
"205 389 LINE",
"240 418 OFFCURVE",
"272 433 OFFCURVE",
"304 433 CURVE SMOOTH",
"352 433 OFFCURVE",
"370 412 OFFCURVE",
"370 358 CURVE SMOOTH",
"370 210 LINE SMOOTH",
"370 169 OFFCURVE",
"370 113 OFFCURVE",
"370 66 CURVE",
"370 44 OFFCURVE",
"364 32 OFFCURVE",
"343 26 CURVE SMOOTH",
"322 20 LINE",
"322 0 LINE",
"548 0 LINE",
"548 20 LINE",
"531 25 LINE SMOOTH",
"510 30 OFFCURVE",
"504 42 OFFCURVE",
"503 65 CURVE",
"503 112 OFFCURVE",
"503 169 OFFCURVE",
"503 210 CURVE SMOOTH",
"503 319 LINE SMOOTH",
"503 345 OFFCURVE",
"501 368 OFFCURVE",
"497 388 CURVE",
"535 419 OFFCURVE",
"565 433 OFFCURVE",
"601 433 CURVE SMOOTH",
"647 433 OFFCURVE",
"667 416 OFFCURVE",
"667 359 CURVE SMOOTH",
"667 210 LINE SMOOTH",
"667 169 OFFCURVE",
"667 113 OFFCURVE",
"667 66 CURVE",
"667 43 OFFCURVE",
"660 32 OFFCURVE",
"640 25 CURVE SMOOTH",
"622 20 LINE",
"622 0 LINE",
"847 0 LINE",
"847 20 LINE",
"828 25 LINE SMOOTH",
"808 31 OFFCURVE",
"800 43 OFFCURVE",
"800 65 CURVE",
"800 112 OFFCURVE",
"800 169 OFFCURVE",
"800 210 CURVE SMOOTH",
"800 354 LINE SMOOTH",
"800 451 OFFCURVE",
"755 495 OFFCURVE",
"664 495 CURVE SMOOTH",
"604 495 OFFCURVE",
"540 464 OFFCURVE",
"489 414 CURVE",
"469 469 OFFCURVE",
"434 495 OFFCURVE",
"368 495 CURVE SMOOTH",
"308 495 OFFCURVE",
"248 460 OFFCURVE",
"202 417 CURVE",
"195 484 LINE",
"183 495 LINE",
"21 437 LINE",
"21 419 LINE",
"42 414 LINE SMOOTH",
"64 408 OFFCURVE",
"69 397 OFFCURVE",
"69 374 CURVE SMOOTH",
"70 333 OFFCURVE",
"70 308 OFFCURVE",
"70 264 CURVE SMOOTH",
"70 210 LINE SMOOTH",
"70 170 OFFCURVE",
"70 113 OFFCURVE",
"70 66 CURVE",
"69 44 OFFCURVE",
"64 32 OFFCURVE",
"43 26 CURVE SMOOTH",
"21 20 LINE",
"21 0 LINE"
);
}
);
width = 866.90823;
}
);
leftKerningGroup = LAT_m;
leftMetricsKey = n;
rightKerningGroup = LAT_h;
rightMetricsKey = n;
unicode = 006D;
},
{
color = 4;
glyphname = n;
lastChange = "2019-06-06 16:52:29 +0000";
layers = (
{
anchors = (
{
name = aboveLC;
position = "{294, 513}";
},
{
name = belowLC;
position = "{292, -22}";
}
);
layerId = "A9E1993B-555C-4280-8E93-805D459F1135";
paths = (
{
closed = 1;
nodes = (
"250 0 LINE",
"250 19 LINE",
"240 22 LINE",
"215 29 OFFCURVE",
"205 44 OFFCURVE",
"205 71 CURVE",
"205 116 OFFCURVE",
"205 171 OFFCURVE",
"205 210 CURVE",
"205 393 LINE",
"241 422 OFFCURVE",
"276 436 OFFCURVE",
"307 436 CURVE SMOOTH",
"353 436 OFFCURVE",
"372 415 OFFCURVE",
"372 369 CURVE SMOOTH",
"372 210 LINE",
"372 170 OFFCURVE",
"372 117 OFFCURVE",
"372 72 CURVE",
"372 45 OFFCURVE",
"363 31 OFFCURVE",
"339 23 CURVE SMOOTH",
"324 19 LINE",
"324 0 LINE",
"554 0 LINE",
"554 19 LINE",
"543 22 LINE SMOOTH",
"517 29 OFFCURVE",
"507 44 OFFCURVE",
"507 71 CURVE",
"507 116 OFFCURVE",
"507 170 OFFCURVE",
"507 210 CURVE",
"507 349 LINE SMOOTH",
"507 447 OFFCURVE",
"458 495 OFFCURVE",
"370 495 CURVE SMOOTH",
"313 495 OFFCURVE",
"250 464 OFFCURVE",
"202 422 CURVE",
"195 484 LINE",
"183 495 LINE",
"21 437 LINE",
"21 419 LINE",
"37 415 LINE SMOOTH",
"64 409 OFFCURVE",
"69 395 OFFCURVE",
"70 367 CURVE SMOOTH",
"70 332 OFFCURVE",
"70 303 OFFCURVE",
"70 264 CURVE SMOOTH",
"70 210 LINE",
"70 171 OFFCURVE",
"70 117 OFFCURVE",
"70 72 CURVE",
"70 45 OFFCURVE",
"61 30 OFFCURVE",
"37 23 CURVE",
"21 19 LINE",
"21 0 LINE"
);
}
);
width = 573.89873;
}
);
leftKerningGroup = LAT_m;
rightKerningGroup = LAT_h;
unicode = 006E;
},
{
color = 4;
glyphname = o;
lastChange = "2019-06-06 16:52:29 +0000";
layers = (
{
anchors = (
{
name = aboveLC;
position = "{271, 513}";
},
{
name = belowLC;
position = "{270, -22}";
},
{
name = hornLC;
position = "{396, 484}";
},
{
name = ogonek;
position = "{349, 0}";
}
);
layerId = "A9E1993B-555C-4280-8E93-805D459F1135";
paths = (
{
closed = 1;
nodes = (
"420 -14 OFFCURVE",
"517 82 OFFCURVE",
"517 241 CURVE SMOOTH",
"517 400 OFFCURVE",
"411 495 OFFCURVE",
"271 495 CURVE SMOOTH",
"131 495 OFFCURVE",
"25 399 OFFCURVE",
"25 241 CURVE SMOOTH",
"25 83 OFFCURVE",
"122 -14 OFFCURVE",
"271 -14 CURVE SMOOTH"
);
},
{
closed = 1;
nodes = (
"199 14 OFFCURVE",
"170 62 OFFCURVE",
"170 239 CURVE SMOOTH",
"170 417 OFFCURVE",
"199 466 OFFCURVE",
"271 466 CURVE SMOOTH",
"343 466 OFFCURVE",
"372 417 OFFCURVE",
"372 239 CURVE SMOOTH",
"372 62 OFFCURVE",
"343 14 OFFCURVE",
"271 14 CURVE SMOOTH"
);
}
);
width = 541.91772;
}
);
leftKerningGroup = LAT_o;
rightKerningGroup = LAT_b;
unicode = 006F;
},
{
color = 4;
glyphname = oslash;
lastChange = "2019-06-06 16:52:29 +0000";
layers = (
{
anchors = (
{
name = aboveLC;
position = "{280, 513}";
},
{
name = belowLC;
position = "{279, -22}";
},
{
name = hornLC;
position = "{405, 484}";
},
{
name = ogonek;
position = "{358, 0}";
}
);
layerId = "A9E1993B-555C-4280-8E93-805D459F1135";
paths = (
{
closed = 1;
nodes = (
"429 -14 OFFCURVE",
"526 82 OFFCURVE",
"526 241 CURVE SMOOTH",
"526 400 OFFCURVE",
"420 495 OFFCURVE",
"280 495 CURVE SMOOTH",
"140 495 OFFCURVE",
"34 399 OFFCURVE",
"34 241 CURVE SMOOTH",
"34 83 OFFCURVE",
"131 -14 OFFCURVE",
"280 -14 CURVE SMOOTH"
);
},
{
closed = 1;
nodes = (
"496 485 LINE",
"471 506 LINE",
"63 -4 LINE",
"89 -25 LINE"
);
},
{
closed = 1;
nodes = (
"207 14 OFFCURVE",
"174 69 OFFCURVE",
"174 239 CURVE SMOOTH",
"174 410 OFFCURVE",
"207 466 OFFCURVE",
"280 466 CURVE SMOOTH",
"353 466 OFFCURVE",
"386 410 OFFCURVE",
"386 239 CURVE SMOOTH",
"386 69 OFFCURVE",
"353 14 OFFCURVE",
"280 14 CURVE SMOOTH"
);
}
);
width = 559.96203;
}
);
leftKerningGroup = LAT_o;
rightKerningGroup = LAT_b;
unicode = 00F8;
},
{
color = 4;
glyphname = oe;
lastChange = "2019-06-06 16:52:29 +0000";
layers = (
{
anchors = (
{
name = aboveLC;
position = "{440, 513}";
}
);
layerId = "A9E1993B-555C-4280-8E93-805D459F1135";
paths = (
{
closed = 1;
nodes = (
"420 -14 OFFCURVE",
"517 82 OFFCURVE",
"517 241 CURVE SMOOTH",
"517 400 OFFCURVE",
"411 495 OFFCURVE",
"271 495 CURVE SMOOTH",
"131 495 OFFCURVE",
"25 399 OFFCURVE",
"25 241 CURVE SMOOTH",
"25 83 OFFCURVE",
"122 -14 OFFCURVE",
"271 -14 CURVE SMOOTH"
);
},
{
closed = 1;
nodes = (
"201 14 OFFCURVE",
"170 69 OFFCURVE",
"170 239 CURVE SMOOTH",
"170 410 OFFCURVE",
"201 466 OFFCURVE",
"271 466 CURVE SMOOTH",
"341 466 OFFCURVE",
"372 410 OFFCURVE",
"372 239 CURVE SMOOTH",
"372 69 OFFCURVE",
"341 14 OFFCURVE",
"271 14 CURVE SMOOTH"
);
},
{
closed = 1;
nodes = (
"710 -14 OFFCURVE",
"778 28 OFFCURVE",
"819 102 CURVE",
"803 117 LINE",
"768 77 OFFCURVE",
"731 54 OFFCURVE",
"669 54 CURVE SMOOTH",
"575 54 OFFCURVE",
"517 113 OFFCURVE",
"517 253 CURVE SMOOTH",
"517 420 OFFCURVE",
"562 466 OFFCURVE",
"616 466 CURVE SMOOTH",
"685 466 OFFCURVE",
"709 388 OFFCURVE",
"696 275 CURVE",
"433 275 LINE",
"433 247 LINE",
"818 247 LINE",
"821 260 OFFCURVE",
"823 276 OFFCURVE",
"823 293 CURVE SMOOTH",
"823 411 OFFCURVE",
"746 495 OFFCURVE",
"621 495 CURVE SMOOTH",
"496 495 OFFCURVE",
"375 401 OFFCURVE",
"375 238 CURVE SMOOTH",
"375 80 OFFCURVE",
"473 -14 OFFCURVE",
"615 -14 CURVE SMOOTH"
);
}
);
width = 852.99051;
}
);
leftKerningGroup = LAT_o;
leftMetricsKey = o;
rightKerningGroup = LAT_e;
rightMetricsKey = e;
unicode = 0153;
},
{
color = 4;
glyphname = p;
lastChange = "2019-06-06 16:52:29 +0000";
layers = (
{
anchors = (
{
name = aboveLC;
position = "{283, 513}";
},
{
name = belowLC;
position = "{141, -246}";
}
);
layerId = "A9E1993B-555C-4280-8E93-805D459F1135";
paths = (
{
closed = 1;
nodes = (
"257 -231 LINE",
"257 -212 LINE",
"238 -207 LINE SMOOTH",
"213 -200 OFFCURVE",
"203 -184 OFFCURVE",
"203 -157 CURVE SMOOTH",
"203 -103 OFFCURVE",
"202 -56 OFFCURVE",
"202 -16 CURVE SMOOTH",
"202 14 LINE",
"238 -5 OFFCURVE",
"285 -14 OFFCURVE",
"337 -14 CURVE SMOOTH",
"466 -14 OFFCURVE",
"547 80 OFFCURVE",
"547 242 CURVE SMOOTH",
"547 408 OFFCURVE",
"472 495 OFFCURVE",
"359 495 CURVE SMOOTH",
"303 495 OFFCURVE",
"247 478 OFFCURVE",
"203 448 CURVE",
"194 485 LINE",
"182 495 LINE",
"21 437 LINE",
"21 419 LINE",
"36 416 LINE SMOOTH",
"62 410 OFFCURVE",
"70 396 OFFCURVE",
"70 368 CURVE SMOOTH",
"71 331 OFFCURVE",
"71 305 OFFCURVE",
"71 264 CURVE SMOOTH",
"71 -11 LINE SMOOTH",
"71 -56 OFFCURVE",
"70 -105 OFFCURVE",
"70 -159 CURVE SMOOTH",
"70 -187 OFFCURVE",
"61 -201 OFFCURVE",
"34 -208 CURVE SMOOTH",
"21 -212 LINE",
"21 -231 LINE"
);
},
{
closed = 1;
nodes = (
"260 26 OFFCURVE",
"233 31 OFFCURVE",
"205 43 CURVE",
"205 421 LINE",
"238 439 OFFCURVE",
"268 447 OFFCURVE",
"293 447 CURVE SMOOTH",
"364 447 OFFCURVE",
"404 393 OFFCURVE",
"404 238 CURVE SMOOTH",
"404 82 OFFCURVE",
"360 26 OFFCURVE",
"290 26 CURVE SMOOTH"
);
}
);
width = 571.85759;
}
);
leftMetricsKey = n;
rightKerningGroup = LAT_b;
rightMetricsKey = o;
unicode = 0070;
},
{
color = 4;
glyphname = thorn;
lastChange = "2019-06-06 16:52:29 +0000";
layers = (
{
layerId = "A9E1993B-555C-4280-8E93-805D459F1135";
paths = (
{
closed = 1;
nodes = (
"259 -231 LINE",
"259 -212 LINE",
"245 -208 LINE SMOOTH",
"220 -201 OFFCURVE",
"207 -184 OFFCURVE",
"206 -158 CURVE SMOOTH",
"205 -104 OFFCURVE",
"204 -56 OFFCURVE",
"204 -16 CURVE SMOOTH",
"204 14 LINE",
"240 -5 OFFCURVE",
"287 -14 OFFCURVE",
"339 -14 CURVE SMOOTH",
"468 -14 OFFCURVE",
"549 80 OFFCURVE",
"549 242 CURVE SMOOTH",
"549 408 OFFCURVE",
"474 495 OFFCURVE",
"361 495 CURVE SMOOTH",
"308 495 OFFCURVE",
"252 479 OFFCURVE",
"207 451 CURVE",
"207 570 LINE",
"211 711 LINE",
"199 720 LINE",
"23 678 LINE",
"23 660 LINE",
"35 656 LINE SMOOTH",
"60 649 OFFCURVE",
"73 633 OFFCURVE",
"73 606 CURVE SMOOTH",
"73 -11 LINE SMOOTH",
"73 -57 OFFCURVE",
"72 -105 OFFCURVE",
"71 -160 CURVE SMOOTH",
"70 -187 OFFCURVE",
"57 -203 OFFCURVE",
"31 -209 CURVE SMOOTH",
"23 -212 LINE",
"23 -231 LINE"
);
},
{
closed = 1;
nodes = (
"262 26 OFFCURVE",
"235 31 OFFCURVE",
"207 43 CURVE",
"207 421 LINE",
"240 439 OFFCURVE",
"270 447 OFFCURVE",
"295 447 CURVE SMOOTH",
"366 447 OFFCURVE",
"406 393 OFFCURVE",
"406 238 CURVE SMOOTH",
"406 82 OFFCURVE",
"362 26 OFFCURVE",
"292 26 CURVE SMOOTH"
);
}
);
width = 573.84177;
}
);
leftMetricsKey = l;
rightKerningGroup = LAT_b;
rightMetricsKey = p;
unicode = 00FE;
},
{
color = 4;
glyphname = q;
lastChange = "2019-06-06 16:52:29 +0000";
layers = (
{
anchors = (
{
name = aboveLC;
position = "{314, 513}";
},
{
name = belowLC;
position = "{433, -246}";
}
);
layerId = "A9E1993B-555C-4280-8E93-805D459F1135";
paths = (
{
closed = 1;
nodes = (
"550 -231 LINE",
"550 -212 LINE",
"539 -209 LINE SMOOTH",
"514 -202 OFFCURVE",
"504 -187 OFFCURVE",
"504 -160 CURVE SMOOTH",
"504 -113 OFFCURVE",
"504 -67 OFFCURVE",
"504 -20 CURVE SMOOTH",
"504 350 LINE",
"507 485 LINE",
"493 495 LINE",
"390 446 LINE",
"350 476 OFFCURVE",
"300 495 OFFCURVE",
"243 495 CURVE SMOOTH",
"115 495 OFFCURVE",
"25 401 OFFCURVE",
"25 235 CURVE SMOOTH",
"25 73 OFFCURVE",
"107 -14 OFFCURVE",
"222 -14 CURVE SMOOTH",
"283 -14 OFFCURVE",
"333 5 OFFCURVE",
"372 36 CURVE",
"372 -20 LINE SMOOTH",
"372 -66 OFFCURVE",
"372 -111 OFFCURVE",
"372 -157 CURVE SMOOTH",
"372 -184 OFFCURVE",
"359 -200 OFFCURVE",
"333 -207 CURVE SMOOTH",
"313 -212 LINE",
"313 -231 LINE"
);
},
{
closed = 1;
nodes = (
"210 34 OFFCURVE",
"168 90 OFFCURVE",
"168 237 CURVE SMOOTH",
"168 387 OFFCURVE",
"212 448 OFFCURVE",
"286 448 CURVE SMOOTH",
"317 448 OFFCURVE",
"342 440 OFFCURVE",
"369 425 CURVE",
"369 65 LINE",
"339 44 OFFCURVE",
"312 34 OFFCURVE",
"284 34 CURVE SMOOTH"
);
}
);
width = 559.87342;
}
);
leftKerningGroup = LAT_o;
leftMetricsKey = o;
unicode = 0071;
},
{
color = 4;
glyphname = r;
lastChange = "2019-06-06 16:52:29 +0000";
layers = (
{
anchors = (
{
name = aboveLC;
position = "{236, 513}";
},
{
name = belowLC;
position = "{146, -22}";
}
);
layerId = "A9E1993B-555C-4280-8E93-805D459F1135";
paths = (
{
closed = 1;
nodes = (
"271 0 LINE",
"271 19 LINE",
"241 28 LINE SMOOTH",
"215 34 OFFCURVE",
"206 51 OFFCURVE",
"206 77 CURVE",
"206 121 OFFCURVE",
"206 172 OFFCURVE",
"206 209 CURVE",
"206 339 LINE",
"215 363 OFFCURVE",
"227 381 OFFCURVE",
"240 394 CURVE SMOOTH",
"256 412 OFFCURVE",
"273 409 OFFCURVE",
"287 393 CURVE SMOOTH",
"289 391 LINE SMOOTH",
"308 367 OFFCURVE",
"330 355 OFFCURVE",
"358 355 CURVE SMOOTH",
"394 355 OFFCURVE",
"423 379 OFFCURVE",
"423 424 CURVE SMOOTH",
"423 465 OFFCURVE",
"397 495 OFFCURVE",
"347 495 CURVE SMOOTH",
"293 495 OFFCURVE",
"235 445 OFFCURVE",
"205 389 CURVE",
"205 396 LINE",
"196 484 LINE",
"184 495 LINE",
"21 437 LINE",
"21 419 LINE",
"36 415 LINE SMOOTH",
"62 409 OFFCURVE",
"70 395 OFFCURVE",
"71 366 CURVE SMOOTH",
"71 328 OFFCURVE",
"71 305 OFFCURVE",
"71 265 CURVE",
"71 205 LINE",
"71 168 OFFCURVE",
"71 116 OFFCURVE",
"71 73 CURVE",
"71 46 OFFCURVE",
"63 31 OFFCURVE",
"36 24 CURVE SMOOTH",
"21 19 LINE",
"21 0 LINE"
);
}
);
width = 434.84494;
}
);
leftKerningGroup = LAT_m;
leftMetricsKey = n;
rightKerningGroup = LAT_r;
unicode = 0072;
},
{
color = 4;
glyphname = s;
lastChange = "2019-06-06 16:52:29 +0000";
layers = (
{
anchors = (
{
name = aboveLC;
position = "{226, 513}";
},
{
name = baseLC;
position = "{212, 0}";
},
{
name = belowLC;
position = "{215, -22}";
}
);
layerId = "A9E1993B-555C-4280-8E93-805D459F1135";
paths = (
{
closed = 1;
nodes = (
"331 -14 OFFCURVE",
"410 49 OFFCURVE",
"410 144 CURVE SMOOTH",
"410 215 OFFCURVE",
"372 265 OFFCURVE",
"275 296 CURVE SMOOTH",
"232 309 LINE SMOOTH",
"164 331 OFFCURVE",
"135 354 OFFCURVE",
"135 396 CURVE SMOOTH",
"135 440 OFFCURVE",
"178 466 OFFCURVE",
"226 466 CURVE SMOOTH",
"271 466 OFFCURVE",
"287 451 OFFCURVE",
"309 409 CURVE SMOOTH",
"340 352 LINE",
"366 352 LINE",
"372 459 LINE",
"328 482 OFFCURVE",
"283 495 OFFCURVE",
"229 495 CURVE SMOOTH",
"102 495 OFFCURVE",
"32 425 OFFCURVE",
"32 339 CURVE SMOOTH",
"32 266 OFFCURVE",
"81 217 OFFCURVE",
"160 193 CURVE SMOOTH",
"204 179 LINE SMOOTH",
"276 156 OFFCURVE",
"300 132 OFFCURVE",
"300 90 CURVE SMOOTH",
"300 43 OFFCURVE",
"260 14 OFFCURVE",
"197 14 CURVE SMOOTH",
"146 14 OFFCURVE",
"116 38 OFFCURVE",
"91 87 CURVE SMOOTH",
"61 144 LINE",
"34 144 LINE",
"34 26 LINE",
"80 1 OFFCURVE",
"130 -14 OFFCURVE",
"194 -14 CURVE SMOOTH"
);
}
);
width = 434.73528;
}
);
leftKerningGroup = LAT_s;
rightKerningGroup = LAT_s;
unicode = 0073;
},
{
color = 4;
glyphname = germandbls;
lastChange = "2019-06-06 16:52:29 +0000";
layers = (
{
layerId = "A9E1993B-555C-4280-8E93-805D459F1135";
paths = (
{
closed = 1;
nodes = (
"520 -14 OFFCURVE",
"601 50 OFFCURVE",
"601 143 CURVE SMOOTH",
"601 216 OFFCURVE",
"568 262 OFFCURVE",
"480 303 CURVE SMOOTH",
"399 338 OFFCURVE",
"369 353 OFFCURVE",
"369 380 CURVE SMOOTH",
"369 403 OFFCURVE",
"389 420 OFFCURVE",
"446 451 CURVE SMOOTH",
"509 488 OFFCURVE",
"545 526 OFFCURVE",
"545 579 CURVE SMOOTH",
"545 652 OFFCURVE",
"470 710 OFFCURVE",
"343 710 CURVE SMOOTH",
"256 710 OFFCURVE",
"180 674 OFFCURVE",
"133 614 CURVE SMOOTH",
"100 575 OFFCURVE",
"71 516 OFFCURVE",
"71 423 CURVE SMOOTH",
"71 205 LINE SMOOTH",
"71 167 OFFCURVE",
"70 109 OFFCURVE",
"70 70 CURVE SMOOTH",
"69 44 OFFCURVE",
"56 28 OFFCURVE",
"32 21 CURVE SMOOTH",
"26 19 LINE",
"25.997 0 LINE",
"209 0 LINE",
"207 68 OFFCURVE",
"206 136 OFFCURVE",
"206 205 CURVE SMOOTH",
"206 403 LINE SMOOTH",
"206 502 OFFCURVE",
"209 556 OFFCURVE",
"223 598 CURVE SMOOTH",
"242 655 OFFCURVE",
"279 682 OFFCURVE",
"333 682 CURVE SMOOTH",
"403 682 OFFCURVE",
"439 640 OFFCURVE",
"439 573 CURVE SMOOTH",
"439 526 OFFCURVE",
"420 487 OFFCURVE",
"374 446 CURVE SMOOTH",
"324 405 OFFCURVE",
"285 379 OFFCURVE",
"285 325 CURVE SMOOTH",
"285 262 OFFCURVE",
"329 227 OFFCURVE",
"400 197 CURVE SMOOTH",
"469 165 OFFCURVE",
"493 143 OFFCURVE",
"493 99 CURVE SMOOTH",
"493 46 OFFCURVE",
"454 14 OFFCURVE",
"403 14 CURVE SMOOTH",
"389 14 OFFCURVE",
"375 17 OFFCURVE",
"362 21 CURVE",
"333 30 OFFCURVE",
"321 51 OFFCURVE",
"310 83 CURVE SMOOTH",
"291 139 LINE",
"264 139 LINE",
"264 15 LINE",
"310 -6 OFFCURVE",
"354 -14 OFFCURVE",
"404 -14 CURVE SMOOTH"
);
}
);
width = 630.05557;
}
);
leftKerningGroup = LAT_f;
unicode = 00DF;
},
{
color = 4;
glyphname = t;
lastChange = "2019-06-06 16:52:29 +0000";
layers = (
{
anchors = (
{
name = aboveLC;
position = "{174, 643}";
},
{
name = baseLC;
position = "{203, 0}";
},
{
name = belowLC;
position = "{203, -22}";
}
);
layerId = "A9E1993B-555C-4280-8E93-805D459F1135";
paths = (
{
closed = 1;
nodes = (
"275 -14 OFFCURVE",
"320 12 OFFCURVE",
"346 56 CURVE",
"333 71 LINE",
"311 49 OFFCURVE",
"292 36 OFFCURVE",
"265 36 CURVE SMOOTH",
"234 36 OFFCURVE",
"211 60 OFFCURVE",
"211 108 CURVE SMOOTH",
"211 449 LINE",
"326 449 LINE",
"326 480 LINE",
"212 480 LINE",
"215 619 LINE",
"185 619 LINE",
"120 529 LINE SMOOTH",
"97 498 OFFCURVE",
"72 482 OFFCURVE",
"33 475 CURVE SMOOTH",
"6 471 LINE",
"6 449 LINE",
"77 449 LINE",
"77 212 LINE SMOOTH",
"77 173 OFFCURVE",
"76 148 OFFCURVE",
"76 116 CURVE SMOOTH",
"76 24 OFFCURVE",
"126 -14 OFFCURVE",
"209 -14 CURVE SMOOTH"
);
}
);
width = 357.93038;
}
);
leftKerningGroup = LAT_t;
rightKerningGroup = LAT_t;
unicode = 0074;
},
{
color = 4;
glyphname = tcaron;
lastChange = "2019-06-06 16:52:29 +0000";
layers = (
{
components = (
{
alignment = -1;
name = t;
}
);
layerId = "A9E1993B-555C-4280-8E93-805D459F1135";
paths = (
{
closed = 1;
nodes = (
"353 556 OFFCURVE",
"393 610 OFFCURVE",
"394 676 CURVE SMOOTH",
"394 720 OFFCURVE",
"372 746 OFFCURVE",
"335 745 CURVE SMOOTH",
"302 746 OFFCURVE",
"279 722 OFFCURVE",
"279 689 CURVE SMOOTH",
"279 661 OFFCURVE",
"299 638 OFFCURVE",
"332 632 CURVE SMOOTH",
"358 627 LINE",
"352 660 LINE",
"344 601 OFFCURVE",
"317 567 OFFCURVE",
"275 541 CURVE",
"281 526 LINE"
);
}
);
width = 347.42247;
}
);
leftKerningGroup = LAT_t;
rightKerningGroup = LAT_t;
unicode = 0165;
},
{
color = 4;
glyphname = u;
lastChange = "2019-06-06 16:52:29 +0000";
layers = (
{
anchors = (
{
name = aboveLC;
position = "{279, 513}";
},
{
name = belowLC;
position = "{289, -22}";
},
{
name = hornLC;
position = "{479, 469}";
},
{
name = ogonek;
position = "{482, 0}";
}
);
layerId = "A9E1993B-555C-4280-8E93-805D459F1135";
paths = (
{
closed = 1;
nodes = (
"267 -14 OFFCURVE",
"319 14 OFFCURVE",
"364 53 CURVE",
"373 -10 LINE",
"542 0 LINE",
"542 19 LINE",
"529 23 LINE SMOOTH",
"503 31 OFFCURVE",
"499 47 OFFCURVE",
"499 75 CURVE SMOOTH",
"499 337 LINE",
"502 478 LINE",
"491 489 LINE",
"324 454 LINE",
"324 436 LINE",
"335 433 LINE SMOOTH",
"359 426 OFFCURVE",
"366 417 OFFCURVE",
"366 387 CURVE SMOOTH",
"363 79 LINE",
"330 56 OFFCURVE",
"301 45 OFFCURVE",
"262 45 CURVE SMOOTH",
"224 45 OFFCURVE",
"197 64 OFFCURVE",
"197 110 CURVE SMOOTH",
"197 337 LINE",
"202 478 LINE",
"191 489 LINE",
"20 456 LINE",
"20 438 LINE",
"32 434 LINE SMOOTH",
"56 428 OFFCURVE",
"64 417 OFFCURVE",
"64 388 CURVE SMOOTH",
"61 137 LINE SMOOTH",
"59 26 OFFCURVE",
"122 -14 OFFCURVE",
"200 -14 CURVE SMOOTH"
);
}
);
width = 562.38766;
}
);
leftKerningGroup = LAT_u;
leftMetricsKey = "=|n";
rightKerningGroup = LAT_u;
rightMetricsKey = "=|n";
unicode = 0075;
},
{
color = 4;
glyphname = v;
lastChange = "2019-06-06 16:52:29 +0000";
layers = (
{
anchors = (
{
name = aboveLC;
position = "{297, 513}";
},
{
name = belowLC;
position = "{274, -22}";
}
);
layerId = "A9E1993B-555C-4280-8E93-805D459F1135";
paths = (
{
closed = 1;
nodes = (
"300 -3 LINE",
"451 417 LINE SMOOTH",
"458 438 OFFCURVE",
"469 448 OFFCURVE",
"490 453 CURVE SMOOTH",
"523 461 LINE",
"523 480 LINE",
"371 480 LINE",
"371 461 LINE",
"400 454 LINE SMOOTH",
"422 448 OFFCURVE",
"424 434 OFFCURVE",
"417 412 CURVE SMOOTH",
"319 135 LINE",
"214 414 LINE SMOOTH",
"206 435 OFFCURVE",
"212 450 OFFCURVE",
"233 455 CURVE SMOOTH",
"259 461 LINE",
"259 480 LINE",
"6 480 LINE",
"6 461 LINE",
"27 456 LINE SMOOTH",
"47 450 OFFCURVE",
"58 440 OFFCURVE",
"66 420 CURVE SMOOTH",
"242 -3 LINE"
);
}
);
width = 528.05084;
}
);
leftKerningGroup = LAT_v;
rightKerningGroup = LAT_v;
unicode = 0076;
},
{
color = 4;
glyphname = w;
lastChange = "2019-06-06 16:52:29 +0000";
layers = (
{
anchors = (
{
name = aboveLC;
position = "{420, 513}";
},
{
name = belowLC;
position = "{407, -22}";
}
);
layerId = "A9E1993B-555C-4280-8E93-805D459F1135";
paths = (
{
closed = 1;
nodes = (
"560 -3 LINE",
"704 412 LINE SMOOTH",
"712 436 OFFCURVE",
"722 448 OFFCURVE",
"745 455 CURVE SMOOTH",
"767 461 LINE",
"767 480 LINE",
"633 480 LINE",
"633 461 LINE",
"653 455 LINE SMOOTH",
"675 449 OFFCURVE",
"679 433 OFFCURVE",
"671 408 CURVE SMOOTH",
"581 143 LINE",
"492 409 LINE SMOOTH",
"482 436 OFFCURVE",
"486 448 OFFCURVE",
"508 456 CURVE SMOOTH",
"522 461 LINE",
"522 480 LINE",
"316 480 LINE",
"316 461 LINE",
"333 455 LINE SMOOTH",
"352 448 OFFCURVE",
"360 433 OFFCURVE",
"369 405 CURVE SMOOTH",
"508 -3 LINE"
);
},
{
closed = 1;
nodes = (
"281 -3 LINE",
"407 336 LINE",
"391 378 LINE",
"300 137 LINE",
"209 409 LINE SMOOTH",
"200 435 OFFCURVE",
"208 450 OFFCURVE",
"234 457 CURVE SMOOTH",
"250 461 LINE",
"250 480 LINE",
"11 480 LINE",
"11 461 LINE",
"28 456 LINE SMOOTH",
"51 448 OFFCURVE",
"64 437 OFFCURVE",
"72 413 CURVE SMOOTH",
"225 -3 LINE"
);
}
);
width = 780.26884;
}
);
leftKerningGroup = LAT_v;
rightKerningGroup = LAT_v;
unicode = 0077;
},
{
color = 4;
glyphname = x;
lastChange = "2019-06-06 16:52:29 +0000";
layers = (
{
anchors = (
{
name = aboveLC;
position = "{281, 513}";
},
{
name = belowLC;
position = "{258, -22}";
}
);
layerId = "A9E1993B-555C-4280-8E93-805D459F1135";
paths = (
{
closed = 1;
nodes = (
"172 0 LINE",
"172 19 LINE",
"154 23 LINE SMOOTH",
"131 28 OFFCURVE",
"125 45 OFFCURVE",
"140 67 CURVE SMOOTH",
"228 192 LINE",
"309 66 LINE SMOOTH",
"323 46 OFFCURVE",
"317 28 OFFCURVE",
"293 22 CURVE SMOOTH",
"278 19 LINE",
"278 0 LINE",
"547 0 LINE",
"547 19 LINE",
"527 24 LINE SMOOTH",
"500 31 OFFCURVE",
"479 45 OFFCURVE",
"463 69 CURVE SMOOTH",
"332 273 LINE",
"439 414 LINE SMOOTH",
"456 438 OFFCURVE",
"469 449 OFFCURVE",
"497 456 CURVE SMOOTH",
"521 461 LINE",
"521 480 LINE",
"367 480 LINE",
"367 461 LINE",
"389 455 LINE SMOOTH",
"414 449 OFFCURVE",
"413 432 OFFCURVE",
"398 411 CURVE SMOOTH",
"316 297 LINE",
"239 414 LINE SMOOTH",
"226 435 OFFCURVE",
"230 452 OFFCURVE",
"254 457 CURVE SMOOTH",
"269 461 LINE",
"269 480 LINE",
"19 480 LINE",
"19 461 LINE",
"36 457 LINE SMOOTH",
"59 451 OFFCURVE",
"69 442 OFFCURVE",
"82 422 CURVE SMOOTH",
"211 218 LINE",
"102 66 LINE SMOOTH",
"85 42 OFFCURVE",
"69 31 OFFCURVE",
"40 25 CURVE SMOOTH",
"13 19 LINE",
"13.009 0 LINE"
);
}
);
width = 559.2135;
}
);
unicode = 0078;
},
{
color = 4;
glyphname = y;
lastChange = "2019-06-06 16:52:29 +0000";
layers = (
{
anchors = (
{
name = aboveLC;
position = "{294, 513}";
},
{
name = belowLC;
position = "{147, -248}";
}
);
layerId = "A9E1993B-555C-4280-8E93-805D459F1135";
paths = (
{
closed = 1;
nodes = (
"190 -241 OFFCURVE",
"239 -173 OFFCURVE",
"293 -26 CURVE SMOOTH",
"453 404 LINE SMOOTH",
"463 433 OFFCURVE",
"473 447 OFFCURVE",
"502 455 CURVE SMOOTH",
"524 462 LINE",
"524 480 LINE",
"375 480 LINE",
"375 462 LINE",
"397 456 LINE SMOOTH",
"427 449 OFFCURVE",
"426 428 OFFCURVE",
"416 399 CURVE SMOOTH",
"318 131 LINE",
"216 397 LINE SMOOTH",
"205 427 OFFCURVE",
"204 447 OFFCURVE",
"233 456 CURVE SMOOTH",
"254 462 LINE",
"254 480 LINE",
"7 480 LINE",
"7 462 LINE",
"24 456 LINE SMOOTH",
"48 447 OFFCURVE",
"58 434 OFFCURVE",
"67 409 CURVE SMOOTH",
"257 -45 LINE",
"237 -100 OFFCURVE",
"221 -131 OFFCURVE",
"204 -153 CURVE SMOOTH",
"190 -173 OFFCURVE",
"175 -171 OFFCURVE",
"161 -154 CURVE SMOOTH",
"155 -146 LINE SMOOTH",
"139 -124 OFFCURVE",
"119 -111 OFFCURVE",
"86 -111 CURVE SMOOTH",
"54 -111 OFFCURVE",
"23 -135 OFFCURVE",
"23 -172 CURVE SMOOTH",
"23 -214 OFFCURVE",
"56 -241 OFFCURVE",
"109 -241 CURVE SMOOTH"
);
}
);
width = 536.294;
}
);
leftKerningGroup = LAT_y;
rightKerningGroup = LAT_v;
unicode = 0079;
},
{
color = 4;
glyphname = z;
lastChange = "2019-06-06 16:52:29 +0000";
layers = (
{
anchors = (
{
name = aboveLC;
position = "{246, 513}";
},
{
name = belowLC;
position = "{245, -22}";
}
);
layerId = "A9E1993B-555C-4280-8E93-805D459F1135";
paths = (
{
closed = 1;
nodes = (
"436 0 LINE",
"445 154 LINE",
"419 154 LINE",
"384 81 LINE SMOOTH",
"368 47 OFFCURVE",
"353 27 OFFCURVE",
"313 27 CURVE SMOOTH",
"168 27 LINE",
"434 460 LINE",
"434 480 LINE",
"38 480 LINE",
"31 339 LINE",
"57 337 LINE",
"91 403 LINE SMOOTH",
"107 434 OFFCURVE",
"123 454 OFFCURVE",
"157 454 CURVE SMOOTH",
"296 454 LINE",
"24 22 LINE",
"24 0 LINE"
);
}
);
width = 464.50861;
}
);
leftKerningGroup = LAT_z;
rightKerningGroup = LAT_z;
unicode = 007A;
},
{
color = 0;
export = 0;
glyphname = "alpha-latin";
lastChange = "2019-06-06 16:52:29 +0000";
layers = (
{
anchors = (
{
name = aboveLC;
position = "{304, 513}";
},
{
name = belowLC;
position = "{306, -22}";
}
);
layerId = "A9E1993B-555C-4280-8E93-805D459F1135";
paths = (
{
closed = 1;
nodes = (
"306 -14 OFFCURVE",
"359 17 OFFCURVE",
"404 91 CURVE",
"390 116 LINE",
"358 79 OFFCURVE",
"329 62 OFFCURVE",
"293 62 CURVE SMOOTH",
"226 62 OFFCURVE",
"177 112 OFFCURVE",
"177 236 CURVE SMOOTH",
"177 369 OFFCURVE",
"232 420 OFFCURVE",
"303 420 CURVE SMOOTH",
"333 420 OFFCURVE",
"360 410 OFFCURVE",
"396 374 CURVE",
"413 401 LINE",
"372 468 OFFCURVE",
"323 495 OFFCURVE",
"267 495 CURVE SMOOTH",
"138 495 OFFCURVE",
"39 393 OFFCURVE",
"39 226 CURVE SMOOTH",
"39 69 OFFCURVE",
"122 -14 OFFCURVE",
"233 -14 CURVE SMOOTH"
);
},
{
closed = 1;
nodes = (
"381 76 LINE",
"390 25 OFFCURVE",
"425 -13 OFFCURVE",
"482.997 -12.991 CURVE SMOOTH",
"535 -13 OFFCURVE",
"568 5 OFFCURVE",
"592 55 CURVE",
"568 74 LINE",
"556 58 OFFCURVE",
"547 52 OFFCURVE",
"535 52 CURVE SMOOTH",
"518 52 OFFCURVE",
"508 63 OFFCURVE",
"508 91 CURVE SMOOTH",
"508 350 LINE",
"511 485 LINE",
"486 495 LINE",
"373 426 LINE",
"373 87 LINE"
);
}
);
width = 574.43829;
}
);
unicode = 0251;
},
{
color = 0;
export = 0;
glyphname = schwa;
lastChange = "2019-06-06 16:52:29 +0000";
layers = (
{
anchors = (
{
name = aboveLC;
position = "{258, 511}";
},
{
name = belowLC;
position = "{262, -22}";
}
);
layerId = "A9E1993B-555C-4280-8E93-805D459F1135";
paths = (
{
closed = 1;
nodes = (
"374 -14 OFFCURVE",
"488 80 OFFCURVE",
"488 243 CURVE SMOOTH",
"488 402 OFFCURVE",
"393 495 OFFCURVE",
"250 495 CURVE SMOOTH",
"161 495 OFFCURVE",
"90 452 OFFCURVE",
"50 378 CURVE",
"81 351 LINE",
"113 385 OFFCURVE",
"155 410 OFFCURVE",
"206 410 CURVE SMOOTH",
"286 410 OFFCURVE",
"346 347 OFFCURVE",
"346 224 CURVE SMOOTH",
"346 82 OFFCURVE",
"298 35 OFFCURVE",
"249 35 CURVE SMOOTH",
"201 35 OFFCURVE",
"162 82 OFFCURVE",
"162 158 CURVE SMOOTH",
"162 200 OFFCURVE",
"174 217 OFFCURVE",
"225 217 CURVE SMOOTH",
"425 217 LINE",
"425 266 LINE",
"41 266 LINE",
"37 248 OFFCURVE",
"35 228 OFFCURVE",
"35 202 CURVE SMOOTH",
"35 71 OFFCURVE",
"113 -14 OFFCURVE",
"255 -14 CURVE SMOOTH"
);
}
);
width = 522.48892;
}
);
leftKerningGroup = LAT_o;
rightKerningGroup = LAT_b;
unicode = 0259;
},
{
color = 0;
export = 0;
glyphname = hbar;
lastChange = "2019-06-06 16:52:29 +0000";
layers = (
{
layerId = "A9E1993B-555C-4280-8E93-805D459F1135";
paths = (
{
closed = 1;
nodes = (
"382 529 LINE",
"382 583 LINE",
"21 583 LINE",
"21 529 LINE"
);
},
{
closed = 1;
nodes = (
"229 0 LINE",
"227 45 OFFCURVE",
"226 148 OFFCURVE",
"226 210 CURVE SMOOTH",
"226 341 LINE",
"223 354 LINE",
"223 571 LINE",
"227 721 LINE",
"211 731 LINE",
"23 686 LINE",
"23 646 LINE",
"91 636 LINE",
"91 210 LINE SMOOTH",
"91 148 OFFCURVE",
"90 45 OFFCURVE",
"88 0 CURVE"
);
},
{
closed = 1;
nodes = (
"281 0 LINE",
"281 43 LINE",
"185 63 LINE",
"127 63 LINE",
"29 43 LINE",
"29 0 LINE"
);
},
{
closed = 1;
nodes = (
"533 0 LINE",
"531 45 OFFCURVE",
"530 146 OFFCURVE",
"530 210 CURVE SMOOTH",
"530 294 LINE SMOOTH",
"530 415 OFFCURVE",
"477 470 OFFCURVE",
"389 470 CURVE SMOOTH",
"318 470 OFFCURVE",
"254 433 OFFCURVE",
"191 344 CURVE",
"232 369 LINE",
"171 369 LINE",
"171 305 LINE",
"202 305 LINE",
"248 355 OFFCURVE",
"291 382 OFFCURVE",
"332 382 CURVE SMOOTH",
"379 382 OFFCURVE",
"395 358 OFFCURVE",
"395 284 CURVE SMOOTH",
"395 210 LINE SMOOTH",
"395 146 OFFCURVE",
"394 45 OFFCURVE",
"392 0 CURVE"
);
},
{
closed = 1;
nodes = (
"588 0 LINE",
"588 43 LINE",
"489 63 LINE",
"431 63 LINE",
"335 43 LINE",
"335 0 LINE"
);
}
);
width = 611.96203;
}
);
leftKerningGroup = LAT_h;
rightKerningGroup = LAT_h;
unicode = 0127;
},
{
color = 0;
export = 0;
glyphname = jdotless;
lastChange = "2019-06-06 16:52:29 +0000";
layers = (
{
anchors = (
{
name = aboveLC;
position = "{153, 511}";
}
);
layerId = "A9E1993B-555C-4280-8E93-805D459F1135";
paths = (
{
closed = 1;
nodes = (
"92 -46 OFFCURVE",
"95 -107 OFFCURVE",
"74 -160 CURVE SMOOTH",
"67 -186 OFFCURVE",
"47 -205 OFFCURVE",
"18 -205 CURVE SMOOTH",
"-19 -205 OFFCURVE",
"-43 -192 OFFCURVE",
"-55 -172 CURVE",
"-52 -216 LINE",
"95 -212 LINE",
"56 -163 LINE SMOOTH",
"28 -125 OFFCURVE",
"0 -110 OFFCURVE",
"-35 -110 CURVE SMOOTH",
"-72 -110 OFFCURVE",
"-100 -135 OFFCURVE",
"-106 -176 CURVE",
"-96 -209 OFFCURVE",
"-60 -241 OFFCURVE",
"14 -241 CURVE SMOOTH",
"63 -241 OFFCURVE",
"117 -226 OFFCURVE",
"161 -180 CURVE SMOOTH",
"211 -128 OFFCURVE",
"225 -70 OFFCURVE",
"225 64 CURVE SMOOTH",
"225 342 LINE",
"228 484 LINE",
"211 495 LINE",
"22 430 LINE",
"22 392 LINE",
"89 383 LINE",
"91 343 OFFCURVE",
"92 312 OFFCURVE",
"92 257 CURVE SMOOTH",
"92 77 LINE SMOOTH"
);
}
);
width = 297.4288;
}
);
leftKerningGroup = LAT_j;
rightKerningGroup = LAT_j;
unicode = 0237;
},
{
color = 0;
export = 0;
glyphname = kgreenlandic;
lastChange = "2019-06-06 16:52:29 +0000";
layers = (
{
layerId = "A9E1993B-555C-4280-8E93-805D459F1135";
paths = (
{
closed = 1;
nodes = (
"232 0 LINE",
"230 45 OFFCURVE",
"229 148 OFFCURVE",
"229 224 CURVE SMOOTH",
"229 372 LINE",
"232 484 LINE",
"215 495 LINE",
"24 430 LINE",
"24 392 LINE",
"91 383 LINE",
"93 343 OFFCURVE",
"94 319 OFFCURVE",
"94 264 CURVE SMOOTH",
"94 210 LINE SMOOTH",
"94 148 OFFCURVE",
"93 45 OFFCURVE",
"91 0 CURVE"
);
},
{
closed = 1;
nodes = (
"285 0 LINE",
"285 43 LINE",
"189 63 LINE",
"130 63 LINE",
"32 43 LINE",
"32 0 LINE"
);
},
{
closed = 1;
nodes = (
"524 480 LINE",
"451 480 LINE",
"159 191 LINE",
"159 130 LINE"
);
},
{
closed = 1;
nodes = (
"583 0 LINE",
"583 43 LINE",
"456 72 LINE",
"541 16 LINE",
"360 350 LINE",
"265 263 LINE",
"402 0 LINE"
);
},
{
closed = 1;
nodes = (
"426 418 LINE",
"446 422 LINE",
"557 438 LINE",
"557 480 LINE",
"324 480 LINE",
"324 438 LINE"
);
}
);
width = 584.40348;
}
);
leftKerningGroup = LAT_m;
rightKerningGroup = LAT_k;
unicode = 0138;
},
{
color = 0;
export = 0;
glyphname = longs;
lastChange = "2019-06-06 16:52:29 +0000";
layers = (
{
layerId = "A9E1993B-555C-4280-8E93-805D459F1135";
paths = (
{
closed = 1;
nodes = (
"130 63 LINE",
"26 43 LINE",
"26 0 LINE",
"309 0 LINE",
"309 43 LINE",
"206 63 LINE"
);
},
{
closed = 1;
nodes = (
"91 140 OFFCURVE",
"90 70 OFFCURVE",
"88 0 CURVE",
"229 0 LINE",
"227 70 OFFCURVE",
"226 140 OFFCURVE",
"226 210 CURVE SMOOTH",
"226 419 LINE SMOOTH",
"226 537 OFFCURVE",
"226 610 OFFCURVE",
"251 658 CURVE SMOOTH",
"264 682 OFFCURVE",
"281 701 OFFCURVE",
"321 716 CURVE",
"261 709 LINE",
"292 673 LINE SMOOTH",
"317 631 OFFCURVE",
"344 613 OFFCURVE",
"374 613 CURVE SMOOTH",
"416 613 OFFCURVE",
"441 638 OFFCURVE",
"442 672 CURVE",
"431 720 OFFCURVE",
"384 741 OFFCURVE",
"330 741 CURVE SMOOTH",
"277 741 OFFCURVE",
"222 724 OFFCURVE",
"172 676 CURVE SMOOTH",
"130 633 OFFCURVE",
"91 568 OFFCURVE",
"91 439 CURVE SMOOTH",
"91 210 LINE SMOOTH"
);
}
);
width = 353.96519;
}
);
leftKerningGroup = LAT_f;
rightKerningGroup = LAT_f;
unicode = 017F;
},
{
color = 8;
export = 0;
glyphname = k.001;
lastChange = "2019-06-06 16:52:29 +0000";
layers = (
{
anchors = (
{
name = aboveLC;
position = "{138, 702}";
},
{
name = belowLC;
position = "{303, -22}";
}
);
layerId = "A9E1993B-555C-4280-8E93-805D459F1135";
paths = (
{
closed = 1;
nodes = (
"255 0 LINE",
"255 19 LINE",
"241 23 LINE",
"217 30 OFFCURVE",
"207 46 OFFCURVE",
"207 73 CURVE SMOOTH",
"207 113 OFFCURVE",
"207 156 OFFCURVE",
"207 212 CURVE",
"248 254 LINE",
"380 0 LINE",
"554 0 LINE",
"554 19 LINE",
"545 22 LINE",
"516 31 OFFCURVE",
"503 45 OFFCURVE",
"486 75 CURVE SMOOTH",
"342 344 LINE",
"409 410 LINE SMOOTH",
"434 435 OFFCURVE",
"449 446 OFFCURVE",
"480 454 CURVE SMOOTH",
"509 461 LINE",
"509 480 LINE",
"346 480 LINE",
"346 461 LINE",
"363 457 LINE SMOOTH",
"388 450 OFFCURVE",
"383 427 OFFCURVE",
"366 411 CURVE SMOOTH",
"207 252 LINE",
"207 552 LINE",
"211 693 LINE",
"198 702 LINE",
"23 660 LINE",
"23 641 LINE",
"36 637 LINE SMOOTH",
"63 630 OFFCURVE",
"72 618 OFFCURVE",
"72 591 CURVE SMOOTH",
"72 210 LINE SMOOTH",
"72 164 OFFCURVE",
"72 118 OFFCURVE",
"72 73 CURVE SMOOTH",
"72 46 OFFCURVE",
"61 31 OFFCURVE",
"38 24 CURVE",
"23 19 LINE",
"23 0 LINE"
);
}
);
width = 554.81962;
}
);
leftKerningGroup = LAT_h;
rightKerningGroup = LAT_k;
},
{
color = 8;
export = 0;
glyphname = g.ss01.001_old;
lastChange = "2019-06-06 16:52:29 +0000";
layers = (
{
anchors = (
{
name = aboveLC;
position = "{253, 513}";
},
{
name = belowLC;
position = "{253, -237}";
}
);
layerId = "A9E1993B-555C-4280-8E93-805D459F1135";
paths = (
{
closed = 1;
nodes = (
"410 -231 OFFCURVE",
"505 -146 OFFCURVE",
"505 -49 CURVE SMOOTH",
"505 42 OFFCURVE",
"452 99 OFFCURVE",
"315 99 CURVE SMOOTH",
"177 99 LINE SMOOTH",
"138 99 OFFCURVE",
"121 119 OFFCURVE",
"121 150 CURVE SMOOTH",
"121 169 OFFCURVE",
"121 182 OFFCURVE",
"121 203 CURVE",
"109 210 LINE",
"73 166 OFFCURVE",
"46 125 OFFCURVE",
"46 84 CURVE SMOOTH",
"46 48 OFFCURVE",
"66 18 OFFCURVE",
"105 0 CURVE",
"47 -28 OFFCURVE",
"15 -66 OFFCURVE",
"15 -116 CURVE SMOOTH",
"15 -177 OFFCURVE",
"68 -231 OFFCURVE",
"227 -231 CURVE SMOOTH"
);
},
{
closed = 1;
nodes = (
"137 -197 OFFCURVE",
"93 -165 OFFCURVE",
"93 -91 CURVE SMOOTH",
"93 -58 OFFCURVE",
"102 -30 OFFCURVE",
"121 -9 CURVE",
"143 -17 OFFCURVE",
"172 -19 OFFCURVE",
"205 -19 CURVE SMOOTH",
"314 -19 LINE SMOOTH",
"380 -19 OFFCURVE",
"404 -40 OFFCURVE",
"404 -95 CURVE SMOOTH",
"404 -158 OFFCURVE",
"351 -197 OFFCURVE",
"239 -197 CURVE SMOOTH"
);
},
{
closed = 1;
nodes = (
"182 198 OFFCURVE",
"159 237 OFFCURVE",
"159 333 CURVE SMOOTH",
"159 429 OFFCURVE",
"185 468 OFFCURVE",
"238 468 CURVE SMOOTH",
"291 468 OFFCURVE",
"316 430 OFFCURVE",
"316 335 CURVE SMOOTH",
"316 239 OFFCURVE",
"291 198 OFFCURVE",
"235 198 CURVE SMOOTH"
);
},
{
closed = 1;
nodes = (
"366 171 OFFCURVE",
"437 237 OFFCURVE",
"437 332 CURVE SMOOTH",
"437 371 OFFCURVE",
"426 404 OFFCURVE",
"405 430 CURVE",
"513 430 LINE",
"513 486 LINE",
"499 496 LINE",
"469 473 OFFCURVE",
"430 457 OFFCURVE",
"387 450 CURVE",
"353 479 OFFCURVE",
"303 495 OFFCURVE",
"237 495 CURVE SMOOTH",
"108 495 OFFCURVE",
"37 429 OFFCURVE",
"37 332 CURVE SMOOTH",
"37 235 OFFCURVE",
"108 171 OFFCURVE",
"237 171 CURVE SMOOTH"
);
}
);
width = 527.4193;
}
);
leftKerningGroup = LAT_g;
rightKerningGroup = LAT_g;
},
{
color = 8;
export = 0;
glyphname = a.002;
lastChange = "2019-06-06 16:52:29 +0000";
layers = (
{
anchors = (
{
name = aboveLC;
position = "{252, 513}";
},
{
name = belowLC;
position = "{249, -22}";
},
{
name = ogonek;
position = "{462, 4}";
}
);
layerId = "A9E1993B-555C-4280-8E93-805D459F1135";
paths = (
{
closed = 1;
nodes = (
"232 -14 OFFCURVE",
"267 17 OFFCURVE",
"310 62 CURVE",
"323 15 OFFCURVE",
"358 -13 OFFCURVE",
"413 -13 CURVE SMOOTH",
"466 -13 OFFCURVE",
"499 5 OFFCURVE",
"523 55 CURVE",
"510 66 LINE",
"496 46 OFFCURVE",
"484 35 OFFCURVE",
"467 35 CURVE SMOOTH",
"448 35 OFFCURVE",
"438 49 OFFCURVE",
"438 79 CURVE SMOOTH",
"438 312 LINE SMOOTH",
"438 441 OFFCURVE",
"373 495 OFFCURVE",
"255 495 CURVE SMOOTH",
"146 495 OFFCURVE",
"52 452 OFFCURVE",
"52 370 CURVE SMOOTH",
"52 336 OFFCURVE",
"76 314 OFFCURVE",
"110 314 CURVE SMOOTH",
"146 314 OFFCURVE",
"172 337 OFFCURVE",
"176 391 CURVE SMOOTH",
"179 404 LINE SMOOTH",
"184 447 OFFCURVE",
"201 466 OFFCURVE",
"233 466 CURVE SMOOTH",
"234 466 OFFCURVE",
"235 466 OFFCURVE",
"236 466 CURVE SMOOTH",
"285 466 OFFCURVE",
"307 437 OFFCURVE",
"307 346 CURVE SMOOTH",
"307 275 LINE",
"277 270 OFFCURVE",
"246 265 OFFCURVE",
"223 260 CURVE SMOOTH",
"89 234 OFFCURVE",
"30 176 OFFCURVE",
"30 112 CURVE SMOOTH",
"30 30 OFFCURVE",
"90 -14 OFFCURVE",
"166 -14 CURVE SMOOTH"
);
},
{
closed = 1;
nodes = (
"185 50 OFFCURVE",
"158 76 OFFCURVE",
"158 129 CURVE SMOOTH",
"158 190 OFFCURVE",
"197 225 OFFCURVE",
"254 239 CURVE SMOOTH",
"273 243 OFFCURVE",
"289 246 OFFCURVE",
"307 249 CURVE",
"307 89 LINE",
"271 61 OFFCURVE",
"250 50 OFFCURVE",
"224 50 CURVE SMOOTH"
);
}
);
width = 524.41297;
}
);
leftKerningGroup = LAT_a;
rightKerningGroup = LAT_a;
},
{
color = 8;
export = 0;
glyphname = g.002;
lastChange = "2019-06-06 16:52:29 +0000";
layers = (
{
anchors = (
{
name = aboveLC;
position = "{253, 513}";
},
{
name = belowLC;
position = "{253, -237}";
}
);
layerId = "A9E1993B-555C-4280-8E93-805D459F1135";
paths = (
{
closed = 1;
nodes = (
"410 -231 OFFCURVE",
"505 -146 OFFCURVE",
"505 -49 CURVE SMOOTH",
"505 36 OFFCURVE",
"453 91 OFFCURVE",
"315 91 CURVE SMOOTH",
"185 91 LINE SMOOTH",
"135 91 OFFCURVE",
"120 108 OFFCURVE",
"120 133 CURVE SMOOTH",
"120 156 OFFCURVE",
"130 173 OFFCURVE",
"146 190 CURVE",
"127 199 LINE",
"78 156 OFFCURVE",
"46 115 OFFCURVE",
"46 75 CURVE SMOOTH",
"46 38 OFFCURVE",
"65 8 OFFCURVE",
"105 -8 CURVE",
"47 -36 OFFCURVE",
"15 -69 OFFCURVE",
"15 -116 CURVE SMOOTH",
"15 -177 OFFCURVE",
"68 -231 OFFCURVE",
"227 -231 CURVE SMOOTH"
);
},
{
closed = 1;
nodes = (
"137 -197 OFFCURVE",
"93 -165 OFFCURVE",
"93 -91 CURVE SMOOTH",
"93 -61 OFFCURVE",
"102 -38 OFFCURVE",
"121 -17 CURVE",
"143 -25 OFFCURVE",
"172 -27 OFFCURVE",
"205 -27 CURVE SMOOTH",
"314 -27 LINE SMOOTH",
"380 -27 OFFCURVE",
"404 -46 OFFCURVE",
"404 -95 CURVE SMOOTH",
"404 -160 OFFCURVE",
"351 -197 OFFCURVE",
"239 -197 CURVE SMOOTH"
);
},
{
closed = 1;
nodes = (
"182 198 OFFCURVE",
"159 237 OFFCURVE",
"159 333 CURVE SMOOTH",
"159 429 OFFCURVE",
"185 468 OFFCURVE",
"238 468 CURVE SMOOTH",
"291 468 OFFCURVE",
"316 430 OFFCURVE",
"316 335 CURVE SMOOTH",
"316 239 OFFCURVE",
"291 198 OFFCURVE",
"235 198 CURVE SMOOTH"
);
},
{
closed = 1;
nodes = (
"366 171 OFFCURVE",
"437 237 OFFCURVE",
"437 332 CURVE SMOOTH",
"437 371 OFFCURVE",
"426 404 OFFCURVE",
"405 430 CURVE",
"513 430 LINE",
"513 486 LINE",
"499 496 LINE",
"469 473 OFFCURVE",
"430 457 OFFCURVE",
"387 450 CURVE",
"353 479 OFFCURVE",
"303 495 OFFCURVE",
"237 495 CURVE SMOOTH",
"108 495 OFFCURVE",
"37 429 OFFCURVE",
"37 332 CURVE SMOOTH",
"37 235 OFFCURVE",
"108 171 OFFCURVE",
"237 171 CURVE SMOOTH"
);
}
);
width = 527.4193;
}
);
leftKerningGroup = LAT_g;
rightKerningGroup = LAT_g;
},
{
color = 0;
glyphname = f_f;
lastChange = "2019-06-06 20:02:38 +0000";
layers = (
{
anchors = (
{
name = caret_1;
position = "{341, 0}";
}
);
layerId = "A9E1993B-555C-4280-8E93-805D459F1135";
paths = (
{
closed = 1;
nodes = (
"279.889 0 LINE",
"279.889 18.975 LINE",
"253.869 25.584 LINE SMOOTH",
"227.365 32.402 OFFCURVE",
"214.48 47.301 OFFCURVE",
"213.87 74.692 CURVE SMOOTH",
"213.87 119.725 OFFCURVE",
"213.369 165.149 OFFCURVE",
"213.369 210 CURVE SMOOTH",
"213.369 448.72 LINE",
"328.441 448.72 LINE",
"328.441 480.479 LINE",
"213.369 480.479 LINE",
"213.551 543.221 OFFCURVE",
"219.533 602.16 OFFCURVE",
"230.739 644.503 CURVE SMOOTH",
"237.907 666.556 OFFCURVE",
"255.817 672.556 OFFCURVE",
"272.182 653.334 CURVE SMOOTH",
"284.252 639.245 LINE SMOOTH",
"307.708 601.691 OFFCURVE",
"333.4 585.089 OFFCURVE",
"364.924 585.089 CURVE SMOOTH",
"403.947 585.089 OFFCURVE",
"424.889 606.574 OFFCURVE",
"424.889 641.549 CURVE SMOOTH",
"424.889 690.508 OFFCURVE",
"373.438 710.498 OFFCURVE",
"321.46 710.498 CURVE SMOOTH",
"267.987 710.498 OFFCURVE",
"208.991 694.006 OFFCURVE",
"159.511 646.009 CURVE SMOOTH",
"125.394 611.987 OFFCURVE",
"99.527 574.6 OFFCURVE",
"86.425 521.769 CURVE SMOOTH",
"79.93 494.267 OFFCURVE",
"70.775 479.203 OFFCURVE",
"43.812 474.984 CURVE SMOOTH",
"21.511 471.16 LINE",
"21.511 448.72 LINE",
"78.543 448.72 LINE",
"78.543 210 LINE SMOOTH",
"78.543 163.862 OFFCURVE",
"77.933 117.903 OFFCURVE",
"77.933 71.873 CURVE SMOOTH",
"77.324 44.873 OFFCURVE",
"62.547 29.807 OFFCURVE",
"37.045 22.844 CURVE SMOOTH",
"21.83 18.975 LINE",
"21.83 0 LINE"
);
},
{
closed = 1;
nodes = (
"621.343 0 LINE",
"621.343 18.975 LINE",
"595.324 25.584 LINE SMOOTH",
"568.819 32.402 OFFCURVE",
"555.934 47.301 OFFCURVE",
"555.324 74.692 CURVE SMOOTH",
"555.324 119.725 OFFCURVE",
"554.823 165.149 OFFCURVE",
"554.823 210 CURVE SMOOTH",
"554.823 448.72 LINE",
"669.896 448.72 LINE",
"669.896 480.479 LINE",
"554.823 480.479 LINE",
"555.005 543.221 OFFCURVE",
"560.987 602.16 OFFCURVE",
"572.193 644.503 CURVE SMOOTH",
"579.361 666.556 OFFCURVE",
"597.271 672.556 OFFCURVE",
"613.636 653.334 CURVE SMOOTH",
"625.706 639.245 LINE SMOOTH",
"649.162 601.691 OFFCURVE",
"674.854 585.089 OFFCURVE",
"706.378 585.089 CURVE SMOOTH",
"745.401 585.089 OFFCURVE",
"766.343 606.574 OFFCURVE",
"766.343 641.549 CURVE SMOOTH",
"766.343 690.508 OFFCURVE",
"714.892 710.498 OFFCURVE",
"662.915 710.498 CURVE SMOOTH",
"609.441 710.498 OFFCURVE",
"550.445 694.006 OFFCURVE",
"500.965 646.009 CURVE SMOOTH",
"466.848 611.987 OFFCURVE",
"440.981 574.6 OFFCURVE",
"427.88 521.769 CURVE SMOOTH",
"421.384 497.264 OFFCURVE",
"412.23 480.479 OFFCURVE",
"385.266 480.479 CURVE SMOOTH",
"281.152 480.479 LINE",
"281.152 448.72 LINE",
"419.997 448.72 LINE",
"419.997 210 LINE SMOOTH",
"419.997 163.862 OFFCURVE",
"419.387 117.903 OFFCURVE",
"419.387 71.873 CURVE SMOOTH",
"418.778 44.873 OFFCURVE",
"404.001 29.807 OFFCURVE",
"378.499 22.844 CURVE SMOOTH",
"363.285 18.975 LINE",
"363.285 0 LINE"
);
}
);
width = 682.90823;
}
);
leftKerningGroup = LAT_f;
rightKerningGroup = LAT_f;
},
{
color = 8;
glyphname = f_i;
lastChange = "2019-06-06 16:52:29 +0000";
layers = (
{
anchors = (
{
name = bottom_1;
position = "{144, 0}";
},
{
name = bottom_2;
position = "{432, 0}";
},
{
name = caret_1;
position = "{288, 0}";
},
{
name = top_1;
position = "{144, 721}";
},
{
name = top_2;
position = "{432, 721}";
}
);
layerId = "A9E1993B-555C-4280-8E93-805D459F1135";
paths = (
{
closed = 1;
nodes = (
"274 0 LINE",
"274 19 LINE",
"254 24 LINE SMOOTH",
"227 30 OFFCURVE",
"214 47 OFFCURVE",
"214 74 CURVE",
"213 119 OFFCURVE",
"213 171 OFFCURVE",
"213 211 CURVE SMOOTH",
"213 449 LINE",
"374 449 LINE",
"375 404 OFFCURVE",
"376 336 OFFCURVE",
"376 275 CURVE SMOOTH",
"376 213 LINE SMOOTH",
"376 179 OFFCURVE",
"377 121 OFFCURVE",
"376 73 CURVE SMOOTH",
"376 46 OFFCURVE",
"363 30 OFFCURVE",
"337 22 CURVE SMOOTH",
"326 19 LINE",
"326 0 LINE",
"555 0 LINE",
"555 19 LINE",
"548 21 LINE SMOOTH",
"523 29 OFFCURVE",
"510 46 OFFCURVE",
"510 73 CURVE SMOOTH",
"510 118 OFFCURVE",
"510 169 OFFCURVE",
"510 206 CURVE",
"510 346 LINE",
"513 484 LINE",
"499 495 LINE",
"481 489 LINE SMOOTH",
"461 483 OFFCURVE",
"445 480 OFFCURVE",
"423 480 CURVE SMOOTH",
"213 480 LINE",
"215 585 OFFCURVE",
"243 649 OFFCURVE",
"296 674 CURVE SMOOTH",
"313 682 OFFCURVE",
"328 674 OFFCURVE",
"337 658 CURVE SMOOTH",
"359 619 LINE SMOOTH",
"377 586 OFFCURVE",
"398 561 OFFCURVE",
"436 561 CURVE SMOOTH",
"473 561 OFFCURVE",
"496 583 OFFCURVE",
"496 618 CURVE SMOOTH",
"496 673 OFFCURVE",
"438 710 OFFCURVE",
"354 710 CURVE SMOOTH",
"221 710 OFFCURVE",
"122 649 OFFCURVE",
"89 523 CURVE SMOOTH",
"82 495 OFFCURVE",
"67 479 OFFCURVE",
"39 474 CURVE SMOOTH",
"22 471 LINE",
"22 449 LINE",
"79 449 LINE",
"79 210 LINE SMOOTH",
"79 170 OFFCURVE",
"78 118 OFFCURVE",
"78 73 CURVE SMOOTH",
"77 45 OFFCURVE",
"64 29 OFFCURVE",
"37 22 CURVE SMOOTH",
"22 19 LINE",
"22 0 LINE"
);
}
);
width = 575.84494;
}
);
leftKerningGroup = LAT_f;
leftMetricsKey = f;
rightKerningGroup = LAT_i;
},
{
glyphname = f_j;
lastChange = "2019-06-06 16:52:29 +0000";
layers = (
{
layerId = "A9E1993B-555C-4280-8E93-805D459F1135";
paths = (
{
closed = 1;
nodes = (
"348 -241 OFFCURVE",
"402 -223 OFFCURVE",
"447 -177 CURVE SMOOTH",
"496 -125 OFFCURVE",
"510 -65 OFFCURVE",
"510 69 CURVE",
"510 346 LINE",
"513 484 LINE",
"499 495 LINE",
"470 486 LINE SMOOTH",
"458 482 OFFCURVE",
"448 480 OFFCURVE",
"435 480 CURVE SMOOTH",
"213 480 LINE",
"215 591 OFFCURVE",
"246 654 OFFCURVE",
"301 678 CURVE SMOOTH",
"316 683 OFFCURVE",
"327 677 OFFCURVE",
"334 665 CURVE SMOOTH",
"359 619 LINE SMOOTH",
"377 586 OFFCURVE",
"398 561 OFFCURVE",
"436 561 CURVE SMOOTH",
"473 561 OFFCURVE",
"496 583 OFFCURVE",
"496 618 CURVE SMOOTH",
"496 673 OFFCURVE",
"438 710 OFFCURVE",
"354 710 CURVE SMOOTH",
"215 710 OFFCURVE",
"112 645 OFFCURVE",
"85 508 CURVE SMOOTH",
"81 490 OFFCURVE",
"72 480 OFFCURVE",
"54 477 CURVE SMOOTH",
"22 471 LINE",
"22 449 LINE",
"79 449 LINE",
"79 210 LINE SMOOTH",
"79 166 OFFCURVE",
"78 103 OFFCURVE",
"78 58 CURVE",
"77 40 OFFCURVE",
"69 30 OFFCURVE",
"52 27 CURVE SMOOTH",
"22 19 LINE",
"22 0 LINE",
"274 0 LINE",
"274 19 LINE",
"239 28 LINE",
"223 32 OFFCURVE",
"214 42 OFFCURVE",
"214 59 CURVE",
"213 105 OFFCURVE",
"213 167 OFFCURVE",
"213 211 CURVE",
"213 449 LINE",
"374 449 LINE",
"375 404 OFFCURVE",
"376 336 OFFCURVE",
"376 275 CURVE",
"376 71 LINE",
"376 -33 OFFCURVE",
"375 -95 OFFCURVE",
"373 -160 CURVE SMOOTH",
"371 -194 OFFCURVE",
"357 -198 OFFCURVE",
"346 -181 CURVE SMOOTH",
"338 -165 LINE SMOOTH",
"320 -130 OFFCURVE",
"290 -113 OFFCURVE",
"256 -113 CURVE SMOOTH",
"221 -113 OFFCURVE",
"192 -137 OFFCURVE",
"192 -173 CURVE SMOOTH",
"192 -213 OFFCURVE",
"221 -241 OFFCURVE",
"294 -241 CURVE SMOOTH"
);
}
);
width = 559.81646;
}
);
leftMetricsKey = f;
rightMetricsKey = j;
},
{
color = 8;
glyphname = f_l;
lastChange = "2019-06-06 16:52:29 +0000";
layers = (
{
anchors = (
{
name = bottom_1;
position = "{153, 0}";
},
{
name = bottom_2;
position = "{459, 0}";
},
{
name = caret_1;
position = "{306, 0}";
},
{
name = top_1;
position = "{153, 721}";
},
{
name = top_2;
position = "{459, 721}";
}
);
layerId = "A9E1993B-555C-4280-8E93-805D459F1135";
paths = (
{
closed = 1;
nodes = (
"280 0 LINE",
"280 19 LINE",
"254 26 LINE SMOOTH",
"227 32 OFFCURVE",
"214 47 OFFCURVE",
"214 75 CURVE SMOOTH",
"214 120 OFFCURVE",
"213 165 OFFCURVE",
"213 210 CURVE SMOOTH",
"213 449 LINE",
"328 449 LINE",
"328 480 LINE",
"213 480 LINE",
"214 543 OFFCURVE",
"220 602 OFFCURVE",
"231 645 CURVE SMOOTH",
"238 667 OFFCURVE",
"256 673 OFFCURVE",
"272 653 CURVE SMOOTH",
"284 639 LINE SMOOTH",
"308 602 OFFCURVE",
"333 585 OFFCURVE",
"365 585 CURVE SMOOTH",
"404 585 OFFCURVE",
"425 607 OFFCURVE",
"425 642 CURVE SMOOTH",
"425 691 OFFCURVE",
"373 710 OFFCURVE",
"321 710 CURVE SMOOTH",
"268 710 OFFCURVE",
"208.991 694.006 OFFCURVE",
"160 646 CURVE SMOOTH",
"125 612 OFFCURVE",
"100 575 OFFCURVE",
"86 522 CURVE SMOOTH",
"80 494 OFFCURVE",
"71 479 OFFCURVE",
"44 475 CURVE SMOOTH",
"22 471 LINE",
"22 449 LINE",
"79 449 LINE",
"79 210 LINE SMOOTH",
"79 164 OFFCURVE",
"78 118 OFFCURVE",
"78 72 CURVE SMOOTH",
"77 45 OFFCURVE",
"63 30 OFFCURVE",
"37 23 CURVE SMOOTH",
"22 19 LINE",
"22 0 LINE"
);
},
{
closed = 1;
nodes = (
"588 0 LINE",
"588 19 LINE",
"573 23 LINE SMOOTH",
"547 29 OFFCURVE",
"540 46 OFFCURVE",
"539 73 CURVE SMOOTH",
"539 118 OFFCURVE",
"538 164 OFFCURVE",
"538 210 CURVE SMOOTH",
"538 552 LINE",
"542 693 LINE",
"530 702 LINE",
"354 660 LINE",
"354 641 LINE",
"369 637 LINE SMOOTH",
"395 630 OFFCURVE",
"403 618 OFFCURVE",
"403 590 CURVE SMOOTH",
"403 210 LINE SMOOTH",
"403 164 OFFCURVE",
"403 118 OFFCURVE",
"403 73 CURVE SMOOTH",
"402 46 OFFCURVE",
"394 31 OFFCURVE",
"369 23 CURVE SMOOTH",
"354 19 LINE",
"354 0 LINE"
);
}
);
width = 611.80696;
}
);
leftKerningGroup = LAT_f;
rightKerningGroup = LAT_l;
},
{
color = 8;
export = 0;
glyphname = f_f_i;
lastChange = "2019-06-06 16:52:29 +0000";
layers = (
{
anchors = (
{
name = caret_1;
position = "{299, 0}";
},
{
name = caret_2;
position = "{597, 0}";
}
);
layerId = "A9E1993B-555C-4280-8E93-805D459F1135";
paths = (
{
closed = 1;
nodes = (
"280 0 LINE",
"280 19 LINE",
"254 26 LINE SMOOTH",
"227 32 OFFCURVE",
"214 47 OFFCURVE",
"214 75 CURVE",
"214 120 OFFCURVE",
"213 165 OFFCURVE",
"213 210 CURVE SMOOTH",
"213 449 LINE",
"327 449 LINE",
"327 480 LINE",
"213 480 LINE",
"214 543 OFFCURVE",
"220 602 OFFCURVE",
"231 645 CURVE SMOOTH",
"238 667 OFFCURVE",
"256 673 OFFCURVE",
"272 653 CURVE SMOOTH",
"284 639 LINE SMOOTH",
"308 602 OFFCURVE",
"333 585 OFFCURVE",
"365 585 CURVE SMOOTH",
"404 585 OFFCURVE",
"425 607 OFFCURVE",
"425 642 CURVE SMOOTH",
"425 691 OFFCURVE",
"373 710 OFFCURVE",
"321 710 CURVE SMOOTH",
"268 710 OFFCURVE",
"208.991 694.006 OFFCURVE",
"160 646 CURVE SMOOTH",
"125 612 OFFCURVE",
"100 575 OFFCURVE",
"86 522 CURVE SMOOTH",
"80 494 OFFCURVE",
"71 479 OFFCURVE",
"44 475 CURVE SMOOTH",
"22 471 LINE",
"22 449 LINE",
"79 449 LINE",
"79 210 LINE SMOOTH",
"79 164 OFFCURVE",
"78 118 OFFCURVE",
"78 72 CURVE",
"77 45 OFFCURVE",
"63 30 OFFCURVE",
"37 23 CURVE SMOOTH",
"22 19 LINE",
"22 0 LINE"
);
},
{
closed = 1;
nodes = (
"578 0 LINE",
"578 19 LINE",
"558 24 LINE SMOOTH",
"531 30 OFFCURVE",
"518 47 OFFCURVE",
"518 74 CURVE",
"517 119 OFFCURVE",
"517 171 OFFCURVE",
"517 211 CURVE SMOOTH",
"517 449 LINE",
"678 449 LINE",
"679 404 OFFCURVE",
"680 336 OFFCURVE",
"680 275 CURVE SMOOTH",
"680 213 LINE SMOOTH",
"680 179 OFFCURVE",
"681 121 OFFCURVE",
"680 73 CURVE",
"679 46 OFFCURVE",
"667 30 OFFCURVE",
"641 22 CURVE SMOOTH",
"630 19 LINE",
"630 0 LINE",
"859 0 LINE",
"859 19 LINE",
"852 21 LINE SMOOTH",
"827 29 OFFCURVE",
"814 46 OFFCURVE",
"814 73 CURVE SMOOTH",
"814 118 OFFCURVE",
"814 169 OFFCURVE",
"814 206 CURVE SMOOTH",
"814 346 LINE",
"817 484 LINE",
"803 495 LINE",
"785 489 LINE SMOOTH",
"765 483 OFFCURVE",
"749 480 OFFCURVE",
"727 480 CURVE SMOOTH",
"517 480 LINE",
"519 585 OFFCURVE",
"547 649 OFFCURVE",
"600 674 CURVE SMOOTH",
"617 682 OFFCURVE",
"631 674 OFFCURVE",
"641 658 CURVE SMOOTH",
"662 619 LINE SMOOTH",
"681 586 OFFCURVE",
"702 561 OFFCURVE",
"740 561 CURVE SMOOTH",
"777 561 OFFCURVE",
"800 583 OFFCURVE",
"800 618 CURVE SMOOTH",
"800 673 OFFCURVE",
"742 710 OFFCURVE",
"658 710 CURVE SMOOTH",
"525 710 OFFCURVE",
"426 649 OFFCURVE",
"392 523 CURVE SMOOTH",
"386 498 OFFCURVE",
"371 480 OFFCURVE",
"343 480 CURVE SMOOTH",
"325 480 LINE",
"325 449 LINE",
"382 449 LINE",
"382 210 LINE SMOOTH",
"382 170 OFFCURVE",
"383 118 OFFCURVE",
"382 73 CURVE",
"381 45 OFFCURVE",
"368 29 OFFCURVE",
"341 22 CURVE SMOOTH",
"325 19 LINE",
"325 0 LINE"
);
}
);
width = 879.78481;
}
);
leftKerningGroup = LAT_f;
leftMetricsKey = f;
rightKerningGroup = LAT_i;
rightMetricsKey = f_i;
},
{
color = 8;
export = 0;
glyphname = f_f_l;
lastChange = "2019-06-06 16:52:29 +0000";
layers = (
{
anchors = (
{
name = caret_1;
position = "{310, 0}";
},
{
name = caret_2;
position = "{620, 0}";
}
);
layerId = "A9E1993B-555C-4280-8E93-805D459F1135";
paths = (
{
closed = 1;
nodes = (
"590 0 LINE",
"590 19 LINE",
"564 26 LINE SMOOTH",
"538 32 OFFCURVE",
"525 47 OFFCURVE",
"524 75 CURVE SMOOTH",
"524 120 OFFCURVE",
"524 165 OFFCURVE",
"524 210 CURVE SMOOTH",
"524 449 LINE",
"639 449 LINE",
"639 480 LINE",
"524 480 LINE",
"524 543 OFFCURVE",
"530 602 OFFCURVE",
"541 645 CURVE SMOOTH",
"548 667 OFFCURVE",
"566 673 OFFCURVE",
"583 653 CURVE SMOOTH",
"595 639 LINE SMOOTH",
"618 602 OFFCURVE",
"644 585 OFFCURVE",
"675 585 CURVE SMOOTH",
"714 585 OFFCURVE",
"735 607 OFFCURVE",
"735 642 CURVE SMOOTH",
"735 691 OFFCURVE",
"684 710 OFFCURVE",
"632 710 CURVE SMOOTH",
"578 710 OFFCURVE",
"519 694 OFFCURVE",
"470 646 CURVE SMOOTH",
"436 612 OFFCURVE",
"410 575 OFFCURVE",
"397 522 CURVE SMOOTH",
"390 495 OFFCURVE",
"380 480 OFFCURVE",
"353 480 CURVE SMOOTH",
"332 480 LINE",
"332 449 LINE",
"389 449 LINE",
"389 210 LINE SMOOTH",
"389 164 OFFCURVE",
"388 118 OFFCURVE",
"388 72 CURVE SMOOTH",
"388 45 OFFCURVE",
"373 30 OFFCURVE",
"347 23 CURVE SMOOTH",
"332 19 LINE",
"332 0 LINE"
);
},
{
closed = 1;
nodes = (
"280 0 LINE",
"280 19 LINE",
"254 26 LINE SMOOTH",
"227 32 OFFCURVE",
"214 47 OFFCURVE",
"214 75 CURVE SMOOTH",
"214 120 OFFCURVE",
"213 165 OFFCURVE",
"213 210 CURVE SMOOTH",
"213 449 LINE",
"334 449 LINE",
"334 480 LINE",
"213 480 LINE",
"214 543 OFFCURVE",
"220 602 OFFCURVE",
"231 645 CURVE SMOOTH",
"238 667 OFFCURVE",
"256 673 OFFCURVE",
"272 653 CURVE SMOOTH",
"284 639 LINE SMOOTH",
"308 602 OFFCURVE",
"333 585 OFFCURVE",
"365 585 CURVE SMOOTH",
"404 585 OFFCURVE",
"425 607 OFFCURVE",
"425 642 CURVE SMOOTH",
"425 691 OFFCURVE",
"373 710 OFFCURVE",
"321 710 CURVE SMOOTH",
"268 710 OFFCURVE",
"208.991 694.006 OFFCURVE",
"160 646 CURVE SMOOTH",
"125 612 OFFCURVE",
"100 575 OFFCURVE",
"86 522 CURVE SMOOTH",
"80 494 OFFCURVE",
"71 479 OFFCURVE",
"44 475 CURVE SMOOTH",
"22 471 LINE",
"22 449 LINE",
"79 449 LINE",
"79 210 LINE SMOOTH",
"79 164 OFFCURVE",
"78 118 OFFCURVE",
"78 72 CURVE SMOOTH",
"77 45 OFFCURVE",
"63 30 OFFCURVE",
"37 23 CURVE SMOOTH",
"22 19 LINE",
"22 0 LINE"
);
},
{
closed = 1;
nodes = (
"898 0 LINE",
"898 19 LINE",
"884 23 LINE SMOOTH",
"858 29 OFFCURVE",
"850 46 OFFCURVE",
"849 73 CURVE SMOOTH",
"849 118 OFFCURVE",
"849 164 OFFCURVE",
"849 210 CURVE SMOOTH",
"849 552 LINE",
"853 693 LINE",
"840 702 LINE",
"664 660 LINE",
"664 641 LINE",
"679 637 LINE SMOOTH",
"706 630 OFFCURVE",
"714 618 OFFCURVE",
"714 590 CURVE SMOOTH",
"714 210 LINE SMOOTH",
"714 164 OFFCURVE",
"713 118 OFFCURVE",
"713 73 CURVE SMOOTH",
"713 46 OFFCURVE",
"704 31 OFFCURVE",
"679 23 CURVE SMOOTH",
"665 19 LINE",
"665 0 LINE"
);
}
);
width = 922.22627;
}
);
leftKerningGroup = LAT_f;
leftMetricsKey = f;
rightKerningGroup = LAT_l;
rightMetricsKey = f_l;
},
{
color = 0;
export = 0;
glyphname = f_t;
lastChange = "2019-06-06 16:52:29 +0000";
layers = (
{
components = (
{
alignment = -1;
name = f;
}
);
layerId = "A9E1993B-555C-4280-8E93-805D459F1135";
paths = (
{
closed = 1;
nodes = (
"402 24 OFFCURVE",
"452 -14 OFFCURVE",
"536 -14 CURVE SMOOTH",
"602 -14 OFFCURVE",
"647 11 OFFCURVE",
"673 56 CURVE",
"649 81 LINE",
"627 65 OFFCURVE",
"610 57 OFFCURVE",
"590 57 CURVE SMOOTH",
"559 57 OFFCURVE",
"538 79 OFFCURVE",
"538 127 CURVE SMOOTH",
"538 441 LINE",
"542 619 LINE",
"464 619 LINE",
"411 449 LINE",
"452 480 LINE",
"317 480 LINE",
"317 417 LINE",
"403 417 LINE",
"403 212 LINE SMOOTH",
"403 173 OFFCURVE",
"402 148 OFFCURVE",
"402 116 CURVE SMOOTH"
);
},
{
closed = 1;
nodes = (
"653 417 LINE",
"653 480 LINE",
"471 480 LINE",
"471 417 LINE"
);
}
);
width = 669.41297;
}
);
leftKerningGroup = LAT_f;
rightKerningGroup = LAT_t;
},
{
color = 0;
export = 0;
glyphname = A.sc;
lastChange = "2019-06-06 16:52:29 +0000";
layers = (
{
anchors = (
{
name = aboveUC;
position = "{299, 566}";
},
{
name = belowLC;
position = "{276, -18}";
},
{
name = ogonek;
position = "{507, 0}";
}
);
layerId = "A9E1993B-555C-4280-8E93-805D459F1135";
paths = (
{
closed = 1;
nodes = (
"210 0 LINE",
"210 47 LINE",
"120 60 LINE",
"103 60 LINE",
"8 47 LINE",
"7.991 0 LINE"
);
},
{
closed = 1;
nodes = (
"430 159 LINE",
"409 211 LINE",
"171 211 LINE",
"154 159 LINE"
);
},
{
closed = 1;
nodes = (
"593 0 LINE",
"593 45 LINE",
"479 59 LINE",
"430 59 LINE",
"327 45 LINE",
"327 0 LINE"
);
},
{
closed = 1;
nodes = (
"115 0 LINE",
"271 419 LINE",
"420 0 LINE",
"556 0 LINE",
"353 545 LINE",
"269 545 LINE",
"62 0 LINE"
);
}
);
width = 611.42247;
}
);
leftKerningGroup = LAT_A.sc;
rightKerningGroup = LAT_A.sc;
},
{
color = 0;
export = 0;
glyphname = AE.sc;
lastChange = "2019-06-06 16:52:29 +0000";
layers = (
{
anchors = (
{
name = aboveUC;
position = "{525, 564}";
}
);
layerId = "A9E1993B-555C-4280-8E93-805D459F1135";
paths = (
{
closed = 1;
nodes = (
"210 0 LINE",
"210 47 LINE",
"126 60 LINE",
"109 60 LINE",
"9 47 LINE",
"9 0 LINE"
);
},
{
closed = 1;
nodes = (
"107.997 0 LINE",
"404 543 LINE",
"343 543 LINE",
"41 0 LINE"
);
},
{
closed = 1;
nodes = (
"448 199 LINE",
"448 250 LINE",
"207 250 LINE",
"179 199 LINE"
);
},
{
closed = 1;
nodes = (
"350 483 LINE",
"448 483 LINE",
"448 543 LINE",
"231 543 LINE",
"231 496 LINE"
);
},
{
closed = 1;
nodes = (
"448 0 LINE",
"448 60 LINE",
"435 60 LINE",
"312 47 LINE",
"312 0 LINE"
);
},
{
closed = 1;
nodes = (
"517 0 LINE",
"515 85 OFFCURVE",
"515 171 OFFCURVE",
"515 258 CURVE SMOOTH",
"515 291 LINE SMOOTH",
"515 375 OFFCURVE",
"515 460 OFFCURVE",
"517 543 CURVE",
"382 543 LINE",
"382 223 LINE SMOOTH",
"382 143 OFFCURVE",
"381 70 OFFCURVE",
"379 0 CURVE"
);
},
{
closed = 1;
nodes = (
"782 0 LINE",
"790 144 LINE",
"716 144 LINE",
"693 0 LINE",
"750 51 LINE",
"448 51 LINE",
"448 0 LINE"
);
},
{
closed = 1;
nodes = (
"732 492 LINE",
"674 543 LINE",
"698 397 LINE",
"772 397 LINE",
"764 543 LINE",
"448 543 LINE",
"448 492 LINE"
);
},
{
closed = 1;
nodes = (
"648 254 LINE",
"648 306 LINE",
"449 306 LINE",
"449 254 LINE"
);
},
{
closed = 1;
nodes = (
"684 188 LINE",
"684 373 LINE",
"632 373 LINE",
"618 291 LINE",
"618 276 LINE",
"632 188 LINE"
);
}
);
width = 824;
}
);
rightKerningGroup = LAT_E.sc;
},
{
color = 0;
export = 0;
glyphname = B.sc;
lastChange = "2019-06-06 16:52:29 +0000";
layers = (
{
anchors = (
{
name = aboveUC;
position = "{293, 566}";
},
{
name = belowLC;
position = "{321, -18}";
}
);
layerId = "A9E1993B-555C-4280-8E93-805D459F1135";
paths = (
{
closed = 1;
nodes = (
"121 169 OFFCURVE",
"121 83 OFFCURVE",
"118 0 CURVE",
"255 0 LINE",
"252 85 OFFCURVE",
"252 171 OFFCURVE",
"252 259 CURVE SMOOTH",
"252 286 LINE SMOOTH",
"252 372 OFFCURVE",
"252 459 OFFCURVE",
"255 543 CURVE",
"118 543 LINE",
"121 457 OFFCURVE",
"121 370 OFFCURVE",
"121 285 CURVE SMOOTH",
"121 255 LINE SMOOTH"
);
},
{
closed = 1;
nodes = (
"187 483 LINE",
"187 543 LINE",
"48 543 LINE",
"48 496 LINE",
"175 483 LINE"
);
},
{
closed = 1;
nodes = (
"48 47 LINE",
"48 0 LINE",
"187 0 LINE",
"187 60 LINE",
"175 60 LINE"
);
},
{
closed = 1;
nodes = (
"287 258 LINE SMOOTH",
"386 258 OFFCURVE",
"431 225 OFFCURVE",
"431 153 CURVE SMOOTH",
"431 86 OFFCURVE",
"381 51 OFFCURVE",
"287 51 CURVE SMOOTH",
"187 51 LINE",
"187 0 LINE",
"301 0 LINE SMOOTH",
"510 0 OFFCURVE",
"569 82 OFFCURVE",
"569 152 CURVE SMOOTH",
"569 227 OFFCURVE",
"509 280 OFFCURVE",
"359 290 CURVE",
"360 283 LINE",
"494 298 OFFCURVE",
"536 351 OFFCURVE",
"536 413 CURVE SMOOTH",
"536 488 OFFCURVE",
"473 543 OFFCURVE",
"331 543 CURVE SMOOTH",
"187 543 LINE",
"187 492 LINE",
"294 492 LINE SMOOTH",
"369 492 OFFCURVE",
"406 468 OFFCURVE",
"406 402 CURVE SMOOTH",
"406 335 OFFCURVE",
"369 306 OFFCURVE",
"283 306 CURVE SMOOTH",
"187 306 LINE",
"187 258 LINE"
);
}
);
width = 608.9462;
}
);
leftKerningGroup = LAT_E.sc;
},
{
color = 0;
export = 0;
glyphname = C.sc;
lastChange = "2019-06-06 16:52:29 +0000";
layers = (
{
anchors = (
{
name = aboveUC;
position = "{350, 566}";
},
{
name = baseLC;
position = "{355, 0}";
},
{
name = belowLC;
position = "{354, -18}";
}
);
layerId = "A9E1993B-555C-4280-8E93-805D459F1135";
paths = (
{
closed = 1;
nodes = (
"274 37 OFFCURVE",
"193 110 OFFCURVE",
"193 271 CURVE SMOOTH",
"193 434 OFFCURVE",
"281 506 OFFCURVE",
"380 506 CURVE SMOOTH",
"420 506 OFFCURVE",
"461 491 OFFCURVE",
"507 448 CURVE",
"507 505 LINE",
"448 516 LINE",
"473 394 LINE",
"543 394 LINE",
"538 518 LINE",
"481 547 OFFCURVE",
"421 558 OFFCURVE",
"361 558 CURVE SMOOTH",
"191 558 OFFCURVE",
"49 455 OFFCURVE",
"49 272 CURVE SMOOTH",
"49 89 OFFCURVE",
"182 -14 OFFCURVE",
"357 -14 CURVE SMOOTH",
"430 -14 OFFCURVE",
"495 1 OFFCURVE",
"545 25 CURVE",
"550 149 LINE",
"480 149 LINE",
"457 27 LINE",
"516 38 LINE",
"516 90 LINE",
"471 55 OFFCURVE",
"420 37 OFFCURVE",
"374 37 CURVE SMOOTH"
);
}
);
width = 587.99051;
}
);
leftKerningGroup = LAT_O.sc;
rightKerningGroup = LAT_C.sc;
},
{
color = 0;
export = 0;
glyphname = D.sc;
lastChange = "2019-06-06 16:52:29 +0000";
layers = (
{
anchors = (
{
name = aboveUC;
position = "{307, 566}";
},
{
name = belowLC;
position = "{309, -18}";
}
);
layerId = "A9E1993B-555C-4280-8E93-805D459F1135";
paths = (
{
closed = 1;
nodes = (
"121 169 OFFCURVE",
"121 83 OFFCURVE",
"118 0 CURVE",
"257 0 LINE",
"254 85 OFFCURVE",
"254 171 OFFCURVE",
"254 258 CURVE SMOOTH",
"254 290 LINE SMOOTH",
"254 375 OFFCURVE",
"254 460 OFFCURVE",
"257 543 CURVE",
"118 543 LINE",
"121 458 OFFCURVE",
"121 373 OFFCURVE",
"121 290 CURVE SMOOTH",
"121 258 LINE SMOOTH"
);
},
{
closed = 1;
nodes = (
"187 483 LINE",
"187 543 LINE",
"48 543 LINE",
"48 496 LINE",
"175 483 LINE"
);
},
{
closed = 1;
nodes = (
"48 47 LINE",
"48 0 LINE",
"187 0 LINE",
"187 60 LINE",
"175 60 LINE"
);
},
{
closed = 1;
nodes = (
"299.003 0 LINE SMOOTH",
"485 0 OFFCURVE",
"616 96 OFFCURVE",
"616 272 CURVE SMOOTH",
"616 443 OFFCURVE",
"499 543 OFFCURVE",
"316 543 CURVE SMOOTH",
"187 543 LINE",
"187 492 LINE",
"301 492 LINE SMOOTH",
"408 492 OFFCURVE",
"474 415 OFFCURVE",
"474 272 CURVE SMOOTH",
"474 130 OFFCURVE",
"408 51 OFFCURVE",
"298 51 CURVE SMOOTH",
"187 51 LINE",
"187 0 LINE"
);
}
);
width = 665.47627;
}
);
leftKerningGroup = LAT_E.sc;
rightKerningGroup = LAT_D.sc;
},
{
color = 0;
export = 0;
glyphname = Eth.sc;
lastChange = "2019-06-06 16:52:29 +0000";
layers = (
{
components = (
{
alignment = -1;
name = D.sc;
}
);
layerId = "A9E1993B-555C-4280-8E93-805D459F1135";
paths = (
{
closed = 1;
nodes = (
"365 304 LINE",
"47 304 LINE",
"47 253 LINE",
"365 253 LINE"
);
}
);
width = 665.47627;
}
);
leftKerningGroup = LAT_E.sc;
rightKerningGroup = LAT_D.sc;
},
{
color = 0;
export = 0;
glyphname = E.sc;
lastChange = "2019-06-06 16:52:29 +0000";
layers = (
{
anchors = (
{
name = aboveUC;
position = "{302, 566}";
},
{
name = belowLC;
position = "{319, -18}";
},
{
name = ogonek;
position = "{435, 0}";
}
);
layerId = "A9E1993B-555C-4280-8E93-805D459F1135";
paths = (
{
closed = 1;
nodes = (
"187 483 LINE",
"187 543 LINE",
"48 543 LINE",
"48 496 LINE",
"175 483 LINE"
);
},
{
closed = 1;
nodes = (
"48 47 LINE",
"48 0 LINE",
"187 0 LINE",
"187 60 LINE",
"175 60 LINE"
);
},
{
closed = 1;
nodes = (
"121 169 OFFCURVE",
"121 83 OFFCURVE",
"118 0 CURVE",
"257 0 LINE",
"254 85 OFFCURVE",
"254 171 OFFCURVE",
"254 258 CURVE SMOOTH",
"254 291 LINE SMOOTH",
"254 375 OFFCURVE",
"254 460 OFFCURVE",
"257 543 CURVE",
"118 543 LINE",
"121 458 OFFCURVE",
"121 373 OFFCURVE",
"121 288 CURVE SMOOTH",
"121 255 LINE SMOOTH"
);
},
{
closed = 1;
nodes = (
"371 188 LINE",
"422 188 LINE",
"422 373 LINE",
"371 373 LINE",
"357 291 LINE",
"357 276 LINE"
);
},
{
closed = 1;
nodes = (
"187 306 LINE",
"187 254 LINE",
"387 254 LINE",
"387 306 LINE"
);
},
{
closed = 1;
nodes = (
"511 397 LINE",
"503 543 LINE",
"187 543 LINE",
"187 492 LINE",
"422 492 LINE",
"437 397 LINE"
);
},
{
closed = 1;
nodes = (
"440 51 LINE",
"187 51 LINE",
"187 0 LINE",
"522 0 LINE",
"529 144 LINE",
"455 144 LINE"
);
}
);
width = 562.99367;
}
);
leftKerningGroup = LAT_E.sc;
rightKerningGroup = LAT_E.sc;
},
{
color = 0;
export = 0;
glyphname = F.sc;
lastChange = "2019-06-06 16:52:29 +0000";
layers = (
{
anchors = (
{
name = aboveUC;
position = "{306, 566}";
},
{
name = belowLC;
position = "{192, -18}";
}
);
layerId = "A9E1993B-555C-4280-8E93-805D459F1135";
paths = (
{
closed = 1;
nodes = (
"48 47 LINE",
"48 0 LINE",
"335 0 LINE",
"335 47 LINE",
"209 60 LINE",
"175 60 LINE"
);
},
{
closed = 1;
nodes = (
"121 169 OFFCURVE",
"121 83 OFFCURVE",
"118 0 CURVE",
"257 0 LINE",
"254 85 OFFCURVE",
"254 171 OFFCURVE",
"254 258 CURVE SMOOTH",
"254 291 LINE SMOOTH",
"254 375 OFFCURVE",
"254 460 OFFCURVE",
"257 543 CURVE",
"118 543 LINE",
"121 458 OFFCURVE",
"121 373 OFFCURVE",
"121 288 CURVE SMOOTH",
"121 255 LINE SMOOTH"
);
},
{
closed = 1;
nodes = (
"187 483 LINE",
"187 543 LINE",
"48 543 LINE",
"48 496 LINE",
"175 483 LINE"
);
},
{
closed = 1;
nodes = (
"375 178 LINE",
"428 178 LINE",
"428 373 LINE",
"375 373 LINE",
"361 291 LINE",
"361 266 LINE"
);
},
{
closed = 1;
nodes = (
"187 306 LINE",
"187 254 LINE",
"391 254 LINE",
"391 306 LINE"
);
},
{
closed = 1;
nodes = (
"515 397 LINE",
"507 543 LINE",
"187 543 LINE",
"187 492 LINE",
"425 492 LINE",
"441 397 LINE"
);
}
);
width = 545.97152;
}
);
leftKerningGroup = LAT_E.sc;
},
{
color = 0;
export = 0;
glyphname = G.sc;
lastChange = "2019-06-06 16:52:29 +0000";
layers = (
{
anchors = (
{
name = aboveUC;
position = "{352, 566}";
},
{
name = belowLC;
position = "{371, -18}";
}
);
layerId = "A9E1993B-555C-4280-8E93-805D459F1135";
paths = (
{
closed = 1;
nodes = (
"504 206 LINE",
"609 218 LINE",
"609 264 LINE",
"346 264 LINE",
"346 218 LINE",
"458 206 LINE"
);
},
{
closed = 1;
nodes = (
"559 132 OFFCURVE",
"560 198 OFFCURVE",
"562 264 CURVE",
"429 264 LINE",
"430 198 OFFCURVE",
"431 135 OFFCURVE",
"431 69 CURVE SMOOTH",
"431 11 LINE",
"497 69 LINE",
"452.006 47.997 OFFCURVE",
"425 38 OFFCURVE",
"383 38 CURVE SMOOTH",
"272 38 OFFCURVE",
"193 113 OFFCURVE",
"193 273 CURVE SMOOTH",
"193 430 OFFCURVE",
"278 506 OFFCURVE",
"380 506 CURVE SMOOTH",
"423 506 OFFCURVE",
"466 492 OFFCURVE",
"512 455 CURVE",
"512 507 LINE",
"451 519 LINE",
"476 396 LINE",
"546 396 LINE",
"541 521 LINE",
"489 547 OFFCURVE",
"428 558 OFFCURVE",
"365 558 CURVE SMOOTH",
"166 558 OFFCURVE",
"49 441 OFFCURVE",
"49 273 CURVE SMOOTH",
"49 99 OFFCURVE",
"174 -14 OFFCURVE",
"356 -14 CURVE SMOOTH",
"435 -14 OFFCURVE",
"497 3 OFFCURVE",
"559 33 CURVE",
"559 67 LINE SMOOTH"
);
}
);
width = 629.4731;
}
);
leftKerningGroup = LAT_O.sc;
rightKerningGroup = LAT_G.sc;
},
{
color = 0;
export = 0;
glyphname = H.sc;
lastChange = "2019-06-06 16:52:29 +0000";
layers = (
{
anchors = (
{
name = aboveUC;
position = "{362, 566}";
},
{
name = belowLC;
position = "{362.003, -18}";
}
);
layerId = "A9E1993B-555C-4280-8E93-805D459F1135";
paths = (
{
closed = 1;
nodes = (
"551 483 LINE",
"676 496 LINE",
"676 543 LINE",
"402 543 LINE",
"402 496 LINE",
"527 483 LINE"
);
},
{
closed = 1;
nodes = (
"402 47 LINE",
"402 0 LINE",
"676 0 LINE",
"676 47 LINE",
"551 60 LINE",
"527 60 LINE"
);
},
{
closed = 1;
nodes = (
"471 169 OFFCURVE",
"471 83 OFFCURVE",
"469 0 CURVE",
"607 0 LINE",
"604 85 OFFCURVE",
"604 171 OFFCURVE",
"604 255 CURVE SMOOTH",
"604 288 LINE SMOOTH",
"604 375 OFFCURVE",
"604 460 OFFCURVE",
"607 543 CURVE",
"469 543 LINE",
"471 458 OFFCURVE",
"471 373 OFFCURVE",
"471 288 CURVE SMOOTH",
"471 261 LINE SMOOTH"
);
},
{
closed = 1;
nodes = (
"120 169 OFFCURVE",
"120 83 OFFCURVE",
"117 0 CURVE",
"256 0 LINE",
"253 85 OFFCURVE",
"253 171 OFFCURVE",
"253 261 CURVE SMOOTH",
"253 288 LINE SMOOTH",
"253 375 OFFCURVE",
"253 460 OFFCURVE",
"256 543 CURVE",
"117 543 LINE",
"120 458 OFFCURVE",
"120 373 OFFCURVE",
"120 288 CURVE SMOOTH",
"120 255 LINE SMOOTH"
);
},
{
closed = 1;
nodes = (
"195 483 LINE",
"323 496 LINE",
"323 543 LINE",
"48 543 LINE",
"48 496 LINE",
"172 483 LINE"
);
},
{
closed = 1;
nodes = (
"48 47 LINE",
"48 0 LINE",
"323 0 LINE",
"323 47 LINE",
"195 60 LINE",
"172 60 LINE"
);
},
{
closed = 1;
nodes = (
"538 303 LINE",
"186 303 LINE",
"186 253 LINE",
"538 253 LINE"
);
}
);
width = 724.00633;
}
);
leftKerningGroup = LAT_E.sc;
rightKerningGroup = LAT_H.sc;
},
{
color = 0;
export = 0;
glyphname = Hbar.sc;
lastChange = "2019-06-06 16:52:29 +0000";
layers = (
{
layerId = "A9E1993B-555C-4280-8E93-805D459F1135";
paths = (
{
closed = 1;
nodes = (
"544 483 LINE",
"670 496 LINE",
"670 543 LINE",
"395 543 LINE",
"395 496 LINE",
"521 483 LINE"
);
},
{
closed = 1;
nodes = (
"395 47 LINE",
"395 0 LINE",
"670 0 LINE",
"670 47 LINE",
"544 60 LINE",
"521 60 LINE"
);
},
{
closed = 1;
nodes = (
"464 169 OFFCURVE",
"464 83 OFFCURVE",
"462 0 CURVE",
"600 0 LINE",
"597 85 OFFCURVE",
"597 171 OFFCURVE",
"597 255 CURVE SMOOTH",
"597 288 LINE SMOOTH",
"597 375 OFFCURVE",
"597 460 OFFCURVE",
"600 543 CURVE",
"462 543 LINE",
"464 458 OFFCURVE",
"464 373 OFFCURVE",
"464 288 CURVE SMOOTH",
"464 261 LINE SMOOTH"
);
},
{
closed = 1;
nodes = (
"115 169 OFFCURVE",
"115 83 OFFCURVE",
"112 0 CURVE",
"251 0 LINE",
"248 85 OFFCURVE",
"248 171 OFFCURVE",
"248 261 CURVE SMOOTH",
"248 288 LINE SMOOTH",
"248 375 OFFCURVE",
"248 460 OFFCURVE",
"251 543 CURVE",
"112 543 LINE",
"115 458 OFFCURVE",
"115 373 OFFCURVE",
"115 288 CURVE SMOOTH",
"115 255 LINE SMOOTH"
);
},
{
closed = 1;
nodes = (
"190 483 LINE",
"318 496 LINE",
"318 543 LINE",
"43 543 LINE",
"43 496 LINE",
"166 483 LINE"
);
},
{
closed = 1;
nodes = (
"43 47 LINE",
"43 0 LINE",
"318 0 LINE",
"318 47 LINE",
"190 60 LINE",
"166 60 LINE"
);
},
{
closed = 1;
nodes = (
"531 281 LINE",
"184 281 LINE",
"184 229 LINE",
"531 229 LINE"
);
},
{
closed = 1;
nodes = (
"680 362 LINE",
"680 414 LINE",
"32 414 LINE",
"32 362 LINE"
);
}
);
width = 712.50475;
}
);
leftKerningGroup = LAT_E.sc;
rightKerningGroup = LAT_H.sc;
},
{
color = 0;
export = 0;
glyphname = I.sc;
lastChange = "2019-06-06 16:52:29 +0000";
layers = (
{
anchors = (
{
name = aboveUC;
position = "{187, 566}";
},
{
name = belowLC;
position = "{187, -18}";
},
{
name = ogonek;
position = "{228, 0}";
}
);
layerId = "A9E1993B-555C-4280-8E93-805D459F1135";
paths = (
{
closed = 1;
nodes = (
"48 47 LINE",
"48 0 LINE",
"327 0 LINE",
"327 47 LINE",
"199 60 LINE",
"175 60 LINE"
);
},
{
closed = 1;
nodes = (
"199 483 LINE",
"327 496 LINE",
"327 543 LINE",
"48 543 LINE",
"48 496 LINE",
"175 483 LINE"
);
},
{
closed = 1;
nodes = (
"121 169 OFFCURVE",
"121 83 OFFCURVE",
"118 0 CURVE",
"257 0 LINE",
"254 85 OFFCURVE",
"254 171 OFFCURVE",
"254 255 CURVE SMOOTH",
"254 288 LINE SMOOTH",
"254 375 OFFCURVE",
"254 460 OFFCURVE",
"257 543 CURVE",
"118 543 LINE",
"121 458 OFFCURVE",
"121 373 OFFCURVE",
"121 288 CURVE SMOOTH",
"121 255 LINE SMOOTH"
);
}
);
width = 375.45728;
}
);
leftKerningGroup = LAT_E.sc;
rightKerningGroup = LAT_H.sc;
},
{
color = 0;
export = 0;
glyphname = J.sc;
lastChange = "2019-06-06 16:52:29 +0000";
layers = (
{
anchors = (
{
name = aboveUC;
position = "{191, 566}";
},
{
name = belowLC;
position = "{107, -137}";
}
);
layerId = "A9E1993B-555C-4280-8E93-805D459F1135";
paths = (
{
closed = 1;
nodes = (
"129 222 OFFCURVE",
"133 83 OFFCURVE",
"133 8 CURVE SMOOTH",
"133 -37 OFFCURVE",
"130 -72 OFFCURVE",
"109 -98 CURVE",
"110 -107 LINE",
"117 -106 LINE",
"125 -102 LINE",
"95 -72 LINE SMOOTH",
"67 -46 OFFCURVE",
"44 -33 OFFCURVE",
"15 -33 CURVE SMOOTH",
"-22 -33 OFFCURVE",
"-50 -52 OFFCURVE",
"-53 -90 CURVE",
"-36 -127 OFFCURVE",
"3 -141 OFFCURVE",
"47 -141 CURVE SMOOTH",
"126 -141 OFFCURVE",
"199 -107 OFFCURVE",
"229 -37 CURVE SMOOTH",
"252 16 OFFCURVE",
"261 82 OFFCURVE",
"261 194 CURVE SMOOTH",
"261 294 LINE SMOOTH",
"261 378 OFFCURVE",
"261 462 OFFCURVE",
"263 543 CURVE",
"125 543 LINE"
);
},
{
closed = 1;
nodes = (
"175 483 LINE",
"204 483 LINE",
"334 496 LINE",
"334 543 LINE",
"46 543 LINE",
"46 496 LINE"
);
}
);
width = 374.45095;
}
);
leftKerningGroup = LAT_J.sc;
rightKerningGroup = LAT_J.sc;
},
{
color = 0;
export = 0;
glyphname = K.sc;
lastChange = "2019-06-06 16:52:29 +0000";
layers = (
{
anchors = (
{
name = aboveUC;
position = "{340, 566}";
},
{
name = belowLC;
position = "{346, -18}";
}
);
layerId = "A9E1993B-555C-4280-8E93-805D459F1135";
paths = (
{
closed = 1;
nodes = (
"121 169 OFFCURVE",
"121 83 OFFCURVE",
"118 0 CURVE",
"251 0 LINE",
"248 85 OFFCURVE",
"248 174 OFFCURVE",
"248 252 CURVE SMOOTH",
"248 288 LINE SMOOTH",
"248 375 OFFCURVE",
"248 460 OFFCURVE",
"251 543 CURVE",
"118 543 LINE",
"121 458 OFFCURVE",
"121 373 OFFCURVE",
"121 288 CURVE SMOOTH",
"121 255 LINE SMOOTH"
);
},
{
closed = 1;
nodes = (
"48 47 LINE",
"48 0 LINE",
"316 0 LINE",
"316 47 LINE",
"199 60 LINE",
"175 60 LINE"
);
},
{
closed = 1;
nodes = (
"199 483 LINE",
"323 496 LINE",
"323 543 LINE",
"48 543 LINE",
"48 496 LINE",
"175 483 LINE"
);
},
{
closed = 1;
nodes = (
"497 483 LINE",
"603 496 LINE",
"603 543 LINE",
"396 543 LINE",
"396 496 LINE",
"473 480 LINE"
);
},
{
closed = 1;
nodes = (
"451 0 LINE",
"595 0 LINE",
"378 373 LINE",
"297 282 LINE"
);
},
{
closed = 1;
nodes = (
"569 543 LINE",
"500 543 LINE",
"185 189 LINE",
"185 125 LINE"
);
},
{
closed = 1;
nodes = (
"623 0 LINE",
"623 47 LINE",
"508 60 LINE",
"490 60 LINE",
"373 47 LINE",
"373 0 LINE"
);
}
);
width = 634.89557;
}
);
leftKerningGroup = LAT_E.sc;
rightKerningGroup = LAT_K.sc;
},
{
color = 0;
export = 0;
glyphname = L.sc;
lastChange = "2019-06-06 16:52:29 +0000";
layers = (
{
anchors = (
{
name = aboveUC;
position = "{194, 566}";
},
{
name = belowLC;
position = "{299, -18}";
}
);
layerId = "A9E1993B-555C-4280-8E93-805D459F1135";
paths = (
{
closed = 1;
nodes = (
"48 47 LINE",
"48 0 LINE",
"187 0 LINE",
"187 60 LINE",
"174 60 LINE"
);
},
{
closed = 1;
nodes = (
"203 483 LINE",
"331 496 LINE",
"331 543 LINE",
"48 543 LINE",
"48 496 LINE",
"175 483 LINE"
);
},
{
closed = 1;
nodes = (
"121 255 LINE SMOOTH",
"121 170 OFFCURVE",
"121 84 OFFCURVE",
"118 0 CURVE",
"257 0 LINE",
"254 84 OFFCURVE",
"254 169 OFFCURVE",
"254 237 CURVE SMOOTH",
"254 288 LINE SMOOTH",
"254 374 OFFCURVE",
"254 459 OFFCURVE",
"257 543 CURVE",
"118 543 LINE",
"121 459 OFFCURVE",
"121 374 OFFCURVE",
"121 288 CURVE SMOOTH"
);
},
{
closed = 1;
nodes = (
"423 52 LINE",
"187 52 LINE",
"187 0 LINE",
"508 0 LINE",
"519 161 LINE",
"445.997 161.003 LINE"
);
}
);
width = 555.53323;
}
);
leftKerningGroup = LAT_E.sc;
rightKerningGroup = LAT_L.sc;
},
{
color = 0;
export = 0;
glyphname = Lcaron.sc;
lastChange = "2019-06-06 16:52:29 +0000";
layers = (
{
components = (
{
alignment = -1;
name = L.sc;
}
);
layerId = "A9E1993B-555C-4280-8E93-805D459F1135";
paths = (
{
closed = 1;
nodes = (
"498 626 OFFCURVE",
"482 621 OFFCURVE",
"463 611 CURVE",
"459 406 LINE",
"501 406 LINE",
"527 465 LINE SMOOTH",
"545 508 OFFCURVE",
"559 553 OFFCURVE",
"559 582 CURVE SMOOTH",
"559 608 OFFCURVE",
"549 626 OFFCURVE",
"516 626 CURVE SMOOTH"
);
}
);
width = 555.53323;
}
);
leftKerningGroup = LAT_E.sc;
rightKerningGroup = LAT_L.sc;
},
{
color = 0;
export = 0;
glyphname = Lslash.sc;
lastChange = "2019-06-06 16:52:29 +0000";
layers = (
{
components = (
{
alignment = -1;
name = L.sc;
}
);
layerId = "A9E1993B-555C-4280-8E93-805D459F1135";
paths = (
{
closed = 1;
nodes = (
"205 298 LINE",
"205 229 LINE",
"378 316 LINE",
"378 385 LINE"
);
},
{
closed = 1;
nodes = (
"51 227 LINE",
"51 158 LINE",
"187 226 LINE",
"187 295 LINE"
);
}
);
width = 555.53323;
}
);
leftKerningGroup = LAT_E.sc;
rightKerningGroup = LAT_L.sc;
},
{
color = 0;
export = 0;
glyphname = M.sc;
lastChange = "2019-06-06 16:52:29 +0000";
layers = (
{
anchors = (
{
name = aboveUC;
position = "{410, 561}";
},
{
name = belowLC;
position = "{381, -18}";
}
);
layerId = "A9E1993B-555C-4280-8E93-805D459F1135";
paths = (
{
closed = 1;
nodes = (
"247 0 LINE",
"247 47 LINE",
"162 60 LINE",
"137 60 LINE",
"34 47 LINE",
"34 0 LINE"
);
},
{
closed = 1;
nodes = (
"156 483 LINE",
"170 483 LINE",
"169 543 LINE",
"40 543 LINE",
"40 496 LINE"
);
},
{
closed = 1;
nodes = (
"178 0 LINE",
"178 273 LINE",
"169 543 LINE",
"118 543 LINE",
"118 0 LINE"
);
},
{
closed = 1;
nodes = (
"416.997 0 LINE",
"629 543 LINE",
"567 543 LINE",
"401 117 LINE",
"434 117 LINE",
"257 543 LINE",
"122 543 LINE",
"349 0 LINE"
);
},
{
closed = 1;
nodes = (
"785 0 LINE",
"785 47 LINE",
"658 60 LINE",
"621 60 LINE",
"511 47 LINE",
"511 0 LINE"
);
},
{
closed = 1;
nodes = (
"714 0 LINE",
"712 84 OFFCURVE",
"712 170 OFFCURVE",
"712 255 CURVE SMOOTH",
"712 288 LINE SMOOTH",
"712 374 OFFCURVE",
"712 459 OFFCURVE",
"714 543 CURVE",
"582 543 LINE",
"580 245 LINE SMOOTH",
"580 169 OFFCURVE",
"580 84 OFFCURVE",
"577 0 CURVE"
);
},
{
closed = 1;
nodes = (
"658 483 LINE",
"782 496 LINE",
"782 543 LINE",
"645 543 LINE",
"645 483 LINE"
);
}
);
width = 831.97152;
}
);
leftKerningGroup = LAT_M.sc;
rightKerningGroup = LAT_H.sc;
},
{
color = 0;
export = 0;
glyphname = N.sc;
lastChange = "2019-06-06 16:52:29 +0000";
layers = (
{
anchors = (
{
name = aboveUC;
position = "{337, 566}";
},
{
name = belowLC;
position = "{353, -18}";
}
);
layerId = "A9E1993B-555C-4280-8E93-805D459F1135";
paths = (
{
closed = 1;
nodes = (
"278 0 LINE",
"278 47 LINE",
"166 60 LINE",
"142 60 LINE",
"45 47 LINE",
"45 0 LINE"
);
},
{
closed = 1;
nodes = (
"564 -3 LINE",
"564 129 LINE",
"229 543 LINE",
"46 543 LINE",
"46 496 LINE",
"146 487 LINE",
"92 512 LINE",
"502 -3 LINE"
);
},
{
closed = 1;
nodes = (
"178 0 LINE",
"180 520 LINE",
"120 520 LINE",
"120 0 LINE"
);
},
{
closed = 1;
nodes = (
"524 483 LINE",
"547 483 LINE",
"640 496 LINE",
"640 543 LINE",
"406 543 LINE",
"406 496 LINE"
);
},
{
closed = 1;
nodes = (
"564 -3 LINE",
"564 543 LINE",
"506 543 LINE",
"503 53 LINE"
);
}
);
width = 682.97785;
}
);
leftKerningGroup = LAT_M.sc;
rightKerningGroup = LAT_N.sc;
},
{
color = 0;
export = 0;
glyphname = O.sc;
lastChange = "2019-06-06 16:52:29 +0000";
layers = (
{
anchors = (
{
name = aboveUC;
position = "{331, 566}";
},
{
name = belowLC;
position = "{331, -18}";
},
{
name = hornLC;
position = "{462, 542}";
},
{
name = ogonek;
position = "{412, 0}";
}
);
layerId = "A9E1993B-555C-4280-8E93-805D459F1135";
paths = (
{
closed = 1;
nodes = (
"194 397 OFFCURVE",
"232 506 OFFCURVE",
"332 506 CURVE SMOOTH",
"432 506 OFFCURVE",
"470 397 OFFCURVE",
"470 272 CURVE SMOOTH",
"470 146 OFFCURVE",
"432 38 OFFCURVE",
"331.991 37.994 CURVE SMOOTH",
"232 38 OFFCURVE",
"194 146 OFFCURVE",
"194 272 CURVE SMOOTH"
);
},
{
closed = 1;
nodes = (
"189 558 OFFCURVE",
"49 459 OFFCURVE",
"49 272 CURVE SMOOTH",
"49 79 OFFCURVE",
"188 -14 OFFCURVE",
"332 -14 CURVE SMOOTH",
"476 -14 OFFCURVE",
"614 84 OFFCURVE",
"614 272 CURVE SMOOTH",
"614 465 OFFCURVE",
"475 558 OFFCURVE",
"332 558 CURVE SMOOTH"
);
}
);
width = 663.47943;
}
);
leftKerningGroup = LAT_O.sc;
rightKerningGroup = LAT_O.sc;
},
{
color = 0;
export = 0;
glyphname = Oslash.sc;
lastChange = "2019-06-06 16:52:29 +0000";
layers = (
{
anchors = (
{
name = aboveUC;
position = "{321, 566}";
}
);
components = (
{
alignment = -1;
name = O.sc;
}
);
layerId = "A9E1993B-555C-4280-8E93-805D459F1135";
paths = (
{
closed = 1;
nodes = (
"551 567 LINE",
"61 15 LINE",
"112 -25 LINE",
"603 528 LINE"
);
}
);
width = 663.47943;
}
);
leftKerningGroup = LAT_O.sc;
rightKerningGroup = LAT_O.sc;
},
{
color = 0;
export = 0;
glyphname = OE.sc;
lastChange = "2019-06-06 16:52:29 +0000";
layers = (
{
anchors = (
{
name = aboveUC;
position = "{478, 566}";
}
);
layerId = "A9E1993B-555C-4280-8E93-805D459F1135";
paths = (
{
closed = 1;
nodes = (
"193 403 OFFCURVE",
"249 506 OFFCURVE",
"373 506 CURVE SMOOTH",
"414 506 OFFCURVE",
"446 500 OFFCURVE",
"485 480 CURVE",
"485 543 LINE",
"443 553 OFFCURVE",
"401 558 OFFCURVE",
"364 558 CURVE SMOOTH",
"194 558 OFFCURVE",
"49 464 OFFCURVE",
"49 272 CURVE SMOOTH",
"49 79 OFFCURVE",
"194 -14 OFFCURVE",
"364 -14 CURVE SMOOTH",
"403 -14 OFFCURVE",
"445 -8 OFFCURVE",
"485 0 CURVE",
"485 63 LINE",
"446 43 OFFCURVE",
"415 37 OFFCURVE",
"372 37 CURVE SMOOTH",
"249 37 OFFCURVE",
"193 140 OFFCURVE",
"193 272 CURVE SMOOTH"
);
},
{
closed = 1;
nodes = (
"423 169 OFFCURVE",
"423 83 OFFCURVE",
"421 0 CURVE",
"559 0 LINE",
"557 85 OFFCURVE",
"557 171 OFFCURVE",
"557 258 CURVE SMOOTH",
"557 291 LINE SMOOTH",
"557 375 OFFCURVE",
"557 460 OFFCURVE",
"559 543 CURVE",
"421 543 LINE",
"423 458 OFFCURVE",
"423 373 OFFCURVE",
"423 288 CURVE SMOOTH",
"423 255 LINE SMOOTH"
);
},
{
closed = 1;
nodes = (
"673 188 LINE",
"724 188 LINE",
"724 373 LINE",
"673 373 LINE",
"659 291 LINE",
"659 276 LINE"
);
},
{
closed = 1;
nodes = (
"492 306 LINE",
"492 254 LINE",
"689 254 LINE",
"689 306 LINE"
);
},
{
closed = 1;
nodes = (
"814 397 LINE",
"805 543 LINE",
"492 543 LINE",
"492 492 LINE",
"724 492 LINE",
"739 397 LINE"
);
},
{
closed = 1;
nodes = (
"741.991 50.994 LINE",
"492 51 LINE",
"492 0 LINE",
"824 0 LINE",
"832 144 LINE",
"758 144 LINE"
);
}
);
width = 865.4731;
}
);
leftKerningGroup = LAT_O.sc;
rightKerningGroup = LAT_E.sc;
},
{
color = 0;
export = 0;
glyphname = P.sc;
lastChange = "2019-06-06 16:52:29 +0000";
layers = (
{
anchors = (
{
name = aboveUC;
position = "{282, 566}";
},
{
name = belowLC;
position = "{190, -18}";
}
);
layerId = "A9E1993B-555C-4280-8E93-805D459F1135";
paths = (
{
closed = 1;
nodes = (
"187 483 LINE",
"187 543 LINE",
"48 543 LINE",
"48 496 LINE",
"175 483 LINE"
);
},
{
closed = 1;
nodes = (
"48 47 LINE",
"48 0 LINE",
"335 0 LINE",
"335 47 LINE",
"209 60 LINE",
"175 60 LINE"
);
},
{
closed = 1;
nodes = (
"121 169 OFFCURVE",
"121 83 OFFCURVE",
"118 0 CURVE",
"257 0 LINE",
"254 85 OFFCURVE",
"254 165 OFFCURVE",
"254 239 CURVE SMOOTH",
"254 288 LINE SMOOTH",
"254 375 OFFCURVE",
"254 460 OFFCURVE",
"257 543 CURVE",
"118 543 LINE",
"121 458 OFFCURVE",
"121 373 OFFCURVE",
"121 288 CURVE SMOOTH",
"121 255 LINE SMOOTH"
);
},
{
closed = 1;
nodes = (
"544 476 OFFCURVE",
"468 543 OFFCURVE",
"292 543 CURVE SMOOTH",
"187 543 LINE",
"187 492 LINE",
"284 492 LINE SMOOTH",
"371 492 OFFCURVE",
"416 453 OFFCURVE",
"416 380 CURVE SMOOTH",
"416 306 OFFCURVE",
"377 257 OFFCURVE",
"292 257 CURVE SMOOTH",
"187 257 LINE",
"187 207 LINE",
"285 207 LINE SMOOTH",
"478 207 OFFCURVE",
"544 286 OFFCURVE",
"544 379 CURVE SMOOTH"
);
}
);
width = 565.92089;
}
);
leftKerningGroup = LAT_E.sc;
},
{
color = 0;
export = 0;
glyphname = Thorn.sc;
lastChange = "2019-06-06 16:52:29 +0000";
layers = (
{
layerId = "A9E1993B-555C-4280-8E93-805D459F1135";
paths = (
{
closed = 1;
nodes = (
"202 483 LINE",
"331 496 LINE",
"331 543 LINE",
"48 543 LINE",
"48 496 LINE",
"172 483 LINE"
);
},
{
closed = 1;
nodes = (
"48 47 LINE",
"48 0 LINE",
"331 0 LINE",
"331 47 LINE",
"209 60 LINE",
"175 60 LINE"
);
},
{
closed = 1;
nodes = (
"121 169 OFFCURVE",
"121 83 OFFCURVE",
"118 0 CURVE",
"255 0 LINE",
"252 84 OFFCURVE",
"252 173 OFFCURVE",
"252 255 CURVE SMOOTH",
"252 289 LINE SMOOTH",
"252 375 OFFCURVE",
"252 460 OFFCURVE",
"255 543 CURVE",
"118 543 LINE",
"121 458 OFFCURVE",
"121 373 OFFCURVE",
"121 288 CURVE SMOOTH",
"121 255 LINE SMOOTH"
);
},
{
closed = 1;
nodes = (
"555 379 OFFCURVE",
"480 438 OFFCURVE",
"302 438 CURVE SMOOTH",
"189 438 LINE",
"189 388 LINE",
"294 388 LINE SMOOTH",
"384 388 OFFCURVE",
"426 350 OFFCURVE",
"426 281 CURVE SMOOTH",
"426 214 OFFCURVE",
"379 168 OFFCURVE",
"294 168 CURVE SMOOTH",
"189 168 LINE",
"189 117 LINE",
"285 117 LINE SMOOTH",
"498 117 OFFCURVE",
"555 193 OFFCURVE",
"555 282 CURVE SMOOTH"
);
}
);
width = 579.45095;
}
);
leftKerningGroup = LAT_E.sc;
},
{
color = 0;
export = 0;
glyphname = Q.sc;
lastChange = "2019-06-06 16:52:29 +0000";
layers = (
{
anchors = (
{
name = aboveUC;
position = "{321, 566}";
}
);
components = (
{
alignment = -1;
name = O.sc;
}
);
layerId = "A9E1993B-555C-4280-8E93-805D459F1135";
paths = (
{
closed = 1;
nodes = (
"504 -175 OFFCURVE",
"549 -168 OFFCURVE",
"580 -149 CURVE",
"561 -101 LINE",
"537 -108 OFFCURVE",
"511 -109 OFFCURVE",
"495 -109 CURVE SMOOTH",
"423 -109 OFFCURVE",
"381 -60 OFFCURVE",
"391 24 CURVE",
"262 34 LINE",
"262 5 LINE SMOOTH",
"262 -98 OFFCURVE",
"334 -175 OFFCURVE",
"458 -175 CURVE SMOOTH"
);
}
);
width = 663.47943;
}
);
leftKerningGroup = LAT_O.sc;
rightKerningGroup = LAT_O.sc;
},
{
color = 0;
export = 0;
glyphname = R.sc;
lastChange = "2019-06-06 16:52:29 +0000";
layers = (
{
anchors = (
{
name = aboveUC;
position = "{301, 566}";
},
{
name = belowLC;
position = "{348, -18}";
}
);
layerId = "A9E1993B-555C-4280-8E93-805D459F1135";
paths = (
{
closed = 1;
nodes = (
"48 47 LINE",
"48 0 LINE",
"327 0 LINE",
"327 47 LINE",
"200 60 LINE",
"175 60 LINE"
);
},
{
closed = 1;
nodes = (
"121 169 OFFCURVE",
"121 83 OFFCURVE",
"118 0 CURVE",
"255 0 LINE",
"252 85 OFFCURVE",
"252 171 OFFCURVE",
"252 260 CURVE SMOOTH",
"252 288 LINE SMOOTH",
"252 377 OFFCURVE",
"252 459 OFFCURVE",
"255 543 CURVE",
"118 543 LINE",
"121 458 OFFCURVE",
"121 373 OFFCURVE",
"121 288 CURVE SMOOTH",
"121 255 LINE SMOOTH"
);
},
{
closed = 1;
nodes = (
"187 483 LINE",
"187 543 LINE",
"48 543 LINE",
"48 496 LINE",
"175 483 LINE"
);
},
{
closed = 1;
nodes = (
"286 249 LINE SMOOTH",
"344 249 OFFCURVE",
"371 231 OFFCURVE",
"383 172 CURVE SMOOTH",
"404 65 LINE SMOOTH",
"414 7 OFFCURVE",
"453 -11 OFFCURVE",
"524 -11 CURVE SMOOTH",
"560 -11 OFFCURVE",
"575 -8 OFFCURVE",
"612 0 CURVE",
"612 47 LINE",
"491 61 LINE",
"552 24 LINE",
"524 146 LINE SMOOTH",
"505 233 OFFCURVE",
"467 271 OFFCURVE",
"352 275 CURVE",
"350 267 LINE",
"495 276 OFFCURVE",
"547 341 OFFCURVE",
"547 404 CURVE SMOOTH",
"547 491 OFFCURVE",
"468 543 OFFCURVE",
"327 543 CURVE SMOOTH",
"187 543 LINE",
"187 492 LINE",
"302 492 LINE SMOOTH",
"379 492 OFFCURVE",
"417 462 OFFCURVE",
"417 397 CURVE SMOOTH",
"417 343 OFFCURVE",
"386 298 OFFCURVE",
"294 298 CURVE SMOOTH",
"188 298 LINE",
"188 249 LINE"
);
}
);
width = 621.40348;
}
);
leftKerningGroup = LAT_E.sc;
rightKerningGroup = LAT_R.sc;
},
{
color = 0;
export = 0;
glyphname = S.sc;
lastChange = "2019-06-06 16:52:29 +0000";
layers = (
{
anchors = (
{
name = aboveUC;
position = "{265, 566}";
},
{
name = baseLC;
position = "{239, 0}";
},
{
name = belowLC;
position = "{242, -18}";
}
);
layerId = "A9E1993B-555C-4280-8E93-805D459F1135";
paths = (
{
closed = 1;
nodes = (
"176 38 OFFCURVE",
"140 56 OFFCURVE",
"82 87 CURVE",
"80 42 LINE",
"150 18 LINE",
"133 149 LINE",
"49 149 LINE",
"44 28 LINE",
"93 1 OFFCURVE",
"166 -14 OFFCURVE",
"234 -14 CURVE SMOOTH",
"378 -14 OFFCURVE",
"462 52 OFFCURVE",
"462 150 CURVE SMOOTH",
"462 232 OFFCURVE",
"414 279 OFFCURVE",
"300 323 CURVE SMOOTH",
"260 339 LINE SMOOTH",
"204 361 OFFCURVE",
"173 385 OFFCURVE",
"173 428 CURVE SMOOTH",
"173 475 OFFCURVE",
"217 505 OFFCURVE",
"270 505 CURVE SMOOTH",
"317 505 OFFCURVE",
"353 487 OFFCURVE",
"400 451 CURVE",
"402 498 LINE",
"330 526 LINE",
"348 402 LINE",
"430 402 LINE",
"437 515 LINE",
"395 541 OFFCURVE",
"336 558 OFFCURVE",
"273 558 CURVE SMOOTH",
"143 558 OFFCURVE",
"56 496 OFFCURVE",
"56 398 CURVE SMOOTH",
"56 306 OFFCURVE",
"119 258 OFFCURVE",
"219 218 CURVE SMOOTH",
"256 203 LINE SMOOTH",
"314 182 OFFCURVE",
"342 163 OFFCURVE",
"342 119 CURVE SMOOTH",
"342 72 OFFCURVE",
"302 38 OFFCURVE",
"235 38 CURVE SMOOTH"
);
}
);
width = 504.91139;
}
);
leftKerningGroup = LAT_S.sc;
rightKerningGroup = LAT_S.sc;
},
{
color = 0;
export = 0;
glyphname = Germandbls.sc;
lastChange = "2019-06-06 16:52:29 +0000";
layers = (
{
layerId = "A9E1993B-555C-4280-8E93-805D459F1135";
paths = (
{
closed = 1;
nodes = (
"192 0 LINE",
"192 58 LINE",
"175 58 LINE",
"48 44 LINE",
"48 0 LINE"
);
},
{
closed = 1;
nodes = (
"257 0 LINE",
"254 84 OFFCURVE",
"254 169 OFFCURVE",
"254 243 CURVE SMOOTH",
"254 343 LINE SMOOTH",
"254 458 OFFCURVE",
"285 504 OFFCURVE",
"399 504 CURVE SMOOTH",
"453 504 OFFCURVE",
"488 498 OFFCURVE",
"539 490 CURVE",
"539 515 LINE",
"435 494 OFFCURVE",
"368 424 OFFCURVE",
"368 349 CURVE SMOOTH",
"368 290 OFFCURVE",
"393 253 OFFCURVE",
"445 212 CURVE SMOOTH",
"472 191 LINE SMOOTH",
"508 164 OFFCURVE",
"524 139.006 OFFCURVE",
"524 109.006 CURVE SMOOTH",
"524 66.994 OFFCURVE",
"495 37 OFFCURVE",
"451 37 CURVE SMOOTH",
"432 37 OFFCURVE",
"414 42 OFFCURVE",
"385 58 CURVE",
"432 5 LINE",
"405 139 LINE",
"332 139 LINE",
"327 24 LINE",
"362 -3 OFFCURVE",
"415 -14 OFFCURVE",
"463 -14 CURVE SMOOTH",
"590 -14 OFFCURVE",
"646 69 OFFCURVE",
"646 140 CURVE SMOOTH",
"646 193 OFFCURVE",
"619 240 OFFCURVE",
"560 284 CURVE SMOOTH",
"534 302 LINE SMOOTH",
"506 322 OFFCURVE",
"487 341 OFFCURVE",
"487 390 CURVE SMOOTH",
"487 437 OFFCURVE",
"512 470 OFFCURVE",
"560 489 CURVE",
"560 520 LINE",
"511 545 OFFCURVE",
"447 558 OFFCURVE",
"388 558 CURVE SMOOTH",
"195 558 OFFCURVE",
"121 489 OFFCURVE",
"121 331 CURVE SMOOTH",
"121 258 LINE SMOOTH",
"121 173 OFFCURVE",
"121 84 OFFCURVE",
"118 0 CURVE"
);
}
);
width = 672.85443;
}
);
},
{
color = 0;
export = 0;
glyphname = Schwa.sc;
lastChange = "2019-06-06 16:52:29 +0000";
layers = (
{
anchors = (
{
name = aboveUC;
position = "{311, 566}";
},
{
name = belowLC;
position = "{316, -18}";
}
);
layerId = "A9E1993B-555C-4280-8E93-805D459F1135";
paths = (
{
closed = 1;
nodes = (
"49 79 OFFCURVE",
"145 -14 OFFCURVE",
"311 -14 CURVE SMOOTH",
"453 -14 OFFCURVE",
"576 89 OFFCURVE",
"576 276 CURVE SMOOTH",
"576 451 OFFCURVE",
"459 558 OFFCURVE",
"296 558 CURVE SMOOTH",
"212 558 OFFCURVE",
"138 525 OFFCURVE",
"90 469 CURVE",
"120 435 LINE",
"160 473 OFFCURVE",
"215 496 OFFCURVE",
"278 496 CURVE SMOOTH",
"376 496 OFFCURVE",
"434 422 OFFCURVE",
"434 265 CURVE SMOOTH",
"434 107 OFFCURVE",
"389 37 OFFCURVE",
"313 37 CURVE SMOOTH",
"245 37 OFFCURVE",
"189 89 OFFCURVE",
"189 183 CURVE SMOOTH",
"189 209 OFFCURVE",
"191 231 OFFCURVE",
"195 252 CURVE",
"501 252 LINE",
"500 302 LINE",
"55 302 LINE",
"51 284 OFFCURVE",
"49 254 OFFCURVE",
"49 229 CURVE SMOOTH"
);
}
);
width = 625.46044;
}
);
leftKerningGroup = LAT_O.sc;
rightKerningGroup = LAT_O.sc;
},
{
color = 0;
export = 0;
glyphname = T.sc;
lastChange = "2019-06-06 16:52:29 +0000";
layers = (
{
anchors = (
{
name = aboveUC;
position = "{289, 566}";
},
{
name = baseLC;
position = "{289, 0}";
},
{
name = belowLC;
position = "{289, -18}";
}
);
layerId = "A9E1993B-555C-4280-8E93-805D459F1135";
paths = (
{
closed = 1;
nodes = (
"140 47 LINE",
"140 0 LINE",
"437 0 LINE",
"437 47 LINE",
"304 60 LINE",
"271 60 LINE"
);
},
{
closed = 1;
nodes = (
"222 169 OFFCURVE",
"222 83 OFFCURVE",
"219 0 CURVE",
"358 0 LINE",
"355 85 OFFCURVE",
"355 171 OFFCURVE",
"355 255 CURVE SMOOTH",
"355 288 LINE SMOOTH",
"355 375 OFFCURVE",
"355 460 OFFCURVE",
"358 543 CURVE",
"219 543 LINE",
"222 458 OFFCURVE",
"222 373 OFFCURVE",
"222 288 CURVE SMOOTH",
"222 255 LINE SMOOTH"
);
},
{
closed = 1;
nodes = (
"457 543 LINE",
"477 392 LINE",
"551 392 LINE",
"547 543 LINE",
"31 543 LINE",
"26 392 LINE",
"101 392 LINE",
"121 543 LINE",
"63 492 LINE",
"514 492 LINE"
);
}
);
width = 577.39399;
}
);
leftKerningGroup = LAT_T.sc;
rightKerningGroup = LAT_T.sc;
},
{
color = 0;
export = 0;
glyphname = U.sc;
lastChange = "2019-06-06 16:52:29 +0000";
layers = (
{
anchors = (
{
name = aboveUC;
position = "{374, 566}";
},
{
name = belowLC;
position = "{354, -18}";
},
{
name = hornLC;
position = "{551, 553}";
},
{
name = ogonek;
position = "{420, 0}";
}
);
layerId = "A9E1993B-555C-4280-8E93-805D459F1135";
paths = (
{
closed = 1;
nodes = (
"642 496 LINE",
"642 543 LINE",
"427 543 LINE",
"427 496 LINE",
"522 488 LINE",
"546 488 LINE"
);
},
{
closed = 1;
nodes = (
"196 483 LINE",
"325 496 LINE",
"325 543 LINE",
"43 543 LINE",
"43 496 LINE",
"172 483 LINE"
);
},
{
closed = 1;
nodes = (
"244 295 LINE SMOOTH",
"244 378 OFFCURVE",
"244 462 OFFCURVE",
"247 543 CURVE",
"109 543 LINE",
"111 460 OFFCURVE",
"111 376 OFFCURVE",
"111 295 CURVE SMOOTH",
"111 204 LINE SMOOTH",
"111 49 OFFCURVE",
"206 -14 OFFCURVE",
"337 -14 CURVE SMOOTH",
"477 -14 OFFCURVE",
"569 53 OFFCURVE",
"569 233 CURVE SMOOTH",
"568 543 LINE",
"509 543 LINE",
"509 241 LINE SMOOTH",
"508 111 OFFCURVE",
"460 62 OFFCURVE",
"376 62 CURVE SMOOTH",
"291 62 OFFCURVE",
"244 104 OFFCURVE",
"244 235 CURVE SMOOTH"
);
}
);
width = 679.44778;
}
);
leftKerningGroup = LAT_U.sc;
rightKerningGroup = LAT_U.sc;
},
{
color = 0;
export = 0;
glyphname = Uhorn.sc;
lastChange = "2019-06-06 16:52:29 +0000";
layers = (
{
anchors = (
{
name = aboveUC;
position = "{364, 566}";
},
{
name = belowLC;
position = "{354, -18}";
}
);
layerId = "A9E1993B-555C-4280-8E93-805D459F1135";
paths = (
{
closed = 1;
nodes = (
"244 295 LINE SMOOTH",
"244 378 OFFCURVE",
"244 462 OFFCURVE",
"247 543 CURVE",
"109 543 LINE",
"111 460 OFFCURVE",
"111 376 OFFCURVE",
"111 295 CURVE SMOOTH",
"111 204 LINE SMOOTH",
"111 49 OFFCURVE",
"206 -14 OFFCURVE",
"337 -14 CURVE SMOOTH",
"477 -14 OFFCURVE",
"569 53 OFFCURVE",
"569 233 CURVE SMOOTH",
"568 543 LINE",
"509 543 LINE",
"509 241 LINE SMOOTH",
"508 111 OFFCURVE",
"460 62 OFFCURVE",
"376 62 CURVE SMOOTH",
"291 62 OFFCURVE",
"244 104 OFFCURVE",
"244 235 CURVE SMOOTH"
);
},
{
closed = 1;
nodes = (
"196 483 LINE",
"325 496 LINE",
"325 543 LINE",
"43 543 LINE",
"43 496 LINE",
"172 483 LINE"
);
},
{
closed = 1;
nodes = (
"547 543 LINE",
"427 543 LINE",
"427 496 LINE",
"522 488 LINE",
"547 488 LINE"
);
},
{
closed = 1;
nodes = (
"632 494 OFFCURVE",
"689 531 OFFCURVE",
"689 610 CURVE SMOOTH",
"689 626 OFFCURVE",
"687 638 OFFCURVE",
"678 653 CURVE",
"665 665 OFFCURVE",
"652 667 OFFCURVE",
"638 667 CURVE SMOOTH",
"610 667 OFFCURVE",
"590 646 OFFCURVE",
"590 626 CURVE SMOOTH",
"590 596 OFFCURVE",
"617 585 OFFCURVE",
"617 563 CURVE SMOOTH",
"617 546 OFFCURVE",
"597 543 OFFCURVE",
"538 543 CURVE",
"538 492 LINE"
);
}
);
width = 656.44778;
}
);
leftKerningGroup = LAT_U.sc;
rightKerningGroup = LAT_U.sc;
},
{
color = 0;
export = 0;
glyphname = Uogonek.sc;
lastChange = "2019-06-06 16:52:29 +0000";
layers = (
{
anchors = (
{
name = aboveUC;
position = "{374, 566}";
}
);
layerId = "A9E1993B-555C-4280-8E93-805D459F1135";
paths = (
{
closed = 1;
nodes = (
"172 483 LINE",
"196 483 LINE",
"325 496 LINE",
"325 543 LINE",
"43 543 LINE",
"43 496 LINE"
);
},
{
closed = 1;
nodes = (
"319 -153 OFFCURVE",
"354 -184 OFFCURVE",
"414 -184 CURVE SMOOTH",
"457 -184 OFFCURVE",
"497 -171 OFFCURVE",
"523 -142 CURVE",
"510 -108 LINE",
"495 -113 OFFCURVE",
"480 -116 OFFCURVE",
"463 -116 CURVE SMOOTH",
"428 -116 OFFCURVE",
"403 -96 OFFCURVE",
"403 -64 CURVE SMOOTH",
"403 -37 OFFCURVE",
"417 -11 OFFCURVE",
"459 11 CURVE SMOOTH",
"526 45 OFFCURVE",
"569 112 OFFCURVE",
"569 234 CURVE SMOOTH",
"568 543 LINE",
"509 543 LINE",
"509 241 LINE SMOOTH",
"508 111 OFFCURVE",
"460 62 OFFCURVE",
"374 62 CURVE SMOOTH",
"291 62 OFFCURVE",
"244 105 OFFCURVE",
"244 235 CURVE SMOOTH",
"244 295 LINE SMOOTH",
"244 378 OFFCURVE",
"244 462 OFFCURVE",
"247 543 CURVE",
"109 543 LINE",
"111 461 OFFCURVE",
"111 377 OFFCURVE",
"111 295 CURVE SMOOTH",
"111 204 LINE SMOOTH",
"111 49 OFFCURVE",
"206 -14 OFFCURVE",
"341 -14 CURVE SMOOTH",
"358 -14 OFFCURVE",
"376 -13 OFFCURVE",
"392 -12 CURVE",
"391 -6 LINE",
"347 -28 OFFCURVE",
"319 -63 OFFCURVE",
"319 -107 CURVE SMOOTH"
);
},
{
closed = 1;
nodes = (
"526 488 LINE",
"551 488 LINE",
"642 496 LINE",
"642 543 LINE",
"427 543 LINE",
"427 496 LINE"
);
}
);
width = 679.44778;
}
);
leftKerningGroup = LAT_U.sc;
rightKerningGroup = LAT_U.sc;
},
{
color = 0;
export = 0;
glyphname = V.sc;
lastChange = "2019-06-06 16:52:29 +0000";
layers = (
{
anchors = (
{
name = aboveUC;
position = "{328, 566}";
},
{
name = belowLC;
position = "{309, -18}";
}
);
layerId = "A9E1993B-555C-4280-8E93-805D459F1135";
paths = (
{
closed = 1;
nodes = (
"599 496 LINE",
"599 543 LINE",
"401 543 LINE",
"401 496 LINE",
"493 483 LINE",
"508 483 LINE"
);
},
{
closed = 1;
nodes = (
"292 496 LINE",
"292 543 LINE",
"16 543 LINE",
"16 496 LINE",
"143 483 LINE",
"171 483 LINE"
);
},
{
closed = 1;
nodes = (
"343 -3 LINE",
"550 543 LINE",
"491 543 LINE",
"341 154 LINE",
"195 543 LINE",
"52 543 LINE",
"269 -3 LINE"
);
}
);
width = 606.49842;
}
);
},
{
color = 0;
export = 0;
glyphname = W.sc;
lastChange = "2019-06-06 16:52:29 +0000";
layers = (
{
anchors = (
{
name = aboveUC;
position = "{477, 566}";
},
{
name = belowLC;
position = "{449, -18}";
}
);
layerId = "A9E1993B-555C-4280-8E93-805D459F1135";
paths = (
{
closed = 1;
nodes = (
"875 496 LINE",
"875 543 LINE",
"681 543 LINE",
"681 496 LINE",
"768 483 LINE",
"790 483 LINE"
);
},
{
closed = 1;
nodes = (
"614 496 LINE",
"614 543 LINE",
"350 543 LINE",
"350 496 LINE",
"465 483 LINE",
"503 483 LINE"
);
},
{
closed = 1;
nodes = (
"284 496 LINE",
"284 543 LINE",
"15 543 LINE",
"15 496 LINE",
"139 483 LINE",
"166 483 LINE"
);
},
{
closed = 1;
nodes = (
"649 -3 LINE",
"822 543 LINE",
"766 543 LINE",
"643 159 LINE",
"514 543 LINE",
"441 543 LINE",
"308 164 LINE",
"199 543 LINE",
"59 543 LINE",
"236 -3 LINE",
"310 -3 LINE",
"440 376 LINE",
"575 -3 LINE"
);
}
);
width = 879.9019;
}
);
leftKerningGroup = LAT_W.sc;
rightKerningGroup = LAT_W.sc;
},
{
color = 0;
export = 0;
glyphname = X.sc;
lastChange = "2019-06-06 16:52:29 +0000";
layers = (
{
anchors = (
{
name = aboveUC;
position = "{298, 566}";
},
{
name = belowLC;
position = "{275, -18}";
}
);
layerId = "A9E1993B-555C-4280-8E93-805D459F1135";
paths = (
{
closed = 1;
nodes = (
"203 0 LINE",
"203 47 LINE",
"116 55 LINE",
"95 55 LINE",
"6 47 LINE",
"6 0 LINE"
);
},
{
closed = 1;
nodes = (
"128 483 LINE",
"165 483 LINE",
"285 496 LINE",
"285 543 LINE",
"13 543 LINE",
"13 496 LINE"
);
},
{
closed = 1;
nodes = (
"111 0 LINE",
"302 270 LINE",
"257 292 LINE",
"43 0 LINE"
);
},
{
closed = 1;
nodes = (
"548 0 LINE",
"193 543 LINE",
"45 543 LINE",
"401 0 LINE"
);
},
{
closed = 1;
nodes = (
"322 260 LINE",
"521 543 LINE",
"452 543 LINE",
"279 283 LINE"
);
},
{
closed = 1;
nodes = (
"582 0 LINE",
"582 47 LINE",
"452 60 LINE",
"419 60 LINE",
"297 47 LINE",
"297 0 LINE"
);
},
{
closed = 1;
nodes = (
"445 488 LINE",
"466 488 LINE",
"553 496 LINE",
"553 543 LINE",
"360 543 LINE",
"360 496 LINE"
);
}
);
width = 590.45095;
}
);
},
{
color = 0;
export = 0;
glyphname = Y.sc;
lastChange = "2019-06-06 16:52:29 +0000";
layers = (
{
anchors = (
{
name = aboveUC;
position = "{315, 566}";
},
{
name = belowLC;
position = "{284, -18}";
}
);
layerId = "A9E1993B-555C-4280-8E93-805D459F1135";
paths = (
{
closed = 1;
nodes = (
"139 47 LINE",
"139 0 LINE",
"436 0 LINE",
"436 47 LINE",
"303 60 LINE",
"270 60 LINE"
);
},
{
closed = 1;
nodes = (
"178 483 LINE",
"294 496 LINE",
"294 543 LINE",
"13 543 LINE",
"13 496 LINE",
"145 483 LINE"
);
},
{
closed = 1;
nodes = (
"561 496 LINE",
"561 543 LINE",
"369 543 LINE",
"369 496 LINE",
"458 483 LINE",
"478 483 LINE"
);
},
{
closed = 1;
nodes = (
"356 0 LINE",
"354 73 OFFCURVE",
"354 149 OFFCURVE",
"354 253 CURVE",
"220 253 LINE",
"220 147 OFFCURVE",
"220 72 OFFCURVE",
"218 0 CURVE"
);
},
{
closed = 1;
nodes = (
"521 543 LINE",
"461 543 LINE",
"310 244 LINE",
"341 248 LINE",
"197 543 LINE",
"44 543 LINE",
"239 176 LINE",
"327 176 LINE"
);
}
);
width = 569.47627;
}
);
leftKerningGroup = LAT_Y.sc;
rightKerningGroup = LAT_Y.sc;
},
{
color = 0;
export = 0;
glyphname = Z.sc;
lastChange = "2019-06-06 16:52:29 +0000";
layers = (
{
anchors = (
{
name = aboveUC;
position = "{269, 566}";
},
{
name = belowLC;
position = "{265, -18}";
}
);
layerId = "A9E1993B-555C-4280-8E93-805D459F1135";
paths = (
{
closed = 1;
nodes = (
"126 491 LINE",
"323 491 LINE",
"25 37 LINE",
"25 0 LINE",
"484 0 LINE",
"493 150 LINE",
"419 150 LINE",
"399 52 LINE",
"182 52 LINE",
"479 506 LINE",
"479 543 LINE",
"40 543 LINE",
"34 392 LINE",
"105 392 LINE"
);
}
);
width = 516.93038;
}
);
leftKerningGroup = LAT_Z.sc;
rightKerningGroup = LAT_Z.sc;
},
{
color = 0;
export = 0;
glyphname = A.sups;
lastChange = "2019-06-06 16:52:29 +0000";
layers = (
{
layerId = "A9E1993B-555C-4280-8E93-805D459F1135";
paths = (
{
closed = 1;
nodes = (
"154 416 LINE",
"154 451 LINE",
"88 461 LINE",
"76 461 LINE",
"9 451 LINE",
"9 416 LINE"
);
},
{
closed = 1;
nodes = (
"87 416 LINE",
"215 790 LINE",
"191 755 LINE",
"308 416 LINE",
"409 416 LINE",
"258 834 LINE",
"198 834 LINE",
"49 416 LINE"
);
},
{
closed = 1;
nodes = (
"317 537 LINE",
"304 574 LINE",
"126 574 LINE",
"115 537 LINE"
);
},
{
closed = 1;
nodes = (
"438 416 LINE",
"438 449 LINE",
"354 459 LINE",
"319 459 LINE",
"242 449 LINE",
"242 416 LINE"
);
}
);
width = 449.97152;
}
);
leftKerningGroup = sups_corner;
rightKerningGroup = sups_corner;
},
{
color = 0;
export = 0;
glyphname = B.sups;
lastChange = "2019-06-06 16:52:29 +0000";
layers = (
{
layerId = "A9E1993B-555C-4280-8E93-805D459F1135";
paths = (
{
closed = 1;
nodes = (
"178 416 LINE",
"178 834 LINE",
"79 834 LINE",
"79 416 LINE"
);
},
{
closed = 1;
nodes = (
"130 790 LINE",
"130 834 LINE",
"28 834 LINE",
"28 800 LINE",
"120 790 LINE"
);
},
{
closed = 1;
nodes = (
"28 451 LINE",
"28 416 LINE",
"130 416 LINE",
"130 461 LINE",
"120 461 LINE"
);
},
{
closed = 1;
nodes = (
"203 617 LINE SMOOTH",
"276 617 OFFCURVE",
"310 592 OFFCURVE",
"310 535 CURVE SMOOTH",
"310 481 OFFCURVE",
"273 453 OFFCURVE",
"205 453 CURVE SMOOTH",
"130 453 LINE",
"130 416 LINE",
"213 416 LINE SMOOTH",
"367 416 OFFCURVE",
"409 481 OFFCURVE",
"409 534 CURVE SMOOTH",
"409 596 OFFCURVE",
"364 635 OFFCURVE",
"252 642 CURVE",
"252 637 LINE",
"353 649 OFFCURVE",
"385 689 OFFCURVE",
"385 736 CURVE SMOOTH",
"385 792 OFFCURVE",
"340 834 OFFCURVE",
"234 834 CURVE SMOOTH",
"130 834 LINE",
"130 797 LINE",
"208 797 LINE SMOOTH",
"264 797 OFFCURVE",
"291 774 OFFCURVE",
"291 728 CURVE SMOOTH",
"291 678 OFFCURVE",
"263 652 OFFCURVE",
"200 652 CURVE SMOOTH",
"130 652 LINE",
"130 617 LINE"
);
}
);
width = 432.46044;
}
);
leftKerningGroup = sups_corner;
rightKerningGroup = sups_round;
},
{
color = 0;
export = 0;
glyphname = C.sups;
lastChange = "2019-06-06 16:52:29 +0000";
layers = (
{
layerId = "A9E1993B-555C-4280-8E93-805D459F1135";
paths = (
{
closed = 1;
nodes = (
"193 441 OFFCURVE",
"133 495 OFFCURVE",
"133 625 CURVE SMOOTH",
"133 755 OFFCURVE",
"197 810 OFFCURVE",
"272 810 CURVE SMOOTH",
"304 810 OFFCURVE",
"332 799 OFFCURVE",
"365 772 CURVE",
"322 817 LINE",
"342 715 LINE",
"390 715 LINE",
"387 815 LINE",
"347 835 OFFCURVE",
"305 846 OFFCURVE",
"259 846 CURVE SMOOTH",
"134 846 OFFCURVE",
"29 777 OFFCURVE",
"29 625 CURVE SMOOTH",
"29 475 OFFCURVE",
"127 404 OFFCURVE",
"256 404 CURVE SMOOTH",
"309 404 OFFCURVE",
"355 418 OFFCURVE",
"392 437 CURVE",
"395 535 LINE",
"348 535 LINE",
"327 435 LINE",
"370 477 LINE",
"337 454 OFFCURVE",
"302 441 OFFCURVE",
"269 441 CURVE SMOOTH"
);
}
);
width = 418.99684;
}
);
leftKerningGroup = sups_round;
rightKerningGroup = sups_round;
},
{
color = 0;
export = 0;
glyphname = D.sups;
lastChange = "2019-06-06 16:52:29 +0000";
layers = (
{
layerId = "A9E1993B-555C-4280-8E93-805D459F1135";
paths = (
{
closed = 1;
nodes = (
"179 416 LINE",
"179 834 LINE",
"80 834 LINE",
"80 416 LINE"
);
},
{
closed = 1;
nodes = (
"130 790 LINE",
"130 834 LINE",
"28 834 LINE",
"28 800 LINE",
"120 790 LINE"
);
},
{
closed = 1;
nodes = (
"28 451 LINE",
"28 416 LINE",
"130 416 LINE",
"130 461 LINE",
"120 461 LINE"
);
},
{
closed = 1;
nodes = (
"211 416 LINE SMOOTH",
"348 416 OFFCURVE",
"444 494 OFFCURVE",
"444 627 CURVE SMOOTH",
"444 755 OFFCURVE",
"357 834 OFFCURVE",
"223 834 CURVE SMOOTH",
"130 834 LINE",
"130 797 LINE",
"213 797 LINE SMOOTH",
"291 797 OFFCURVE",
"342 737 OFFCURVE",
"342 626 CURVE SMOOTH",
"342 515 OFFCURVE",
"291 453 OFFCURVE",
"214 453 CURVE SMOOTH",
"130 453 LINE",
"130 416 LINE"
);
}
);
width = 472.99051;
}
);
leftKerningGroup = sups_corner;
rightKerningGroup = sups_round;
},
{
color = 0;
export = 0;
glyphname = E.sups;
lastChange = "2019-06-06 16:52:29 +0000";
layers = (
{
layerId = "A9E1993B-555C-4280-8E93-805D459F1135";
paths = (
{
closed = 1;
nodes = (
"130 790 LINE",
"130 834 LINE",
"28 834 LINE",
"28 800 LINE",
"120 790 LINE"
);
},
{
closed = 1;
nodes = (
"28 451 LINE",
"28 416 LINE",
"130 416 LINE",
"130 461 LINE",
"120 461 LINE"
);
},
{
closed = 1;
nodes = (
"179 416 LINE",
"179 834 LINE",
"80 834 LINE",
"80 416 LINE"
);
},
{
closed = 1;
nodes = (
"265 564 LINE",
"301 564 LINE",
"301 701 LINE",
"265 701 LINE",
"255 640 LINE",
"255 628 LINE"
);
},
{
closed = 1;
nodes = (
"310 416 LINE",
"352 452 LINE",
"130 452 LINE",
"130 416 LINE",
"374 416 LINE",
"379 526 LINE",
"329 526 LINE"
);
},
{
closed = 1;
nodes = (
"366 725 LINE",
"361 834 LINE",
"130 834 LINE",
"130 798 LINE",
"339 798 LINE",
"297 834 LINE",
"316 725 LINE"
);
},
{
closed = 1;
nodes = (
"130 651 LINE",
"130 613 LINE",
"276 613 LINE",
"276 651 LINE"
);
}
);
width = 400.99684;
}
);
leftKerningGroup = sups_corner;
rightKerningGroup = sups_corner;
},
{
color = 0;
export = 0;
glyphname = F.sups;
lastChange = "2019-06-06 16:52:29 +0000";
layers = (
{
layerId = "A9E1993B-555C-4280-8E93-805D459F1135";
paths = (
{
closed = 1;
nodes = (
"28 451 LINE",
"28 416 LINE",
"239 416 LINE",
"239 451 LINE",
"146 461 LINE",
"120 461 LINE"
);
},
{
closed = 1;
nodes = (
"179 416 LINE",
"179 834 LINE",
"80 834 LINE",
"80 416 LINE"
);
},
{
closed = 1;
nodes = (
"130 790 LINE",
"130 834 LINE",
"28 834 LINE",
"28 800 LINE",
"120 790 LINE"
);
},
{
closed = 1;
nodes = (
"369 725 LINE",
"364 834 LINE",
"130 834 LINE",
"130 798 LINE",
"342 798 LINE",
"300 834 LINE",
"319 725 LINE"
);
},
{
closed = 1;
nodes = (
"268 558 LINE",
"304 558 LINE",
"304 701 LINE",
"268 701 LINE",
"258 640 LINE",
"258 622 LINE"
);
},
{
closed = 1;
nodes = (
"130 651 LINE",
"130 613 LINE",
"279 613 LINE",
"279 651 LINE"
);
}
);
width = 389.48576;
}
);
leftKerningGroup = sups_corner;
rightKerningGroup = sups_v;
},
{
color = 0;
export = 0;
glyphname = G.sups;
lastChange = "2019-06-06 16:52:29 +0000";
layers = (
{
layerId = "A9E1993B-555C-4280-8E93-805D459F1135";
paths = (
{
closed = 1;
nodes = (
"364 582 LINE",
"439 592 LINE",
"439 627 LINE",
"247 627 LINE",
"247 592 LINE",
"328 582 LINE"
);
},
{
closed = 1;
nodes = (
"310 627 LINE",
"310 421 LINE",
"355 463 LINE",
"324 448 OFFCURVE",
"302 441 OFFCURVE",
"272 441 CURVE SMOOTH",
"191 441 OFFCURVE",
"133 499 OFFCURVE",
"133 626 CURVE SMOOTH",
"133 753 OFFCURVE",
"195 810 OFFCURVE",
"272 810 CURVE SMOOTH",
"304 810 OFFCURVE",
"334 801 OFFCURVE",
"368 778 CURVE",
"323 819 LINE",
"345 718 LINE",
"392 718 LINE",
"390 817 LINE",
"352 837 OFFCURVE",
"308 846 OFFCURVE",
"261 846 CURVE SMOOTH",
"116 846 OFFCURVE",
"29 761 OFFCURVE",
"29 626 CURVE SMOOTH",
"29 487 OFFCURVE",
"121 404 OFFCURVE",
"255 404 CURVE SMOOTH",
"312 404 OFFCURVE",
"358 416 OFFCURVE",
"404 441 CURVE",
"404 627 LINE"
);
}
);
width = 453.49209;
}
);
leftKerningGroup = sups_round;
rightKerningGroup = sups_round;
},
{
color = 0;
export = 0;
glyphname = H.sups;
lastChange = "2019-06-06 16:52:29 +0000";
layers = (
{
layerId = "A9E1993B-555C-4280-8E93-805D459F1135";
paths = (
{
closed = 1;
nodes = (
"395 790 LINE",
"487 800 LINE",
"487 834 LINE",
"286 834 LINE",
"286 800 LINE",
"378 790 LINE"
);
},
{
closed = 1;
nodes = (
"286 451 LINE",
"286 416 LINE",
"487 416 LINE",
"487 451 LINE",
"395 461 LINE",
"378 461 LINE"
);
},
{
closed = 1;
nodes = (
"435 416 LINE",
"435 834 LINE",
"336 834 LINE",
"336 416 LINE"
);
},
{
closed = 1;
nodes = (
"179 416 LINE",
"179 834 LINE",
"79 834 LINE",
"79 416 LINE"
);
},
{
closed = 1;
nodes = (
"136 790 LINE",
"229 800 LINE",
"229 834 LINE",
"28 834 LINE",
"28 800 LINE",
"118 790 LINE"
);
},
{
closed = 1;
nodes = (
"28 451 LINE",
"28 416 LINE",
"229 416 LINE",
"229 451 LINE",
"136 461 LINE",
"118 461 LINE"
);
},
{
closed = 1;
nodes = (
"386 650 LINE",
"129 650 LINE",
"129 612 LINE",
"386 612 LINE"
);
}
);
width = 514.51424;
}
);
leftKerningGroup = sups_corner;
rightKerningGroup = sups_corner;
},
{
color = 0;
export = 0;
glyphname = I.sups;
lastChange = "2019-06-06 16:52:29 +0000";
layers = (
{
layerId = "A9E1993B-555C-4280-8E93-805D459F1135";
paths = (
{
closed = 1;
nodes = (
"28 451 LINE",
"28 416 LINE",
"232 416 LINE",
"232 451 LINE",
"137 461 LINE",
"120 461 LINE"
);
},
{
closed = 1;
nodes = (
"137 790 LINE",
"232 800 LINE",
"232 834 LINE",
"28 834 LINE",
"28 800 LINE",
"120 790 LINE"
);
},
{
closed = 1;
nodes = (
"180 416 LINE",
"180 834 LINE",
"80 834 LINE",
"80 416 LINE"
);
}
);
width = 259.96835;
}
);
leftKerningGroup = sups_corner;
rightKerningGroup = sups_corner;
},
{
color = 0;
export = 0;
glyphname = J.sups;
lastChange = "2019-06-06 16:52:29 +0000";
layers = (
{
layerId = "A9E1993B-555C-4280-8E93-805D459F1135";
paths = (
{
closed = 1;
nodes = (
"146 790 LINE",
"241 800 LINE",
"241 834 LINE",
"30 834 LINE",
"30 800 LINE",
"124 790 LINE"
);
},
{
closed = 1;
nodes = (
"82 333 LINE",
"60 358 LINE SMOOTH",
"41 383 OFFCURVE",
"24 395 OFFCURVE",
"3 395 CURVE SMOOTH",
"-23 395 OFFCURVE",
"-44 376 OFFCURVE",
"-46 347 CURVE",
"-33 318 OFFCURVE",
"-6 306 OFFCURVE",
"27 306 CURVE SMOOTH",
"85 306 OFFCURVE",
"136 338 OFFCURVE",
"161 391 CURVE SMOOTH",
"180 432 OFFCURVE",
"188 481 OFFCURVE",
"188 570 CURVE SMOOTH",
"188 834 LINE",
"86 834 LINE",
"89 623 OFFCURVE",
"91 506 OFFCURVE",
"91 442 CURVE SMOOTH",
"91 389 OFFCURVE",
"87 359 OFFCURVE",
"70 339 CURVE"
);
}
);
width = 264.46677;
}
);
leftKerningGroup = sups_j;
rightKerningGroup = sups_low;
},
{
color = 0;
export = 0;
glyphname = K.sups;
lastChange = "2019-06-06 16:52:29 +0000";
layers = (
{
layerId = "A9E1993B-555C-4280-8E93-805D459F1135";
paths = (
{
closed = 1;
nodes = (
"176 416 LINE",
"176 834 LINE",
"80 834 LINE",
"80 416 LINE"
);
},
{
closed = 1;
nodes = (
"28 451 LINE",
"28 416 LINE",
"224 416 LINE",
"224 451 LINE",
"138 461 LINE",
"120 461 LINE"
);
},
{
closed = 1;
nodes = (
"138 790 LINE",
"229 800 LINE",
"229 834 LINE",
"28 834 LINE",
"28 800 LINE",
"120 790 LINE"
);
},
{
closed = 1;
nodes = (
"360 790 LINE",
"435 800 LINE",
"435 834 LINE",
"283 834 LINE",
"283 800 LINE",
"343 790 LINE"
);
},
{
closed = 1;
nodes = (
"328 416 LINE",
"434 416 LINE",
"270 702 LINE",
"210 626 LINE"
);
},
{
closed = 1;
nodes = (
"408 834 LINE",
"361 834 LINE",
"129 558 LINE",
"129 511 LINE"
);
},
{
closed = 1;
nodes = (
"453 416 LINE",
"453 451 LINE",
"369 461 LINE",
"355 461 LINE",
"269 451 LINE",
"269 416 LINE"
);
}
);
width = 460.94937;
}
);
leftKerningGroup = sups_corner;
rightKerningGroup = sups_corner;
},
{
color = 0;
export = 0;
glyphname = L.sups;
lastChange = "2019-06-06 16:52:29 +0000";
layers = (
{
layerId = "A9E1993B-555C-4280-8E93-805D459F1135";
paths = (
{
closed = 1;
nodes = (
"28 451 LINE",
"28 416 LINE",
"130 416 LINE",
"130 461 LINE",
"120 461 LINE"
);
},
{
closed = 1;
nodes = (
"141 790 LINE",
"236 800 LINE",
"236 834 LINE",
"28 834 LINE",
"28 800 LINE",
"120 790 LINE"
);
},
{
closed = 1;
nodes = (
"179 416 LINE",
"179 834 LINE",
"80 834 LINE",
"80 416 LINE"
);
},
{
closed = 1;
nodes = (
"297 416 LINE",
"342 453 LINE",
"130 453 LINE",
"130 416 LINE",
"365 416 LINE",
"371 541 LINE",
"323 541 LINE"
);
}
);
width = 393.00633;
}
);
leftKerningGroup = sups_corner;
rightKerningGroup = sups_corner;
},
{
color = 0;
export = 0;
glyphname = M.sups;
lastChange = "2019-06-06 16:52:29 +0000";
layers = (
{
layerId = "A9E1993B-555C-4280-8E93-805D459F1135";
paths = (
{
closed = 1;
nodes = (
"29 800 LINE",
"119 791 LINE",
"75 825 LINE",
"256 416 LINE",
"287 416 LINE",
"467 834 LINE",
"426 834 LINE",
"291 523 LINE",
"315 520 LINE",
"175 834 LINE",
"29 834 LINE"
);
},
{
closed = 1;
nodes = (
"519 416 LINE",
"519 834 LINE",
"448 834 LINE",
"419 769 LINE",
"419 416 LINE"
);
},
{
closed = 1;
nodes = (
"20 451 LINE",
"20 416 LINE",
"177 416 LINE",
"177 451 LINE",
"111 461 LINE",
"89 461 LINE"
);
},
{
closed = 1;
nodes = (
"370 451 LINE",
"370 416 LINE",
"571 416 LINE",
"571 451 LINE",
"477 461 LINE",
"460 461 LINE"
);
},
{
closed = 1;
nodes = (
"477 790 LINE",
"571 800 LINE",
"571 834 LINE",
"460 834 LINE",
"460 790 LINE"
);
},
{
closed = 1;
nodes = (
"82 416 LINE",
"119 416 LINE",
"120 834 LINE",
"85 834 LINE"
);
}
);
width = 598.98734;
}
);
leftKerningGroup = sups_corner;
rightKerningGroup = sups_corner;
},
{
color = 0;
export = 0;
glyphname = N.sups;
lastChange = "2019-06-06 16:52:29 +0000";
layers = (
{
layerId = "A9E1993B-555C-4280-8E93-805D459F1135";
paths = (
{
closed = 1;
nodes = (
"407 834 LINE",
"367 834 LINE",
"367 451 LINE",
"407 451 LINE"
);
},
{
closed = 1;
nodes = (
"463 800 LINE",
"463 834 LINE",
"294 834 LINE",
"294 800 LINE",
"380 790 LINE",
"397 790 LINE"
);
},
{
closed = 1;
nodes = (
"25 451 LINE",
"25 416 LINE",
"194 416 LINE",
"194 451 LINE",
"112 461 LINE",
"95 461 LINE"
);
},
{
closed = 1;
nodes = (
"81 416 LINE",
"120 416 LINE",
"120 799 LINE",
"81 834 LINE"
);
},
{
closed = 1;
nodes = (
"26 799 LINE",
"100 793 LINE",
"61 811 LINE",
"362 410 LINE",
"407 410 LINE",
"407 509 LINE",
"164 834 LINE",
"26 834 LINE"
);
}
);
width = 488.49209;
}
);
leftKerningGroup = sups_corner;
rightKerningGroup = sups_corner;
},
{
color = 0;
export = 0;
glyphname = O.sups;
lastChange = "2019-06-06 16:52:29 +0000";
layers = (
{
layerId = "A9E1993B-555C-4280-8E93-805D459F1135";
paths = (
{
closed = 1;
nodes = (
"133 731 OFFCURVE",
"162 810 OFFCURVE",
"235 810 CURVE SMOOTH",
"309 810 OFFCURVE",
"338 731 OFFCURVE",
"338 625 CURVE SMOOTH",
"338 519 OFFCURVE",
"309 441 OFFCURVE",
"235 441 CURVE SMOOTH",
"162 441 OFFCURVE",
"133 519 OFFCURVE",
"133 625 CURVE SMOOTH"
);
},
{
closed = 1;
nodes = (
"130 846 OFFCURVE",
"29 773 OFFCURVE",
"29 625 CURVE SMOOTH",
"29 477 OFFCURVE",
"129 404 OFFCURVE",
"235 404 CURVE SMOOTH",
"342 404 OFFCURVE",
"442 478 OFFCURVE",
"442 625 CURVE SMOOTH",
"442 774 OFFCURVE",
"342 846 OFFCURVE",
"235 846 CURVE SMOOTH"
);
}
);
width = 470.99051;
}
);
leftKerningGroup = sups_round;
rightKerningGroup = sups_round;
},
{
color = 0;
export = 0;
glyphname = P.sups;
lastChange = "2019-06-06 16:52:29 +0000";
layers = (
{
layerId = "A9E1993B-555C-4280-8E93-805D459F1135";
paths = (
{
closed = 1;
nodes = (
"130 790 LINE",
"130 834 LINE",
"28 834 LINE",
"28 800 LINE",
"120 790 LINE"
);
},
{
closed = 1;
nodes = (
"28 451 LINE",
"28 416 LINE",
"239 416 LINE",
"239 451 LINE",
"146 461 LINE",
"120 461 LINE"
);
},
{
closed = 1;
nodes = (
"179 416 LINE",
"179 834 LINE",
"80 834 LINE",
"80 416 LINE"
);
},
{
closed = 1;
nodes = (
"391 788 OFFCURVE",
"336 834 OFFCURVE",
"206 834 CURVE SMOOTH",
"130 834 LINE",
"130 797 LINE",
"202 797 LINE SMOOTH",
"266 797 OFFCURVE",
"298 767 OFFCURVE",
"298 709 CURVE SMOOTH",
"298 651 OFFCURVE",
"267 612 OFFCURVE",
"198 612 CURVE SMOOTH",
"130 612 LINE",
"130 576 LINE",
"195 576 LINE SMOOTH",
"340 576 OFFCURVE",
"391 636 OFFCURVE",
"391 709 CURVE SMOOTH"
);
}
);
width = 406.95886;
}
);
leftKerningGroup = sups_corner;
rightKerningGroup = sups_v;
},
{
color = 0;
export = 0;
glyphname = Q.sups;
lastChange = "2019-06-06 16:52:29 +0000";
layers = (
{
components = (
{
alignment = -1;
name = O.sups;
}
);
layerId = "A9E1993B-555C-4280-8E93-805D459F1135";
paths = (
{
closed = 1;
nodes = (
"363 285 OFFCURVE",
"395 292 OFFCURVE",
"418 306 CURVE",
"405 342 LINE",
"388 336 OFFCURVE",
"370 334 OFFCURVE",
"357 334 CURVE SMOOTH",
"303 334 OFFCURVE",
"272 373 OFFCURVE",
"280 434 CURVE",
"187 436 LINE",
"187 422 LINE SMOOTH",
"187 342 OFFCURVE",
"238 285 OFFCURVE",
"330 285 CURVE SMOOTH"
);
}
);
width = 470.99051;
}
);
leftKerningGroup = sups_round;
rightKerningGroup = sups_low;
},
{
color = 0;
export = 0;
glyphname = R.sups;
lastChange = "2019-06-06 16:52:29 +0000";
layers = (
{
layerId = "A9E1993B-555C-4280-8E93-805D459F1135";
paths = (
{
closed = 1;
nodes = (
"28 451 LINE",
"28 416 LINE",
"232 416 LINE",
"232 451 LINE",
"139 461 LINE",
"120 461 LINE"
);
},
{
closed = 1;
nodes = (
"178 416 LINE",
"178 834 LINE",
"80 834 LINE",
"80 416 LINE"
);
},
{
closed = 1;
nodes = (
"130 790 LINE",
"130 834 LINE",
"28 834 LINE",
"28 800 LINE",
"120 790 LINE"
);
},
{
closed = 1;
nodes = (
"201 608 LINE SMOOTH",
"244 608 OFFCURVE",
"262 588 OFFCURVE",
"271 546 CURVE SMOOTH",
"286 474 LINE SMOOTH",
"295 424 OFFCURVE",
"325 408 OFFCURVE",
"377 408 CURVE SMOOTH",
"404 408 OFFCURVE",
"417 409 OFFCURVE",
"443 416 CURVE",
"443 451 LINE",
"352 462 LINE",
"395 428 LINE",
"373 525 LINE SMOOTH",
"360 595 OFFCURVE",
"334 628 OFFCURVE",
"245 631 CURVE",
"245 624 LINE",
"357 630 OFFCURVE",
"394 680 OFFCURVE",
"394 730 CURVE SMOOTH",
"394 795 OFFCURVE",
"336 834 OFFCURVE",
"233 834 CURVE SMOOTH",
"130 834 LINE",
"130 797 LINE",
"213 797 LINE SMOOTH",
"272 797 OFFCURVE",
"300 773 OFFCURVE",
"300 722 CURVE SMOOTH",
"300 681 OFFCURVE",
"276 644 OFFCURVE",
"209 644 CURVE SMOOTH",
"131 644 LINE",
"131 608 LINE"
);
}
);
width = 451.9462;
}
);
leftKerningGroup = sups_corner;
rightKerningGroup = sups_corner;
},
{
color = 0;
export = 0;
glyphname = S.sups;
lastChange = "2019-06-06 16:52:29 +0000";
layers = (
{
layerId = "A9E1993B-555C-4280-8E93-805D459F1135";
paths = (
{
closed = 1;
nodes = (
"122 442 OFFCURVE",
"96 454 OFFCURVE",
"55 475 CURVE",
"103 429 LINE",
"86 533 LINE",
"31 533 LINE",
"27 438 LINE",
"63 415 OFFCURVE",
"117 404 OFFCURVE",
"163 404 CURVE SMOOTH",
"266 404 OFFCURVE",
"332 455 OFFCURVE",
"332 525 CURVE SMOOTH",
"332 589 OFFCURVE",
"298 619 OFFCURVE",
"221 659 CURVE SMOOTH",
"185 678 LINE SMOOTH",
"145 700 OFFCURVE",
"122 717 OFFCURVE",
"122 751 CURVE SMOOTH",
"122 785 OFFCURVE",
"154 808 OFFCURVE",
"194 808 CURVE SMOOTH",
"229 808 OFFCURVE",
"255 795 OFFCURVE",
"289 771 CURVE",
"238 820 LINE",
"255 724 LINE",
"310 724 LINE",
"314 814 LINE",
"283 834 OFFCURVE",
"241 846 OFFCURVE",
"194 846 CURVE SMOOTH",
"101 846 OFFCURVE",
"37 799 OFFCURVE",
"37 723 CURVE SMOOTH",
"37 660 OFFCURVE",
"77 625 OFFCURVE",
"146 590 CURVE SMOOTH",
"182 571 LINE SMOOTH",
"224 549 OFFCURVE",
"245 535 OFFCURVE",
"245 500 CURVE SMOOTH",
"245 466 OFFCURVE",
"217 442 OFFCURVE",
"165 442 CURVE SMOOTH"
);
}
);
width = 358.95253;
}
);
leftKerningGroup = sups_round;
rightKerningGroup = sups_round;
},
{
color = 0;
export = 0;
glyphname = T.sups;
lastChange = "2019-06-06 16:52:29 +0000";
layers = (
{
layerId = "A9E1993B-555C-4280-8E93-805D459F1135";
paths = (
{
closed = 1;
nodes = (
"101 451 LINE",
"101 416 LINE",
"319 416 LINE",
"319 451 LINE",
"222 461 LINE",
"197 461 LINE"
);
},
{
closed = 1;
nodes = (
"260 416 LINE",
"260 834 LINE",
"160 834 LINE",
"160 416 LINE"
);
},
{
closed = 1;
nodes = (
"334 834 LINE",
"352 715 LINE",
"402 715 LINE",
"399 834 LINE",
"21 834 LINE",
"17 715 LINE",
"67 715 LINE",
"85 834 LINE",
"43 798 LINE",
"377 798 LINE"
);
}
);
width = 419.45095;
}
);
leftKerningGroup = sups_diag;
rightKerningGroup = sups_v;
},
{
color = 0;
export = 0;
glyphname = U.sups;
lastChange = "2019-06-06 16:52:29 +0000";
layers = (
{
layerId = "A9E1993B-555C-4280-8E93-805D459F1135";
paths = (
{
closed = 1;
nodes = (
"120 790 LINE",
"137 790 LINE",
"232 800 LINE",
"232 834 LINE",
"25 834 LINE",
"25 800 LINE"
);
},
{
closed = 1;
nodes = (
"346 404 OFFCURVE",
"410 463 OFFCURVE",
"410 597 CURVE SMOOTH",
"410 834 LINE",
"370 834 LINE",
"370 596 LINE SMOOTH",
"370 501 OFFCURVE",
"334 463 OFFCURVE",
"271 463 CURVE SMOOTH",
"208 463 OFFCURVE",
"174 499 OFFCURVE",
"174 595 CURVE SMOOTH",
"174 834 LINE",
"75 834 LINE",
"75 578 LINE SMOOTH",
"75 450 OFFCURVE",
"145 404 OFFCURVE",
"244 404 CURVE SMOOTH"
);
},
{
closed = 1;
nodes = (
"379 794 LINE",
"396 794 LINE",
"465 800 LINE",
"465 834 LINE",
"308 834 LINE",
"308 800 LINE"
);
}
);
width = 488.47943;
}
);
leftKerningGroup = sups_round;
rightKerningGroup = sups_round;
},
{
color = 0;
export = 0;
glyphname = V.sups;
lastChange = "2019-06-06 16:52:29 +0000";
layers = (
{
layerId = "A9E1993B-555C-4280-8E93-805D459F1135";
paths = (
{
closed = 1;
nodes = (
"438 800 LINE",
"438 834 LINE",
"293 834 LINE",
"293 801 LINE",
"362 790 LINE",
"373 790 LINE"
);
},
{
closed = 1;
nodes = (
"213 801 LINE",
"213 834 LINE",
"11 834 LINE",
"11 800 LINE",
"103 790 LINE",
"123 790 LINE"
);
},
{
closed = 1;
nodes = (
"251 415 LINE",
"401 834 LINE",
"360 834 LINE",
"242 500 LINE",
"259 508 LINE",
"143 834 LINE",
"39 834 LINE",
"197 415 LINE"
);
}
);
width = 445.50158;
}
);
leftKerningGroup = sups_diag;
rightKerningGroup = sups_v;
},
{
color = 0;
export = 0;
glyphname = W.sups;
lastChange = "2019-06-06 16:52:29 +0000";
layers = (
{
layerId = "A9E1993B-555C-4280-8E93-805D459F1135";
paths = (
{
closed = 1;
nodes = (
"643 800 LINE",
"643 834 LINE",
"500 834 LINE",
"500 800 LINE",
"564 790 LINE",
"580 790 LINE"
);
},
{
closed = 1;
nodes = (
"451 800 LINE",
"451 834 LINE",
"259 834 LINE",
"259 800 LINE",
"340 790 LINE",
"370 790 LINE"
);
},
{
closed = 1;
nodes = (
"208 800 LINE",
"208 834 LINE",
"11 834 LINE",
"11 800 LINE",
"101 790 LINE",
"121 790 LINE"
);
},
{
closed = 1;
nodes = (
"236 504 LINE",
"145 834 LINE",
"44 834 LINE",
"173 415 LINE",
"227 415 LINE",
"339 759 LINE",
"313 740 LINE",
"422 415 LINE",
"476 415 LINE",
"603 834 LINE",
"563 834 LINE",
"450 447 LINE",
"485 504 LINE",
"379 834 LINE",
"324 834 LINE",
"202 447 LINE"
);
}
);
width = 649.9557;
}
);
leftKerningGroup = sups_diag;
rightKerningGroup = sups_v;
},
{
color = 0;
export = 0;
glyphname = X.sups;
lastChange = "2019-06-06 16:52:29 +0000";
layers = (
{
layerId = "A9E1993B-555C-4280-8E93-805D459F1135";
paths = (
{
closed = 1;
nodes = (
"12 451 LINE",
"12 416 LINE",
"154 416 LINE",
"154 451 LINE",
"91 456 LINE",
"75 456 LINE"
);
},
{
closed = 1;
nodes = (
"309 461 LINE",
"218 451 LINE",
"218 416 LINE",
"426 416 LINE",
"426 451 LINE",
"334 461 LINE"
);
},
{
closed = 1;
nodes = (
"415 800 LINE",
"415 834 LINE",
"271 834 LINE",
"271 800 LINE",
"334 795 LINE",
"350 795 LINE"
);
},
{
closed = 1;
nodes = (
"134 790 LINE",
"225 800 LINE",
"225 834 LINE",
"17 834 LINE",
"17 800 LINE",
"106 790 LINE"
);
},
{
closed = 1;
nodes = (
"39 416 LINE",
"86 416 LINE",
"220 633 LINE",
"190 647 LINE"
);
},
{
closed = 1;
nodes = (
"154 834 LINE",
"43 834 LINE",
"290 416 LINE",
"401 416 LINE"
);
},
{
closed = 1;
nodes = (
"389 834 LINE",
"341 834 LINE",
"216 631 LINE",
"245 615 LINE"
);
}
);
width = 437.97785;
}
);
leftKerningGroup = sups_corner;
rightKerningGroup = sups_corner;
},
{
color = 0;
export = 0;
glyphname = Y.sups;
lastChange = "2019-06-06 16:52:29 +0000";
layers = (
{
layerId = "A9E1993B-555C-4280-8E93-805D459F1135";
paths = (
{
closed = 1;
nodes = (
"101 451 LINE",
"101 416 LINE",
"319 416 LINE",
"319 451 LINE",
"221 461 LINE",
"198 461 LINE"
);
},
{
closed = 1;
nodes = (
"131 790 LINE",
"215 800 LINE",
"215 834 LINE",
"11 834 LINE",
"11 800 LINE",
"106 790 LINE"
);
},
{
closed = 1;
nodes = (
"413 800 LINE",
"413 834 LINE",
"273 834 LINE",
"273 800 LINE",
"338 790 LINE",
"352 790 LINE"
);
},
{
closed = 1;
nodes = (
"259 416 LINE",
"259 614 LINE",
"160 614 LINE",
"160 416 LINE"
);
},
{
closed = 1;
nodes = (
"383 834 LINE",
"340 834 LINE",
"230 611 LINE",
"252 613 LINE",
"145 834 LINE",
"34 834 LINE",
"177 554 LINE",
"240 554 LINE"
);
}
);
width = 420.49525;
}
);
leftKerningGroup = sups_diag;
rightKerningGroup = sups_v;
},
{
color = 0;
export = 0;
glyphname = Z.sups;
lastChange = "2019-06-06 16:52:29 +0000";
layers = (
{
layerId = "A9E1993B-555C-4280-8E93-805D459F1135";
paths = (
{
closed = 1;
nodes = (
"285 416 LINE",
"331 453 LINE",
"62 453 LINE",
"62 416 LINE",
"353 416 LINE",
"359 535 LINE",
"310 535 LINE"
);
},
{
closed = 1;
nodes = (
"97 834 LINE",
"51 798 LINE",
"305 798 LINE",
"305 834 LINE",
"29 834 LINE",
"24 715 LINE",
"72 715 LINE"
);
},
{
closed = 1;
nodes = (
"17 446 LINE",
"17 416 LINE",
"109 416 LINE",
"350 804 LINE",
"350 834 LINE",
"258 834 LINE"
);
}
);
width = 376.4731;
}
);
leftKerningGroup = sups_corner;
rightKerningGroup = sups_corner;
},
{
color = 0;
export = 0;
glyphname = a.sups;
lastChange = "2019-06-06 16:52:29 +0000";
layers = (
{
layerId = "A9E1993B-555C-4280-8E93-805D459F1135";
paths = (
{
closed = 1;
nodes = (
"295 621 LINE SMOOTH",
"295 707 OFFCURVE",
"261 741 OFFCURVE",
"181 741 CURVE SMOOTH",
"94 741 OFFCURVE",
"41 705 OFFCURVE",
"34 652 CURVE",
"38 632 OFFCURVE",
"52 621 OFFCURVE",
"74 621 CURVE SMOOTH",
"97 621 OFFCURVE",
"116 637 OFFCURVE",
"120 672 CURVE SMOOTH",
"128 721 LINE",
"88 698 LINE",
"116 707 OFFCURVE",
"134 709 OFFCURVE",
"150 709 CURVE SMOOTH",
"195 709 OFFCURVE",
"209 692 OFFCURVE",
"209 632 CURVE SMOOTH",
"209 478 LINE SMOOTH",
"211 435 OFFCURVE",
"234 408 OFFCURVE",
"281 408 CURVE SMOOTH",
"315 408 OFFCURVE",
"336 420 OFFCURVE",
"352 453 CURVE",
"336 465 LINE",
"327 455 OFFCURVE",
"320 451 OFFCURVE",
"312 451 CURVE SMOOTH",
"301 451 OFFCURVE",
"295 459 OFFCURVE",
"295 476 CURVE SMOOTH"
);
},
{
closed = 1;
nodes = (
"109 532 OFFCURVE",
"125 555 OFFCURVE",
"165 571 CURVE SMOOTH",
"185 579 OFFCURVE",
"222 589 OFFCURVE",
"254 597 CURVE",
"254 623 LINE",
"222 615 OFFCURVE",
"176 604 OFFCURVE",
"147 595 CURVE SMOOTH",
"49 566 OFFCURVE",
"24 533 OFFCURVE",
"24 490 CURVE SMOOTH",
"24 437 OFFCURVE",
"62 407 OFFCURVE",
"113 407 CURVE SMOOTH",
"159 407 OFFCURVE",
"180 428 OFFCURVE",
"215 462 CURVE SMOOTH",
"241 489 LINE",
"233 499 LINE",
"212 485 LINE SMOOTH",
"182 464 OFFCURVE",
"171 456 OFFCURVE",
"154 456 CURVE SMOOTH",
"131 456 OFFCURVE",
"109 471 OFFCURVE",
"109 505 CURVE SMOOTH"
);
}
);
width = 353.99051;
}
);
leftKerningGroup = sups_round;
rightKerningGroup = sups_corner;
},
{
color = 0;
export = 0;
glyphname = b.sups;
lastChange = "2019-06-06 16:52:29 +0000";
layers = (
{
layerId = "A9E1993B-555C-4280-8E93-805D459F1135";
paths = (
{
closed = 1;
nodes = (
"87 458 LINE",
"20 445 LINE",
"20 416 LINE",
"137 406 LINE",
"150 471 LINE",
"150 880 LINE",
"138 886 LINE",
"14 856 LINE",
"14 829 LINE",
"62 823 LINE",
"62 416 LINE"
);
},
{
closed = 1;
nodes = (
"285 489 OFFCURVE",
"254 456 OFFCURVE",
"212 456 CURVE SMOOTH",
"176 456 OFFCURVE",
"150 478 OFFCURVE",
"117 515 CURVE",
"111 501 LINE",
"143 435 OFFCURVE",
"181 406 OFFCURVE",
"236 406 CURVE SMOOTH",
"313 406 OFFCURVE",
"378 468 OFFCURVE",
"378 576 CURVE SMOOTH",
"378 686 OFFCURVE",
"319 741 OFFCURVE",
"248 741 CURVE SMOOTH",
"191 741 OFFCURVE",
"147 709 OFFCURVE",
"108 646 CURVE",
"114 632 LINE",
"147 664 OFFCURVE",
"179 691 OFFCURVE",
"215 691 CURVE SMOOTH",
"256 691 OFFCURVE",
"285 659 OFFCURVE",
"285 573 CURVE SMOOTH"
);
}
);
width = 402.48259;
}
);
leftKerningGroup = sups_corner;
rightKerningGroup = sups_round;
},
{
color = 0;
export = 0;
glyphname = c.sups;
lastChange = "2019-06-06 16:52:29 +0000";
layers = (
{
layerId = "A9E1993B-555C-4280-8E93-805D459F1135";
paths = (
{
closed = 1;
nodes = (
"229 707 OFFCURVE",
"244 702 OFFCURVE",
"266 692 CURVE",
"225 720 LINE",
"232 673 LINE SMOOTH",
"237 632 OFFCURVE",
"256 617 OFFCURVE",
"280 617 CURVE SMOOTH",
"302 617 OFFCURVE",
"314 627 OFFCURVE",
"320 649 CURVE",
"314 700 OFFCURVE",
"263 741 OFFCURVE",
"196 741 CURVE SMOOTH",
"103 741 OFFCURVE",
"25 678 OFFCURVE",
"25 573 CURVE SMOOTH",
"25 467 OFFCURVE",
"94 406 OFFCURVE",
"184 406 CURVE SMOOTH",
"250 406 OFFCURVE",
"297 436 OFFCURVE",
"319 491 CURVE",
"298 506 LINE",
"278 478 OFFCURVE",
"252 462 OFFCURVE",
"211 462 CURVE SMOOTH",
"156 462 OFFCURVE",
"116 503 OFFCURVE",
"116 583 CURVE SMOOTH",
"116 668 OFFCURVE",
"157 707 OFFCURVE",
"205 707 CURVE SMOOTH"
);
}
);
width = 332.99684;
}
);
leftKerningGroup = sups_round;
rightKerningGroup = sups_round;
},
{
color = 0;
export = 0;
glyphname = d.sups;
lastChange = "2019-06-06 16:52:29 +0000";
layers = (
{
layerId = "A9E1993B-555C-4280-8E93-805D459F1135";
paths = (
{
closed = 1;
nodes = (
"116 658 OFFCURVE",
"149 691 OFFCURVE",
"194 691 CURVE SMOOTH",
"222 691 OFFCURVE",
"249 673 OFFCURVE",
"279 640 CURVE",
"286 654 LINE",
"254 710 OFFCURVE",
"223 741 OFFCURVE",
"169 741 CURVE SMOOTH",
"93 741 OFFCURVE",
"24 681 OFFCURVE",
"24 572 CURVE SMOOTH",
"24 460 OFFCURVE",
"86 406 OFFCURVE",
"157 406 CURVE SMOOTH",
"215 406 OFFCURVE",
"254 439 OFFCURVE",
"290 500 CURVE",
"283 513 LINE",
"254 478 OFFCURVE",
"227 456 OFFCURVE",
"193 456 CURVE SMOOTH",
"150 456 OFFCURVE",
"116 487 OFFCURVE",
"116 573 CURVE SMOOTH"
);
},
{
closed = 1;
nodes = (
"340 416 LINE",
"340 880 LINE",
"329 886 LINE",
"202 856 LINE",
"202 829 LINE",
"252 822 LINE",
"252 470 LINE",
"260 410 LINE",
"381 416 LINE",
"381 445 LINE",
"307 460 LINE"
);
}
);
width = 389.00316;
}
);
leftKerningGroup = sups_round;
rightKerningGroup = sups_corner;
},
